<svg width="28" height="24" viewBox="0 0 28 24" fill="none" xmlns="http://www.w3.org/2000/svg">
<path d="M20 0C17.375 0 15.0925 1.18375 13.75 3.1675C12.4075 1.18375 10.125 0 7.5 0C5.51159 0.00231576 3.60528 0.793236 2.19926 2.19926C0.793236 3.60528 0.00231576 5.51159 0 7.5C0 11.15 2.275 14.9487 6.7625 18.7887C8.81881 20.541 11.04 22.0899 13.395 23.4137C13.5041 23.4724 13.6261 23.5031 13.75 23.5031C13.8739 23.5031 13.9959 23.4724 14.105 23.4137C16.46 22.0899 18.6812 20.541 20.7375 18.7887C25.225 14.9487 27.5 11.15 27.5 7.5C27.4977 5.51159 26.7068 3.60528 25.3007 2.19926C23.8947 0.793236 21.9884 0.00231576 20 0ZM13.75 21.8888C11.6987 20.705 1.5 14.465 1.5 7.5C1.50165 5.90921 2.13433 4.38405 3.25919 3.25919C4.38405 2.13433 5.90921 1.50165 7.5 1.5C10.035 1.5 12.1637 2.85375 13.0562 5.03375C13.1128 5.17131 13.2089 5.28896 13.3324 5.37176C13.4559 5.45457 13.6013 5.49877 13.75 5.49877C13.8987 5.49877 14.0441 5.45457 14.1676 5.37176C14.2911 5.28896 14.3872 5.17131 14.4438 5.03375C15.3363 2.85375 17.465 1.5 20 1.5C21.5908 1.50165 23.116 2.13433 24.2408 3.25919C25.3657 4.38405 25.9983 5.90921 26 7.5C26 14.465 15.8013 20.705 13.75 21.8888Z" fill="black"/>
</svg>
