<svg width="20" height="26" viewBox="0 0 20 26" fill="none" xmlns="http://www.w3.org/2000/svg">
<path d="M19.53 19.53L13.53 25.53C13.3894 25.6705 13.1988 25.7493 13 25.7493C12.8012 25.7493 12.6106 25.6705 12.47 25.53L6.47 19.53C6.33752 19.3878 6.2654 19.1998 6.26882 19.0055C6.27225 18.8112 6.35097 18.6258 6.48838 18.4884C6.62579 18.351 6.81118 18.2723 7.00548 18.2688C7.19978 18.2654 7.38782 18.3375 7.53 18.47L12.25 23.1887V13C12.2467 10.0173 11.0604 7.15777 8.9513 5.0487C6.84223 2.93964 3.98267 1.75331 1 1.75C0.801088 1.75 0.610322 1.67098 0.46967 1.53033C0.329018 1.38968 0.25 1.19891 0.25 1C0.25 0.801088 0.329018 0.610322 0.46967 0.46967C0.610322 0.329018 0.801088 0.25 1 0.25C4.38029 0.25397 7.621 1.59854 10.0112 3.98877C12.4015 6.379 13.746 9.61971 13.75 13V23.1887L18.47 18.47C18.6122 18.3375 18.8002 18.2654 18.9945 18.2688C19.1888 18.2723 19.3742 18.351 19.5116 18.4884C19.649 18.6258 19.7277 18.8112 19.7312 19.0055C19.7346 19.1998 19.6625 19.3878 19.53 19.53Z" fill="black"/>
</svg>
