<svg width="95" height="113" viewBox="0 0 95 113" fill="none" xmlns="http://www.w3.org/2000/svg">
<path d="M93.6575 34.9848C93.6929 33.3654 93.3049 31.7649 92.5321 30.3436C91.7311 28.9697 90.5764 27.8383 89.1896 27.0687C76.8959 19.9326 64.5979 12.8064 52.2956 5.69016C48.9829 3.76451 45.7721 3.83282 42.4807 5.78836C37.5881 8.67897 13.0869 22.8075 5.78624 27.0644C2.77933 28.815 1.31835 31.4964 1.31835 34.9805V78.0194C1.28732 79.6046 1.66013 81.1715 2.40134 82.571C3.20266 83.9868 4.37877 85.1514 5.79898 85.9355C13.0996 90.2053 37.6051 104.317 42.4977 107.22C45.7891 109.176 48.9999 109.244 52.3168 107.318C64.6078 100.179 76.9058 93.0503 89.2109 85.9313C90.6311 85.1472 91.8072 83.9825 92.6085 82.5667C93.3497 81.1672 93.7225 79.6004 93.6915 78.0152V34.9848H93.6575Z" fill="black"/>
<path d="M93.666 78.0195C93.698 79.6048 93.3251 81.1718 92.583 82.571C92.4008 82.9042 92.195 83.2239 91.9672 83.5274L47.4879 56.5L89.1896 27.0687C90.5751 27.8386 91.7283 28.97 92.5278 30.3436C93.3039 31.7638 93.6936 33.3648 93.6575 34.9848C93.666 49.3311 93.666 78.0195 93.666 78.0195Z" fill="black"/>
<path d="M92.5278 30.3436L2.38861 82.571C1.6507 81.1721 1.28081 79.6068 1.31411 78.0237V34.9806C1.31411 31.4965 2.77934 28.8151 5.78199 27.0645C13.0869 22.8075 37.5881 8.67899 42.4849 5.77984C45.7679 3.82431 48.9829 3.75599 52.2956 5.68164C64.5865 12.8206 76.8845 19.9497 89.1896 27.0687C90.5751 27.8386 91.7283 28.97 92.5278 30.3436Z" fill="#303030"/>
<path d="M49.2717 73.8864C46.2365 73.8906 43.2558 73.0755 40.641 71.526C38.0263 69.9765 35.8733 67.7496 34.407 65.0779C34.257 64.8103 34.1154 64.5371 33.9823 64.2581C32.1732 60.5018 31.797 56.209 32.925 52.1925C34.053 48.1761 36.6069 44.7149 40.103 42.4645C43.599 40.2142 47.7946 39.3308 51.8951 39.9817C55.9956 40.6326 59.7163 42.7726 62.3526 45.9965C62.5776 46.2697 62.7773 46.5558 63.0024 46.8504C63.1043 46.9913 63.2062 47.1322 63.2996 47.2774L78.194 38.6525C77.8316 38.0661 77.4522 37.4968 77.0558 36.9446C76.8477 36.65 76.6311 36.3682 76.4272 36.0907C71.2504 29.3295 63.7413 24.7639 55.381 23.2946C47.0208 21.8253 38.4163 23.5588 31.2648 28.1533C24.1133 32.7478 18.9339 39.8696 16.7482 48.1142C14.5625 56.3588 15.5291 65.1275 19.4574 72.6908C19.6018 72.9641 19.7505 73.2331 19.8821 73.5021C22.7672 78.6196 26.9193 82.9003 31.9354 85.9287C36.9515 88.957 42.6612 90.6302 48.5103 90.7857C54.3593 90.9413 60.1489 89.5739 65.3173 86.8164C70.4856 84.0588 74.857 80.0048 78.0071 75.0477L63.444 66.1966C61.9022 68.5602 59.7993 70.5008 57.3251 71.8433C54.8509 73.1857 52.0832 73.8879 49.2717 73.8864Z" fill="white"/>
</svg>
