<svg width="26" height="24" viewBox="0 0 26 24" fill="none" xmlns="http://www.w3.org/2000/svg">
<path d="M23.75 0H1.75003C1.2859 0 0.840777 0.184375 0.512589 0.512563C0.1844 0.840752 2.54881e-05 1.28587 2.54881e-05 1.75V21.75C-0.00178267 22.0836 0.0926499 22.4107 0.272007 22.6921C0.451365 22.9734 0.70804 23.1971 1.01128 23.3363C1.24278 23.4436 1.49483 23.4995 1.75003 23.5C2.16229 23.5002 2.56115 23.3535 2.87503 23.0863L2.88253 23.08L7.02878 19.5H23.75C24.2142 19.5 24.6593 19.3156 24.9875 18.9874C25.3156 18.6592 25.5 18.2141 25.5 17.75V1.75C25.5 1.28587 25.3156 0.840752 24.9875 0.512563C24.6593 0.184375 24.2142 0 23.75 0ZM24 17.75C24 17.8163 23.9737 17.8799 23.9268 17.9268C23.8799 17.9737 23.8163 18 23.75 18H6.75003C6.57009 18.0001 6.39618 18.0649 6.26003 18.1825L1.90753 21.9412C1.87103 21.9709 1.82693 21.9896 1.78029 21.9953C1.73364 22.001 1.68633 21.9934 1.64379 21.9734C1.60125 21.9535 1.5652 21.9219 1.53977 21.8824C1.51434 21.8429 1.50057 21.797 1.50003 21.75V1.75C1.50003 1.6837 1.52636 1.62011 1.57325 1.57322C1.62013 1.52634 1.68372 1.5 1.75003 1.5H23.75C23.8163 1.5 23.8799 1.52634 23.9268 1.57322C23.9737 1.62011 24 1.6837 24 1.75V17.75Z" fill="black"/>
</svg>
