<svg width="20" height="20" viewBox="0 0 20 20" fill="none" xmlns="http://www.w3.org/2000/svg">
<path d="M10 18.3334C14.5833 18.3334 18.3333 14.5834 18.3333 10.0001C18.3333 5.41675 14.5833 1.66675 10 1.66675C5.41667 1.66675 1.66667 5.41675 1.66667 10.0001C1.66667 14.5834 5.41667 18.3334 10 18.3334Z" stroke="white" stroke-width="1.5" stroke-linecap="round" stroke-linejoin="round"/>
<path fill-rule="evenodd" clip-rule="evenodd" d="M11.9359 13.0049C12.2285 13.298 12.7034 13.2984 12.9965 13.0058C13.2897 12.7132 13.2901 12.2383 12.9975 11.9451L11.1711 10.1155L13.0049 8.28495C13.298 7.99231 13.2984 7.51744 13.0058 7.22429C12.7132 6.93114 12.2383 6.93072 11.9451 7.22335L10.1113 9.05392L8.2808 7.22014C7.98816 6.92699 7.51329 6.92657 7.22014 7.2192C6.92699 7.51184 6.92657 7.98671 7.2192 8.27986L9.04975 10.1136L7.22014 11.94C6.92699 12.2327 6.92657 12.7075 7.2192 13.0007C7.51184 13.2938 7.98671 13.2942 8.27986 13.0016L10.1095 11.1752L11.9359 13.0049Z" fill="white"/>
</svg>
