<svg width="24" height="24" viewBox="0 0 24 24" fill="none" xmlns="http://www.w3.org/2000/svg">
<path d="M12 5C6.55601 5 3.53101 9.234 2.45601 11.116C2.23501 11.502 2.125 11.696 2.136 11.984C2.149 12.272 2.27901 12.46 2.53801 12.836C3.81801 14.694 7.29401 19 12 19C16.706 19 20.182 14.694 21.462 12.836C21.722 12.46 21.852 12.272 21.863 11.984C21.874 11.696 21.765 11.502 21.544 11.116C20.47 9.234 17.444 5 12 5Z" stroke="#7F7F7F" stroke-width="1.5"/>
<path d="M12 15C13.6569 15 15 13.6569 15 12C15 10.3431 13.6569 9 12 9C10.3431 9 9 10.3431 9 12C9 13.6569 10.3431 15 12 15Z" stroke="#7F7F7F" stroke-width="1.5"/>
</svg>
