<svg width="716" height="110" viewBox="0 0 716 110" fill="none" xmlns="http://www.w3.org/2000/svg">
<g clip-path="url(#clip0_177_95482)">
<rect x="-13.5" y="0.5" width="104" height="15" stroke="#E6E6E6"/>
<rect x="-13.5" y="58.5" width="104" height="9" stroke="#E6E6E6"/>
<rect x="-13.5" y="100.5" width="104" height="9" stroke="#E6E6E6"/>
<rect x="84.5" y="67.5" width="33" height="6" transform="rotate(90 84.5 67.5)" stroke="#E6E6E6"/>
<rect x="240.5" y="65.5" width="74" height="9" stroke="#E6E6E6"/>
<rect x="246.5" y="74.5" width="26" height="6" transform="rotate(90 246.5 74.5)" stroke="#E6E6E6"/>
<rect x="314.5" y="74.5" width="26" height="6" transform="rotate(90 314.5 74.5)" stroke="#E6E6E6"/>
<rect x="-7.5" y="15.5" width="46" height="43" stroke="#E6E6E6"/>
<rect x="38.5" y="15.5" width="46" height="43" stroke="#E6E6E6"/>
<path d="M5.5 43.5C5.5 37.9772 9.97715 33.5 15.5 33.5C21.0228 33.5 25.5 37.9772 25.5 43.5V58.5H5.5V43.5Z" stroke="#E6E6E6"/>
<path d="M50.5 43.5C50.5 37.9772 54.9772 33.5 60.5 33.5C66.0228 33.5 70.5 37.9772 70.5 43.5V58.5H50.5V43.5Z" stroke="#E6E6E6"/>
<rect x="102.5" y="71.5" width="70" height="38" stroke="#E6E6E6"/>
<path d="M113.5 29C113.5 16.5736 123.574 6.5 136 6.5C148.426 6.5 158.5 16.5736 158.5 29V71.5H113.5V29Z" stroke="#E6E6E6"/>
<path d="M109.5 27C109.5 12.3645 121.364 0.5 136 0.5C150.636 0.5 162.5 12.3645 162.5 27V71.5H109.5V27Z" stroke="#E6E6E6"/>
<rect x="139.5" y="91.5" width="60" height="9" stroke="#E6E6E6"/>
<rect x="78.5" y="100.5" width="37" height="9" stroke="#E6E6E6"/>
<rect x="466.5" y="0.5" width="104" height="15" stroke="#E6E6E6"/>
<rect x="466.5" y="58.5" width="104" height="9" stroke="#E6E6E6"/>
<rect x="466.5" y="100.5" width="104" height="9" stroke="#E6E6E6"/>
<rect x="478.5" y="67.5" width="33" height="6" transform="rotate(90 478.5 67.5)" stroke="#E6E6E6"/>
<rect x="564.5" y="67.5" width="33" height="6" transform="rotate(90 564.5 67.5)" stroke="#E6E6E6"/>
<rect x="472.5" y="15.5" width="46" height="43" stroke="#E6E6E6"/>
<rect x="518.5" y="15.5" width="46" height="43" stroke="#E6E6E6"/>
<path d="M485.5 43.5C485.5 37.9772 489.977 33.5 495.5 33.5C501.023 33.5 505.5 37.9772 505.5 43.5V58.5H485.5V43.5Z" stroke="#E6E6E6"/>
<path d="M530.5 43.5C530.5 37.9772 534.977 33.5 540.5 33.5C546.023 33.5 550.5 37.9772 550.5 43.5V58.5H530.5V43.5Z" stroke="#E6E6E6"/>
<rect x="558.5" y="100.5" width="37" height="9" stroke="#E6E6E6"/>
<rect x="120.5" y="50.5" width="31" height="21" stroke="#E6E6E6"/>
<rect x="0.5" y="-0.5" width="21" height="12" transform="matrix(1 0 0 -1 125 50)" stroke="#E6E6E6"/>
<rect x="266.5" y="89.5" width="31" height="11" stroke="#E6E6E6"/>
<rect x="0.5" y="-0.5" width="21" height="6" transform="matrix(1 0 0 -1 271 89)" stroke="#E6E6E6"/>
<rect x="-0.5" y="0.5" width="8" height="94" transform="matrix(-1 0 0 1 212 15)" stroke="#E6E6E6"/>
<path d="M204.902 15.5L214.277 0.5H346.098L336.723 15.5H204.902Z" stroke="#E6E6E6"/>
<path d="M347 0V109H338" stroke="#E6E6E6"/>
<path d="M337.5 15L338 110" stroke="#E6E6E6"/>
<rect x="195.5" y="100.5" width="151" height="9" stroke="#E6E6E6"/>
<rect x="136.5" y="100.5" width="76" height="9" stroke="#E6E6E6"/>
<rect x="212.5" y="35.5" width="43" height="65" stroke="#E6E6E6"/>
<rect x="277.5" y="15.5" width="60" height="21" stroke="#E6E6E6"/>
<path d="M217.43 52.8734L236.308 42.895L237.106 64.2334L217.43 52.8734Z" stroke="#E6E6E6"/>
<rect x="0.5" y="-0.5" width="43" height="6" transform="matrix(1 0 0 -1 286 29)" stroke="#E6E6E6"/>
<rect x="366.5" y="71.5" width="70" height="38" stroke="#E6E6E6"/>
<path d="M377.5 29C377.5 16.5736 387.574 6.5 400 6.5C412.426 6.5 422.5 16.5736 422.5 29V71.5H377.5V29Z" stroke="#E6E6E6"/>
<path d="M373.5 27C373.5 12.3645 385.364 0.5 400 0.5C414.636 0.5 426.5 12.3645 426.5 27V71.5H373.5V27Z" stroke="#E6E6E6"/>
<rect x="403.5" y="91.5" width="60" height="9" stroke="#E6E6E6"/>
<rect x="342.5" y="100.5" width="37" height="9" stroke="#E6E6E6"/>
<rect x="623.5" y="65.5" width="74" height="9" stroke="#E6E6E6"/>
<rect x="629.5" y="74.5" width="26" height="6" transform="rotate(90 629.5 74.5)" stroke="#E6E6E6"/>
<rect x="697.5" y="74.5" width="26" height="6" transform="rotate(90 697.5 74.5)" stroke="#E6E6E6"/>
<rect x="649.5" y="89.5" width="31" height="11" stroke="#E6E6E6"/>
<rect x="0.5" y="-0.5" width="21" height="6" transform="matrix(1 0 0 -1 654 89)" stroke="#E6E6E6"/>
<rect x="-0.5" y="0.5" width="8" height="94" transform="matrix(-1 0 0 1 595 15)" stroke="#E6E6E6"/>
<path d="M587.902 15.5L597.277 0.5H729.098L719.723 15.5H587.902Z" stroke="#E6E6E6"/>
<rect x="578.5" y="100.5" width="151" height="9" stroke="#E6E6E6"/>
<rect x="595.5" y="35.5" width="43" height="65" stroke="#E6E6E6"/>
<rect x="660.5" y="15.5" width="60" height="21" stroke="#E6E6E6"/>
<path d="M603.1 51.2689L619.006 42.862L619.678 60.8398L603.1 51.2689Z" stroke="#E6E6E6"/>
<rect x="0.5" y="-0.5" width="43" height="6" transform="matrix(1 0 0 -1 669 29)" stroke="#E6E6E6"/>
<rect x="384.5" y="50.5" width="31" height="21" stroke="#E6E6E6"/>
<rect x="0.5" y="-0.5" width="21" height="12" transform="matrix(1 0 0 -1 389 50)" stroke="#E6E6E6"/>
<rect x="400.5" y="100.5" width="76" height="9" stroke="#E6E6E6"/>
</g>
<defs>
<clipPath id="clip0_177_95482">
<rect width="715" height="110" fill="white" transform="translate(0.5)"/>
</clipPath>
</defs>
</svg>
