<svg width="117" height="58" viewBox="0 0 117 58" fill="none" xmlns="http://www.w3.org/2000/svg">
<path d="M8.82714 20.7257C8.66665 20.7257 8.50615 20.5665 8.66665 20.4074L9.7901 18.8162C9.9506 18.6571 10.1111 18.4979 10.4321 18.4979H30.6543C30.8148 18.4979 30.9753 18.6571 30.8148 18.8162L29.8518 20.2483C29.6913 20.4074 29.5308 20.5665 29.2099 20.5665L8.82714 20.7257ZM0.320967 25.8176C0.160473 25.8176 -2.10923e-05 25.6584 0.160473 25.4993L1.28393 23.9081C1.44442 23.749 1.60492 23.5899 1.92591 23.5899H27.7654C27.9259 23.5899 28.0864 23.749 28.0864 23.9081L27.6049 25.4993C27.6049 25.6584 27.2839 25.8176 27.1234 25.8176H0.320967ZM13.9629 31.0686C13.8024 31.0686 13.642 30.9095 13.8024 30.7503L14.6049 29.3182C14.7654 29.1591 14.9259 29 15.2469 29H26.4815C26.642 29 26.8024 29.1591 26.8024 29.3182L26.642 30.5912C26.642 30.7503 26.4815 30.9095 26.321 30.9095L13.9629 31.0686ZM72.7037 19.6118L63.2345 21.9986C62.4321 22.1578 62.2716 22.3169 61.6296 21.3621C60.8271 20.4074 60.1852 19.7709 58.9012 19.2936C55.3704 17.5432 51.8395 18.0206 48.6296 20.0892C44.7778 22.476 42.8518 26.1358 42.8518 30.7503C42.8518 35.2058 46.0617 38.8656 50.5555 39.5021C54.4074 39.9794 57.6173 38.7064 60.1852 35.8423C60.6666 35.2058 61.1481 34.5693 61.7901 33.7737H50.8765C49.7531 33.7737 49.4321 32.9781 49.7531 32.0233C50.5555 30.273 51.8395 27.4088 52.642 25.9767C52.8024 25.6584 53.2839 25.0219 54.0864 25.0219H74.6296C74.4691 26.6132 74.4691 28.0453 74.3086 29.6365C73.6666 33.6145 72.2222 37.4335 69.6543 40.6159C65.642 45.8669 60.3457 49.2085 53.6049 50.1632C47.9876 50.9588 42.8518 49.845 38.358 46.5034C34.1852 43.321 31.7778 39.1838 31.1358 34.0919C30.3333 28.0453 32.2592 22.476 35.9506 17.7023C39.9629 12.4513 45.2592 9.10974 51.8395 7.99589C57.1358 7.04116 62.2716 7.67764 66.7654 10.701C69.8148 12.6104 71.9012 15.3155 73.3457 18.6571C73.5062 19.2936 73.3457 19.4527 72.7037 19.6118Z" fill="black"/>
<path d="M91.3209 50.6406C86.1851 50.4815 81.5308 49.0494 77.5184 45.7078C74.1481 42.8436 72.0617 39.1838 71.4197 34.8875C70.4567 28.5226 72.2221 22.9534 76.074 18.0206C80.2468 12.6104 85.2221 9.90535 91.9629 8.63238C97.7407 7.67764 103.197 8.15501 108.012 11.4966C112.506 14.5199 115.234 18.6571 116.037 24.0672C117 31.7051 114.753 37.7517 109.617 43.0027C105.926 46.8217 101.272 49.0494 96.1357 50.1632C94.3703 50.4815 92.7654 50.4815 91.3209 50.6406ZM104.802 28.0453C104.802 27.2497 104.802 26.7723 104.642 26.1358C103.679 20.5665 98.5431 17.3841 93.0864 18.6571C87.7901 19.7709 84.4197 23.1125 83.1357 28.3635C82.1728 32.6598 84.2592 37.1152 88.2715 39.0247C91.3209 40.2977 94.5308 40.1385 97.4197 38.7064C102.074 36.4787 104.481 32.8189 104.802 28.0453Z" fill="black"/>
</svg>
