<svg width="16" height="17" viewBox="0 0 16 17" fill="none" xmlns="http://www.w3.org/2000/svg">
<path d="M4.99822 2.80705L5.30529 3.32253L4.99822 2.80705ZM11.0018 2.80705L10.6947 3.32252L10.6947 3.32253L11.0018 2.80705ZM1.44999 10.5269L0.856103 10.6124L1.44999 10.5269ZM14.55 10.5269L13.9561 10.4414V10.4415L14.55 10.5269ZM11.9712 3.38451L12.2782 2.86904V2.86904L11.9712 3.38451ZM14.7452 9.17075L15.339 9.25621V9.25621L14.7452 9.17075ZM4.02884 3.38451L3.72177 2.86904L4.02884 3.38451ZM1.25485 9.17075L1.84873 9.0853L1.25485 9.17075ZM6.25729 10.8181C5.99108 10.6208 5.61531 10.6766 5.41798 10.9428C5.22065 11.209 5.2765 11.5848 5.54271 11.7821L6.25729 10.8181ZM10.4573 11.7821C10.7235 11.5848 10.7793 11.209 10.582 10.9428C10.3847 10.6766 10.0089 10.6208 9.74271 10.8181L10.4573 11.7821ZM8.77425 14.9002H7.22575V16.1002H8.77425V14.9002ZM4.3359 3.89998L5.30529 3.32253L4.69116 2.29158L3.72177 2.86904L4.3359 3.89998ZM10.6947 3.32253L11.6641 3.89998L12.2782 2.86904L11.3088 2.29158L10.6947 3.32253ZM2.04387 10.4414L1.84873 9.0853L0.660967 9.2562L0.856103 10.6124L2.04387 10.4414ZM14.1513 9.0853L13.9561 10.4414L15.1439 10.6124L15.339 9.25621L14.1513 9.0853ZM5.30529 3.32253C6.04683 2.8808 6.5654 2.57271 6.99832 2.37064C7.41893 2.17431 7.71432 2.10024 8 2.10024V0.900244C7.47767 0.900244 7.00342 1.04398 6.49077 1.28326C5.99044 1.51679 5.41213 1.86211 4.69116 2.29158L5.30529 3.32253ZM11.3088 2.29158C10.5879 1.8621 10.0096 1.51679 9.50923 1.28325C8.99659 1.04398 8.52233 0.900244 8 0.900244V2.10024C8.28569 2.10024 8.58107 2.17431 9.00168 2.37064C9.4346 2.57271 9.95317 2.88079 10.6947 3.32252L11.3088 2.29158ZM7.22575 14.9002C6.00393 14.9002 5.14342 14.8991 4.48343 14.8164C3.83985 14.7357 3.46337 14.5849 3.17582 14.3373L2.39282 15.2466C2.92781 15.7073 3.56576 15.9107 4.33411 16.007C5.08604 16.1013 6.03498 16.1002 7.22575 16.1002V14.9002ZM0.856103 10.6124C1.02446 11.7824 1.15767 12.7161 1.35828 13.4427C1.5635 14.186 1.85733 14.7856 2.39282 15.2466L3.17582 14.3373C2.88876 14.0901 2.68602 13.7427 2.51501 13.1234C2.33939 12.4873 2.21671 11.6426 2.04387 10.4414L0.856103 10.6124ZM8.77425 16.1002C9.96502 16.1002 10.914 16.1013 11.6659 16.007C12.4342 15.9107 13.0722 15.7073 13.6072 15.2466L12.8242 14.3373C12.5366 14.5849 12.1602 14.7357 11.5166 14.8164C10.8566 14.8991 9.99607 14.9002 8.77425 14.9002V16.1002ZM13.9561 10.4415C13.7833 11.6426 13.6606 12.4873 13.485 13.1234C13.314 13.7427 13.1112 14.0901 12.8242 14.3373L13.6072 15.2466C14.1427 14.7856 14.4365 14.186 14.6417 13.4427C14.8423 12.7161 14.9755 11.7824 15.1439 10.6124L13.9561 10.4415ZM11.6641 3.89998C12.4805 4.38632 13.0515 4.72741 13.4696 5.04191C13.8761 5.34773 14.0916 5.59547 14.2242 5.87209L15.3063 5.35333C15.0606 4.8408 14.6843 4.45413 14.191 4.08298C13.7092 3.72051 13.0723 3.34207 12.2782 2.86904L11.6641 3.89998ZM15.339 9.25621C15.47 8.34621 15.5758 7.61629 15.5963 7.01589C15.6173 6.40068 15.5521 5.86613 15.3063 5.35333L14.2242 5.87209C14.3567 6.14842 14.4143 6.46993 14.397 6.97497C14.3793 7.49483 14.2859 8.14936 14.1513 9.0853L15.339 9.25621ZM3.72177 2.86904C2.92768 3.34207 2.29082 3.72051 1.80901 4.08298C1.31568 4.45413 0.939429 4.8408 0.693718 5.35333L1.77579 5.87209C1.90841 5.59547 2.12395 5.34773 2.53044 5.04191C2.94847 4.72741 3.51949 4.38632 4.3359 3.89998L3.72177 2.86904ZM1.84873 9.0853C1.71406 8.14935 1.62072 7.49482 1.60298 6.97497C1.58575 6.46993 1.64332 6.14842 1.77579 5.87209L0.693718 5.35333C0.447873 5.86613 0.382685 6.40067 0.403677 7.01589C0.424164 7.61629 0.530028 8.34621 0.660967 9.2562L1.84873 9.0853ZM8 11.4001C7.35482 11.4001 6.75492 11.187 6.25729 10.8181L5.54271 11.7821C6.2356 12.2957 7.08357 12.6001 8 12.6001V11.4001ZM9.74271 10.8181C9.24508 11.187 8.64518 11.4001 8 11.4001V12.6001C8.91643 12.6001 9.7644 12.2957 10.4573 11.7821L9.74271 10.8181Z" fill="#AEAEAE"/>
</svg>
