<svg width="13" height="13" viewBox="0 0 13 13" fill="none" xmlns="http://www.w3.org/2000/svg">
<path d="M12.74 3.84L8.708 12H7.232L6.068 3.84H7.556L8.072 7.944L8.264 10.068L9.236 7.932L11.18 3.84H12.74Z" fill="black"/>
<path d="M2.232 8.772C2.232 9.356 2.36 9.836 2.616 10.212C2.872 10.58 3.292 10.764 3.876 10.764C4.116 10.764 4.364 10.732 4.62 10.668C4.884 10.604 5.208 10.496 5.592 10.344L6.036 11.592C5.604 11.784 5.204 11.92 4.836 12C4.476 12.08 4.128 12.12 3.792 12.12C3.12 12.12 2.556 11.976 2.1 11.688C1.652 11.4 1.316 11.004 1.092 10.5C0.868 9.996 0.756 9.42 0.756 8.772V7.056C0.756 6.408 0.868 5.832 1.092 5.328C1.316 4.824 1.652 4.432 2.1 4.152C2.556 3.864 3.12 3.72 3.792 3.72C4.12 3.72 4.46 3.76 4.812 3.84C5.164 3.912 5.548 4.04 5.964 4.224L5.52 5.496C5.152 5.344 4.844 5.236 4.596 5.172C4.348 5.108 4.108 5.076 3.876 5.076C3.292 5.076 2.872 5.26 2.616 5.628C2.36 5.996 2.232 6.472 2.232 7.056V8.772Z" fill="black"/>
</svg>
