<svg width="150" height="60" viewBox="0 0 150 60" fill="none" xmlns="http://www.w3.org/2000/svg">
<path d="M21.43 42.108C21.43 42.108 19.587 43.23 22.712 43.551C26.479 44.031 28.482 43.951 32.65 43.151C33.4876 43.6637 34.3735 44.0931 35.295 44.433C25.918 48.44 14.055 44.193 21.429 42.109L21.43 42.108ZM20.228 36.898C20.228 36.898 18.224 38.421 21.35 38.741C25.438 39.141 28.643 39.221 34.174 38.101C34.7119 38.6468 35.3707 39.0586 36.097 39.303C24.797 42.669 12.133 39.623 20.227 36.899L20.228 36.898ZM42.348 46.035C42.348 46.035 43.711 47.157 40.825 48.039C35.455 49.642 18.303 50.123 13.495 48.039C11.812 47.319 15.018 46.276 16.06 46.116C17.102 45.876 17.663 45.876 17.663 45.876C15.82 44.594 5.39999 48.521 12.363 49.643C31.518 52.769 47.307 48.281 42.338 46.036L42.348 46.035ZM22.312 31.448C22.312 31.448 13.576 33.532 19.186 34.253C21.59 34.573 26.319 34.493 30.726 34.173C34.333 33.853 37.939 33.211 37.939 33.211C37.939 33.211 36.657 33.771 35.775 34.333C26.879 36.657 9.80699 35.615 14.695 33.211C18.863 31.207 22.309 31.448 22.309 31.448H22.312ZM37.942 40.184C46.918 35.534 42.752 31.047 39.866 31.608C39.146 31.768 38.824 31.928 38.824 31.928C38.824 31.928 39.064 31.448 39.624 31.288C45.314 29.284 49.804 37.298 37.781 40.425C37.781 40.425 37.861 40.345 37.941 40.185L37.942 40.184ZM23.194 52.847C31.85 53.407 45.074 52.527 45.394 48.439C45.394 48.439 44.754 50.042 38.261 51.244C30.887 52.607 21.761 52.446 16.381 51.564C16.381 51.564 17.503 52.526 23.193 52.846L23.194 52.847Z" fill="black"/>
<path d="M32.49 5C32.49 5 37.46 10.05 27.76 17.663C19.986 23.833 25.997 27.361 27.76 31.368C23.192 27.281 19.906 23.674 22.16 20.308C25.438 15.34 34.494 12.935 32.49 5ZM29.925 28.002C32.249 30.647 29.285 33.052 29.285 33.052C29.285 33.052 35.215 30.006 32.491 26.239C30.006 22.632 28.083 20.869 38.501 14.859C38.501 14.859 22.071 18.946 29.925 28.002Z" fill="white"/>
<path d="M91.677 44.583V26.397C91.677 21.757 89.079 18.603 82.584 18.603C78.874 18.603 75.718 19.531 72.934 20.643L73.862 23.983C75.902 23.241 78.502 22.498 81.285 22.498C84.811 22.498 86.481 23.983 86.481 26.952V29.364H84.625C75.718 29.364 71.625 32.704 71.625 38.086C71.625 42.54 74.409 45.138 79.419 45.138C82.574 45.138 84.986 43.653 87.213 41.798L87.583 44.582H91.666L91.677 44.583ZM86.481 38.645C84.625 40.315 82.584 41.243 80.728 41.243C78.316 41.243 76.831 39.758 76.831 37.16C76.831 34.562 78.316 32.706 84.254 32.706H86.481V38.645ZM109.121 44.583H102.626L94.832 19.16H100.399L105.224 34.748L106.337 39.388C108.75 32.708 110.605 25.841 111.347 19.161H116.914C115.429 27.511 112.832 36.604 109.12 44.584L109.121 44.583ZM139.183 44.583V26.397C139.183 21.757 136.585 18.603 130.09 18.603C126.38 18.603 123.224 19.531 120.44 20.643L121.182 23.983C123.409 23.241 126.007 22.498 128.79 22.498C132.316 22.498 133.986 23.983 133.986 26.952V29.364H132.13C123.223 29.364 119.13 32.704 119.13 38.086C119.13 42.54 121.728 45.138 126.738 45.138C130.078 45.138 132.491 43.653 134.718 41.798L135.088 44.582H139.171L139.183 44.583ZM133.987 38.645C132.131 40.315 130.09 41.243 128.234 41.243C125.822 41.243 124.337 39.758 124.337 37.16C124.337 34.562 125.821 32.706 131.76 32.706H133.987V38.645ZM65.883 48.85C64.398 51.077 62.173 52.747 59.388 53.675L56.975 50.705C58.831 49.592 60.687 47.922 61.429 46.437C62.171 45.137 62.357 43.282 62.357 39.014V10.064H67.924V38.642C67.924 44.395 67.367 46.622 65.884 48.848L65.883 48.85Z" fill="black"/>
</svg>
