<svg width="148" height="148" viewBox="0 0 148 148" fill="none" xmlns="http://www.w3.org/2000/svg">
<path fill-rule="evenodd" clip-rule="evenodd" d="M105.036 71.1038C104.346 70.0504 101.308 61.5845 101.308 60.1664C101.308 58.7083 98.2306 53.9686 97.1764 52.5105C96.1644 51.0525 94.7063 46.3128 94.3001 44.652C93.8955 43.0319 90.1686 36.1861 89.7639 34.5254C89.3186 32.9053 88.3066 29.9884 86.6451 27.923C84.9851 25.8568 82.3922 22.1705 82.1089 20.3071C81.7848 18.4037 79.4353 14.312 78.18 12.8539C77.7346 12.3272 76.3157 9.45099 74.8991 7.75029C73.7236 6.33215 72.5895 5.72481 71.7795 8.31694C70.7261 11.5978 69.3087 13.664 68.2553 15.5274C67.2425 17.3909 63.1109 23.5887 62.4629 25.4514C61.8548 27.3149 57.3186 37.2396 56.0632 39.7104C54.8478 42.1812 46.7865 60.9772 46.3819 63.8941C45.9358 66.7703 43.263 73.7781 41.3996 76.2896C39.5361 78.7612 36.6599 79.9766 34.9999 81.0293C33.3391 82.0421 27.5867 85.769 25.7232 87.2271C23.8597 88.6844 19.3634 90.63 18.6747 91.7633C18.0267 92.8981 18.6747 96.2197 19.5254 97.637C20.3355 99.0951 24.0217 102.701 23.8597 104.969C23.5764 105.942 22.2803 107.116 23.009 107.804L24.6698 109.547L24.8725 115.947L21.9563 116.028L18.7154 117.85C18.7154 118.66 18.1487 119.511 18.5941 120.362C19.1615 121.375 21.835 123.035 24.2651 123.562C25.6833 123.845 27.3033 123.765 29.6928 123.603C29.6928 123.603 29.7734 124.252 29.9354 125.223C30.0974 126.438 30.3408 128.14 30.5842 129.476C30.9888 131.866 31.7183 133.811 32.5283 135.755C33.3383 137.741 35.4045 139.279 36.8626 139.685C38.3206 140.089 41.0756 140.089 42.7363 139.077C44.3564 138.024 52.6203 133.122 55.0505 132.271C57.4407 131.381 62.6656 128.747 69.7141 128.544C76.7626 128.342 83.1224 128.14 89.1174 132.271C95.1133 136.404 99.0828 140.778 102.566 141.345C106.009 141.912 109.534 140.454 110.951 139.117C112.329 137.781 113.301 135.026 114.272 131.259C114.839 128.505 114.394 124.738 116.663 125.588C117.675 125.952 119.134 125.912 120.511 125.628C123.104 125.102 127.033 122.509 127.964 121.699C128.897 120.93 130.03 119.269 129.423 118.419C128.775 117.569 125.008 117.285 125.008 117.285C125.089 113.962 124.278 112.585 122.172 110.155L122.82 103.755L128.573 96.9499C128.573 96.9499 129.423 93.6275 127.559 91.5614C125.697 89.496 112.491 78.5577 112.491 78.5577C112.491 78.5577 112.491 77.3024 110.627 75.8443C108.762 74.4261 105.724 72.158 105.036 71.1038Z" fill="black"/>
<path fill-rule="evenodd" clip-rule="evenodd" d="M111.638 81.8793C113.177 82.1634 124.965 90.2645 124.518 94.5589C124.114 98.8932 120.346 101.364 120.346 101.364C120.346 101.364 117.834 100.878 117.186 101.931C116.579 102.984 116.822 104.645 116.174 104.888C115.486 105.131 113.743 104.686 113.743 104.686C113.743 104.686 109.895 94.3155 109.733 91.0346C109.613 87.753 110.261 83.378 111.638 81.8793Z" fill="white"/>
<path fill-rule="evenodd" clip-rule="evenodd" d="M90.938 67.4183C91.0593 74.4261 82.0675 80.8673 73.9663 80.8673C65.8652 80.8673 57.2764 75.5602 57.3978 66.6075C57.5191 57.6549 65.4582 54.6988 74.0063 54.6988C82.5128 54.7387 90.776 60.3698 90.938 67.4183Z" fill="#8C5E57"/>
<path fill-rule="evenodd" clip-rule="evenodd" d="M27.3809 102.335L22.3986 95.5709C22.3986 95.5709 20.9804 93.464 22.4792 92.6133C24.0186 91.7219 33.9833 84.5521 33.9833 84.5521C33.9833 84.5521 35.2793 83.6207 36.5347 84.8354C37.7909 86.0508 37.5882 87.3469 37.3448 89.0084C37.1021 90.6692 33.4151 104.077 33.4151 104.077H32.3217L29.8909 101.768L27.3809 102.335ZM49.2151 66.6076C49.2151 66.6076 43.3007 83.256 42.0852 87.267C40.9105 91.3172 37.1029 103.794 36.0495 109.222C34.996 114.65 33.6593 125.547 34.2674 129.152C34.834 132.798 35.2793 136.282 37.6703 136.808C40.0597 137.375 42.896 134.986 45.7315 133.608C48.5264 132.19 55.8989 128.14 59.6258 126.965C63.3528 125.75 68.699 124.494 75.3429 124.859C81.986 125.264 90.0065 129.071 93.6114 131.34C96.6903 133.284 105.967 142.843 109.977 134.581C111.191 132.07 111.921 123.806 111.557 116.474C111.232 109.141 106.372 88.8065 104.712 81.6367C103.091 74.4669 99.2832 66.325 99.2832 66.325L93.7734 66.2444C93.7327 66.2444 93.4901 72.3208 90.8565 75.5211C88.1845 78.762 82.8367 83.461 74.2488 83.3788C65.6209 83.2982 60.8006 79.4093 58.4104 76.8164C55.9795 74.2649 54.5222 69.2826 54.8055 66.163C54.8048 66.1215 50.1058 66.5269 49.2151 66.6076Z" fill="white"/>
<path fill-rule="evenodd" clip-rule="evenodd" d="M67.3623 65.0688C70.1172 63.2868 71.5354 60.5319 70.4413 58.8711C69.3878 57.251 66.3097 57.3723 63.5148 59.1544C60.7607 60.9365 59.3426 63.7313 60.396 65.3522C61.4487 67.0129 64.5675 66.8916 67.3623 65.0688Z" fill="#A08591"/>
<path fill-rule="evenodd" clip-rule="evenodd" d="M66.9977 64.5421C69.2666 63.084 70.4405 60.8152 69.5499 59.4377C68.6991 58.1009 66.1469 58.2223 63.8781 59.6811C61.5693 61.1392 60.4352 63.4487 61.2859 64.7847C62.1774 66.1215 64.7296 66.0409 66.9977 64.5421Z" fill="white"/>
<path fill-rule="evenodd" clip-rule="evenodd" d="M70.1579 75.9249C71.5354 81.5553 80.0818 78.5984 83.6061 76.4516C87.1303 74.2641 87.8198 68.9578 86.6443 67.0943C83.9708 62.8407 79.6772 68.0664 77.2463 69.6058C74.8162 71.1852 69.1452 71.874 70.1579 75.9249Z" fill="#795F50"/>
<path fill-rule="evenodd" clip-rule="evenodd" d="M117.875 134.175V129.639H116.782V127.45H120.914V129.639H119.821V134.175H117.875ZM126.544 134.175L126.302 131.502C126.261 131.299 126.261 131.097 126.261 130.894C126.22 130.691 126.22 130.489 126.22 130.287L126.099 130.894C126.058 131.097 126.018 131.34 125.978 131.583L125.33 134.175H124.154L123.547 131.583C123.466 131.34 123.426 131.097 123.385 130.894C123.338 130.695 123.311 130.491 123.304 130.287C123.304 130.489 123.264 130.691 123.264 130.894C123.264 131.097 123.223 131.299 123.223 131.502L122.98 134.175H121.076L121.968 127.45H123.993L124.398 129.111C124.398 129.152 124.438 129.232 124.438 129.354C124.6 130.042 124.722 130.61 124.762 131.056H124.803C124.803 130.772 124.844 130.489 124.924 130.165C124.967 129.841 125.047 129.476 125.167 129.07L125.573 127.45H127.598L128.449 134.175H126.544Z" fill="black"/>
<path fill-rule="evenodd" clip-rule="evenodd" d="M96.6496 66.3649L93.7734 66.3242C93.7327 66.3242 93.4901 72.4007 90.8565 75.6009C88.1845 78.8011 82.8367 83.5001 74.2488 83.4594C70.3199 83.4187 67.2003 82.568 64.7302 81.4739C68.2545 83.7428 72.5888 84.9574 76.8417 84.9574C86.4831 84.9574 97.1763 77.3016 97.0143 68.957C96.9752 68.0834 96.8531 67.2154 96.6496 66.3649Z" fill="#BBBCBF"/>
</svg>
