<svg width="28" height="25" viewBox="0 0 28 25" fill="none" xmlns="http://www.w3.org/2000/svg">
<path d="M25.6953 8.26359C25.4401 7.97441 25.1263 7.74284 24.7748 7.58424C24.4232 7.42565 24.0419 7.34367 23.6562 7.34375H17.3125V5.53125C17.3125 4.32949 16.8351 3.17695 15.9853 2.32717C15.1356 1.4774 13.983 1 12.7812 1C12.6129 0.99988 12.4478 1.04666 12.3046 1.1351C12.1613 1.22354 12.0455 1.35014 11.9702 1.5007L7.69039 10.0625H2.8125C2.3318 10.0625 1.87078 10.2535 1.53087 10.5934C1.19096 10.9333 1 11.3943 1 11.875V21.8438C1 22.3245 1.19096 22.7855 1.53087 23.1254C1.87078 23.4653 2.3318 23.6562 2.8125 23.6562H22.2969C22.9592 23.6565 23.5989 23.4149 24.0957 22.9769C24.5926 22.5388 24.9124 21.9345 24.9952 21.2773L26.3546 10.4023C26.4028 10.0195 26.3689 9.63074 26.2552 9.26198C26.1416 8.89322 25.9507 8.55288 25.6953 8.26359ZM2.8125 11.875H7.34375V21.8438H2.8125V11.875Z" fill="#43BFEC"/>
<rect x="1" y="11" width="6" height="12" fill="white"/>
<path d="M26.8113 7.93C26.5532 7.63773 26.236 7.40366 25.8806 7.24333C25.5253 7.08299 25.1399 7.00005 24.75 7H17.5V4.75C17.5 3.49022 16.9996 2.28204 16.1088 1.39124C15.218 0.500445 14.0098 3.36567e-08 12.75 3.36567e-08C12.6106 -4.1721e-05 12.4739 0.038768 12.3554 0.112073C12.2368 0.185379 12.141 0.290279 12.0787 0.415L7.28625 10H1.75C1.28587 10 0.840752 10.1844 0.512563 10.5126C0.184375 10.8408 0 11.2859 0 11.75V22.75C0 23.2141 0.184375 23.6592 0.512563 23.9874C0.840752 24.3156 1.28587 24.5 1.75 24.5H23.25C23.9202 24.5 24.5674 24.2552 25.0699 23.8117C25.5724 23.3681 25.8956 22.7563 25.9788 22.0912L27.4788 10.0913C27.5271 9.70427 27.4926 9.31144 27.3775 8.93882C27.2624 8.5662 27.0694 8.22232 26.8113 7.93ZM1.5 22.75V11.75C1.5 11.6837 1.52634 11.6201 1.57322 11.5732C1.62011 11.5263 1.6837 11.5 1.75 11.5H7V23H1.75C1.6837 23 1.62011 22.9737 1.57322 22.9268C1.52634 22.8799 1.5 22.8163 1.5 22.75ZM25.99 9.905L24.49 21.905C24.4522 22.2073 24.3054 22.4853 24.077 22.687C23.8487 22.8886 23.5546 22.9999 23.25 23H8.5V10.9275L13.1975 1.53125C13.9744 1.63925 14.686 2.02459 15.2011 2.61616C15.7162 3.20773 15.9999 3.96562 16 4.75V7.75C16 7.94891 16.079 8.13968 16.2197 8.28033C16.3603 8.42098 16.5511 8.5 16.75 8.5H24.75C24.9272 8.50005 25.1024 8.53778 25.2639 8.61068C25.4254 8.68359 25.5696 8.79 25.6868 8.92286C25.8041 9.05573 25.8918 9.212 25.944 9.38133C25.9963 9.55066 26.012 9.72916 25.99 9.905Z" fill="black"/>
<path d="M26.8113 7.93C26.5532 7.63773 26.236 7.40366 25.8806 7.24333C25.5253 7.08299 25.1399 7.00005 24.75 7H17.5V4.75C17.5 3.49022 16.9996 2.28204 16.1088 1.39124C15.218 0.500445 14.0098 3.36567e-08 12.75 3.36567e-08C12.6106 -4.1721e-05 12.4739 0.038768 12.3554 0.112073C12.2368 0.185379 12.141 0.290279 12.0787 0.415L7.28625 10H1.75C1.28587 10 0.840752 10.1844 0.512563 10.5126C0.184375 10.8408 0 11.2859 0 11.75V22.75C0 23.2141 0.184375 23.6592 0.512563 23.9874C0.840752 24.3156 1.28587 24.5 1.75 24.5H23.25C23.9202 24.5 24.5674 24.2552 25.0699 23.8117C25.5724 23.3681 25.8956 22.7563 25.9788 22.0912L27.4788 10.0913C27.5271 9.70427 27.4926 9.31144 27.3775 8.93882C27.2624 8.5662 27.0694 8.22232 26.8113 7.93ZM1.5 22.75V11.75C1.5 11.6837 1.52634 11.6201 1.57322 11.5732C1.62011 11.5263 1.6837 11.5 1.75 11.5H7V23H1.75C1.6837 23 1.62011 22.9737 1.57322 22.9268C1.52634 22.8799 1.5 22.8163 1.5 22.75ZM25.99 9.905L24.49 21.905C24.4522 22.2073 24.3054 22.4853 24.077 22.687C23.8487 22.8886 23.5546 22.9999 23.25 23H8.5V10.9275L13.1975 1.53125C13.9744 1.63925 14.686 2.02459 15.2011 2.61616C15.7162 3.20773 15.9999 3.96562 16 4.75V7.75C16 7.94891 16.079 8.13968 16.2197 8.28033C16.3603 8.42098 16.5511 8.5 16.75 8.5H24.75C24.9272 8.50005 25.1024 8.53778 25.2639 8.61068C25.4254 8.68359 25.5696 8.79 25.6868 8.92286C25.8041 9.05573 25.8918 9.212 25.944 9.38133C25.9963 9.55066 26.012 9.72916 25.99 9.905Z" fill="black"/>
</svg>
