<svg width="28" height="25" viewBox="0 0 28 25" fill="none" xmlns="http://www.w3.org/2000/svg">
<path d="M26.8113 7.93C26.5532 7.63773 26.236 7.40366 25.8806 7.24333C25.5253 7.08299 25.1399 7.00005 24.75 7H17.5V4.75C17.5 3.49022 16.9996 2.28204 16.1088 1.39124C15.218 0.500445 14.0098 3.36567e-08 12.75 3.36567e-08C12.6106 -4.1721e-05 12.4739 0.038768 12.3554 0.112073C12.2368 0.185379 12.141 0.290279 12.0787 0.415L7.28625 10H1.75C1.28587 10 0.840752 10.1844 0.512563 10.5126C0.184375 10.8408 0 11.2859 0 11.75V22.75C0 23.2141 0.184375 23.6592 0.512563 23.9874C0.840752 24.3156 1.28587 24.5 1.75 24.5H23.25C23.9202 24.5 24.5674 24.2552 25.0699 23.8117C25.5724 23.3681 25.8956 22.7563 25.9788 22.0912L27.4788 10.0913C27.5271 9.70427 27.4926 9.31144 27.3775 8.93882C27.2624 8.5662 27.0694 8.22232 26.8113 7.93ZM1.5 22.75V11.75C1.5 11.6837 1.52634 11.6201 1.57322 11.5732C1.62011 11.5263 1.6837 11.5 1.75 11.5H7V23H1.75C1.6837 23 1.62011 22.9737 1.57322 22.9268C1.52634 22.8799 1.5 22.8163 1.5 22.75ZM25.99 9.905L24.49 21.905C24.4522 22.2073 24.3054 22.4853 24.077 22.687C23.8487 22.8886 23.5546 22.9999 23.25 23H8.5V10.9275L13.1975 1.53125C13.9744 1.63925 14.686 2.02459 15.2011 2.61616C15.7162 3.20773 15.9999 3.96562 16 4.75V7.75C16 7.94891 16.079 8.13968 16.2197 8.28033C16.3603 8.42098 16.5511 8.5 16.75 8.5H24.75C24.9272 8.50005 25.1024 8.53778 25.2639 8.61068C25.4254 8.68359 25.5696 8.79 25.6868 8.92286C25.8041 9.05573 25.8918 9.212 25.944 9.38133C25.9963 9.55066 26.012 9.72916 25.99 9.905Z" fill="black"/>
<path d="M26.8113 7.93C26.5532 7.63773 26.236 7.40366 25.8806 7.24333C25.5253 7.08299 25.1399 7.00005 24.75 7H17.5V4.75C17.5 3.49022 16.9996 2.28204 16.1088 1.39124C15.218 0.500445 14.0098 3.36567e-08 12.75 3.36567e-08C12.6106 -4.1721e-05 12.4739 0.038768 12.3554 0.112073C12.2368 0.185379 12.141 0.290279 12.0787 0.415L7.28625 10H1.75C1.28587 10 0.840752 10.1844 0.512563 10.5126C0.184375 10.8408 0 11.2859 0 11.75V22.75C0 23.2141 0.184375 23.6592 0.512563 23.9874C0.840752 24.3156 1.28587 24.5 1.75 24.5H23.25C23.9202 24.5 24.5674 24.2552 25.0699 23.8117C25.5724 23.3681 25.8956 22.7563 25.9788 22.0912L27.4788 10.0913C27.5271 9.70427 27.4926 9.31144 27.3775 8.93882C27.2624 8.5662 27.0694 8.22232 26.8113 7.93ZM1.5 22.75V11.75C1.5 11.6837 1.52634 11.6201 1.57322 11.5732C1.62011 11.5263 1.6837 11.5 1.75 11.5H7V23H1.75C1.6837 23 1.62011 22.9737 1.57322 22.9268C1.52634 22.8799 1.5 22.8163 1.5 22.75ZM25.99 9.905L24.49 21.905C24.4522 22.2073 24.3054 22.4853 24.077 22.687C23.8487 22.8886 23.5546 22.9999 23.25 23H8.5V10.9275L13.1975 1.53125C13.9744 1.63925 14.686 2.02459 15.2011 2.61616C15.7162 3.20773 15.9999 3.96562 16 4.75V7.75C16 7.94891 16.079 8.13968 16.2197 8.28033C16.3603 8.42098 16.5511 8.5 16.75 8.5H24.75C24.9272 8.50005 25.1024 8.53778 25.2639 8.61068C25.4254 8.68359 25.5696 8.79 25.6868 8.92286C25.8041 9.05573 25.8918 9.212 25.944 9.38133C25.9963 9.55066 26.012 9.72916 25.99 9.905Z" fill="black"/>
</svg>
