<svg width="117" height="117" viewBox="0 0 117 117" fill="none" xmlns="http://www.w3.org/2000/svg">
<path fill-rule="evenodd" clip-rule="evenodd" d="M61.9944 55.4603C53.7794 55.7801 44.9253 54.2335 37.4582 50.4994L39.0048 48.0459C46.2589 51.4596 54.5801 52.6335 61.9944 52.313C61.9944 52.5795 62.313 47.2987 62.7932 44.4186H51.6459C52.6589 32.7906 56.2329 22.4427 61.5671 13.642H28.2302V64.4212H63.2733C62.4733 61.3802 61.9944 55.3534 61.9944 55.4603Z" fill="#D0E9FB"/>
<path fill-rule="evenodd" clip-rule="evenodd" d="M65.3541 52.0994C71.4348 51.5124 76.7684 49.9124 80.0225 47.8323L81.943 50.2857C77.4616 52.9 71.6479 54.6062 65.3541 55.2466C65.5143 58.3938 65.9944 61.3802 66.7944 64.4212H90.7964V13.642H65.2472C59.8068 21.9632 56.713 31.244 55.5397 41.0583H67.0081C66.0472 44.7919 65.4609 48.4727 65.3541 52.0994ZM43.3782 21.3228H46.6322V28.844H43.3782V21.3228Z" fill="#00ACEC"/>
<path fill-rule="evenodd" clip-rule="evenodd" d="M70.4741 21.3228H73.7288V28.844H70.4741V21.3228Z" fill="black"/>
<path fill-rule="evenodd" clip-rule="evenodd" d="M65.3541 52.0994C71.4349 51.5124 76.7685 49.9124 80.0225 47.8323L81.943 50.2857C77.4617 52.9 71.648 54.6062 65.3541 55.2466C65.6206 60.9 67.0082 66.5007 69.7809 71.8883L67.0082 73.3809C61.9411 65.3808 61.0342 54.6062 62.7939 44.4186H51.646C53.033 28.5769 59.1131 15.1352 67.9678 4.68109L70.3672 6.76123C61.7274 16.7892 56.9802 28.4707 55.5398 41.0583H67.0082C66.0473 44.7919 65.461 48.4726 65.3541 52.0994Z" fill="black"/>
<path fill-rule="evenodd" clip-rule="evenodd" d="M61.9944 52.313V55.4602C53.7795 55.7801 44.9254 54.2335 37.4583 50.4993L39.0048 48.0459C46.2583 51.4596 54.5795 52.6329 61.9944 52.313Z" fill="#00ACEC"/>
<path fill-rule="evenodd" clip-rule="evenodd" d="M9.56125 81.489C8.06806 81.5958 7.32147 81.6492 6.36122 81.6492C5.77427 81.6492 5.18731 81.6492 4.49414 81.5958H3.42766C2.89412 81.5958 2.62766 81.8094 2.62766 82.3424C2.62766 82.8225 2.89412 83.089 3.53449 83.1424L4.65438 83.2492C6.46805 83.4094 6.62769 83.5691 6.62769 85.1163C6.62769 85.33 6.57488 85.8629 6.57488 86.4498L5.56122 104.424C5.34756 108.051 5.29475 108.371 4.97426 108.798C4.81402 109.064 4.3345 109.331 3.5873 109.438L2.89412 109.545C1.88046 109.759 1.72021 109.918 1.72021 110.505C1.72021 110.932 1.98668 111.199 2.414 111.199H2.68046L3.32083 111.146C4.12084 111.092 5.34756 111.039 6.25439 111.039C7.16123 111.039 9.02771 111.092 9.56125 111.146L10.3078 111.199L10.5743 111.252C11.001 111.306 11.3743 110.933 11.3743 110.452C11.3743 109.919 11.1078 109.706 10.4675 109.599L9.61405 109.492C7.64075 109.279 7.42709 108.959 7.42709 106.825C7.42709 106.132 7.42709 105.172 7.4805 104.532L8.06685 87.0374L15.6942 110.079C15.9079 110.72 16.0141 110.826 16.2812 110.826C16.6011 110.826 16.6545 110.719 16.9215 110.026L24.762 87.0896L24.8688 104.799V106.506C24.8688 108.798 24.6551 109.225 23.2154 109.439L22.5216 109.546C21.775 109.652 21.5085 109.866 21.5085 110.452C21.5085 110.933 21.775 111.146 22.3085 111.199H22.5222L23.1092 111.092C23.8029 111.039 25.8291 110.932 26.7893 110.932C27.6427 110.932 28.1763 110.932 28.8694 111.039C29.5626 111.092 30.0962 111.092 30.2564 111.092H30.8968C31.4297 111.092 31.6968 110.879 31.6968 110.346C31.6968 109.866 31.4303 109.652 30.5769 109.546L29.8303 109.439C28.7104 109.332 28.3371 108.959 28.1769 108.212C28.07 107.466 28.07 106.559 28.0166 103.359L27.9098 87.8902L27.8564 85.7039C27.8564 83.5697 27.9632 83.4101 29.6694 83.1964L30.6831 83.0896C31.4297 82.9827 31.6434 82.7697 31.6434 82.2362C31.6434 81.756 31.4831 81.5958 30.8434 81.5424H30.6831L30.0427 81.5958C29.2427 81.5958 28.6024 81.6492 27.8558 81.6492C27.0558 81.6492 26.362 81.5958 24.975 81.5424L17.1346 104.318L9.56125 81.489ZM67.8615 88.4231V85.3834H67.2746L66.528 87.943H66.4746L65.6746 85.3834H65.0876V88.4231H65.4609V86.6641V85.9175L66.3143 88.4238H66.6342L67.4876 85.8641V88.4231H67.8615ZM39.1117 108.585C39.9651 108.212 40.872 107.52 41.5123 106.773C41.939 106.133 42.0987 105.706 42.0987 104.906L42.2055 100.106C40.7123 100.852 39.8583 101.332 39.1117 101.865C38.8452 102.025 38.6316 102.238 38.4185 102.398C36.8179 103.732 36.0179 105.226 36.0179 106.613C36.0179 107.998 36.7645 108.905 37.8316 108.905C38.2049 108.905 38.6316 108.798 39.1117 108.585ZM39.1117 100.052C40.0185 99.5182 41.085 98.9847 42.2055 98.5046V94.6636C42.2055 92.0505 41.6186 90.9306 40.1788 90.9306C39.8055 90.9306 39.4322 90.984 39.1123 91.0908C37.6719 91.6244 36.6055 93.1182 36.2316 95.3039L36.0713 96.1039C35.8577 97.0642 35.6446 97.2779 34.898 97.2779H34.1514C33.5645 97.2779 33.2446 96.958 33.2446 96.4244C33.2446 95.5176 34.1514 93.3312 35.1651 92.1045C36.2316 90.8244 37.6185 89.9169 39.1123 89.4902C39.6987 89.33 40.339 89.2238 40.9794 89.2238C42.5794 89.2238 43.3794 89.4374 44.0732 90.0238C45.0863 90.8772 45.3533 91.6778 45.3533 94.2903V94.6102L45.2465 104.318C45.2465 107.466 45.2465 107.466 45.3533 107.892C45.4067 108.318 45.7266 108.745 46.1533 108.798C46.9533 108.905 47.2738 108.585 47.5937 107.998C47.8602 107.306 48.7142 107.306 48.6074 108.052C48.554 108.852 48.3409 109.492 47.6471 110.292C46.7937 111.252 45.6204 111.519 44.4471 111.519C42.8465 111.519 42.0999 110.505 42.0999 108.371C41.2999 109.385 40.2328 110.238 39.1129 110.825C38.0999 111.305 36.9794 111.625 35.9657 111.625C33.8856 111.625 32.4986 110.131 32.4986 107.838C32.4974 105.172 34.844 102.398 39.1117 100.052ZM62.3131 85.7567H63.3268V88.4231H63.7001V85.7567H64.7137V85.3834H62.3131V85.7567ZM63.1665 107.731C62.2063 109.065 60.8205 110.185 58.5795 110.132C54.2062 109.972 52.4459 105.225 52.4459 99.9449C52.4459 94.7704 54.7397 90.9834 57.8329 90.8238C58.8994 90.7704 59.7 91.1437 60.3932 91.8374C61.087 92.4778 61.6199 93.3312 61.887 94.0238C62.4193 95.571 63.9131 96.6915 63.6995 92.0511C63.5926 90.3443 61.5131 89.1169 59.1659 89.1703C53.2453 89.3306 49.1379 93.9704 49.1379 101.224C49.1379 107.573 52.2851 111.786 56.9783 111.786C58.7914 111.786 60.9789 111.679 62.4715 110.506C63.6454 109.652 63.9653 109.226 64.1784 108.318C64.4473 107.146 63.487 107.306 63.1665 107.731Z" fill="black"/>
<path fill-rule="evenodd" clip-rule="evenodd" d="M84.769 80.3685C77.1944 80.5287 71.7546 87.089 71.7546 96.2642C71.7546 105.759 77.0348 112.32 84.5559 112.32H84.7696C88.6106 112.266 91.597 110.719 94.1578 107.413C96.6107 104.318 97.6778 100.904 97.6778 96.2108C97.6778 91.8909 96.7709 88.53 94.9585 85.7567C92.6647 82.289 89.1435 80.3685 84.9833 80.3685H84.769ZM84.769 110.719C81.9963 110.719 80.1286 109.652 78.3149 106.985C76.3944 104.159 75.5422 100.851 75.5422 96.3176C75.5422 87.943 79.2752 82.1293 84.769 81.9691H84.9827C87.4901 81.9691 89.5162 83.0896 91.1697 85.3834C93.0902 87.943 93.997 91.517 93.997 96.2108C93.997 100.532 93.2504 103.838 91.543 106.506C89.7293 109.439 87.7032 110.719 84.769 110.719ZM113.679 82.1827C112.025 81.1157 110.48 80.689 108.346 80.689C103.544 80.689 99.9709 84.2635 99.9709 89.2238C99.9709 92.6381 101.518 94.7176 105.411 96.6915L107.919 97.8654C110.959 99.4126 112.239 101.118 112.239 103.893C112.239 107.68 109.945 110.347 106.798 110.347C105.144 110.347 103.704 109.706 102.798 108.48C101.998 107.467 101.358 105.867 101.091 104.533L100.985 103.519C100.824 102.613 100.665 102.346 100.131 102.346C99.6511 102.346 99.3846 102.772 99.3846 103.626L99.5448 110.239C101.626 111.466 103.705 112.053 106.212 112.053C109.36 112.053 111.706 110.986 113.306 108.799C114.587 107.092 115.28 104.959 115.28 102.665C115.28 98.7188 113.733 96.3182 110.106 94.4511L108.453 93.5977C105.465 92.1051 104.825 91.6784 104.078 90.825C103.332 89.9716 102.959 88.8511 102.959 87.4641C102.959 84.4777 104.878 82.3436 107.439 82.3436C109.946 82.3436 111.866 84.2107 112.293 86.9846L112.4 87.7306C112.453 88.3175 112.666 88.584 113.093 88.584C113.627 88.584 113.734 88.5306 113.84 87.6238V87.5169L113.679 82.1827Z" fill="#00ACEC"/>
</svg>
