<svg width="113" height="113" viewBox="0 0 113 113" fill="none" xmlns="http://www.w3.org/2000/svg">
<path d="M56.9317 8.608L59.0831 12.6487C59.5667 13.3945 60.091 14.0544 60.7057 14.6691C62.5136 16.4544 64.1995 18.3618 65.7498 20.3776C69.3928 25.1596 71.8516 30.4749 73.6053 36.2241C74.6584 39.7315 75.2279 43.3383 75.2731 46.9767C75.4494 57.865 71.716 67.212 64.195 74.9815C62.9747 76.2109 61.6503 77.3454 60.2402 78.3578C59.4944 78.3578 59.1418 77.7884 58.8345 77.2595C58.274 76.2833 57.9034 75.2121 57.7362 74.1002C57.4695 72.7804 57.2978 71.4651 57.3836 70.1092V69.4945C57.3249 69.3544 56.6695 8.91987 56.9317 8.608Z" fill="black"/>
<path d="M56.9316 8.47692C56.8458 8.30064 56.7554 8.43172 56.665 8.52211C56.7102 9.40348 56.3983 10.1899 55.9192 10.9402C55.3904 11.686 54.6898 12.26 53.9847 12.8747C50.0841 16.251 47.0106 20.3369 44.5518 24.9019C41.275 31.0444 39.5891 37.6298 39.1145 44.5677C38.8976 47.0671 39.9055 55.8898 40.6964 58.4345C42.8479 65.1961 46.7078 70.8595 51.7158 75.7725C52.9451 76.9567 54.2604 78.055 55.6164 79.1127C56.0141 79.1127 56.0548 78.7601 56.1452 78.498C56.3215 77.9375 56.4525 77.368 56.5429 76.7895L57.4243 70.2086L56.9316 8.47692Z" fill="#131313"/>
<path d="M59.0831 81.0245C59.1689 80.0166 59.6526 79.185 60.1814 78.3488C59.6526 78.1319 59.2593 77.6934 58.952 77.2098C58.6853 76.7488 58.4684 76.2652 58.2966 75.759C57.6819 73.9194 57.5508 71.9804 57.3746 70.1001V68.9612C57.1576 69.1374 57.1079 70.629 57.1079 70.8504C56.9814 72.8437 56.7147 74.8188 56.3169 76.7759C56.1859 77.5669 56.1 78.3579 55.6118 79.0584C55.6118 79.1443 55.6118 79.2347 55.657 79.3658C56.448 81.6935 56.665 84.0619 56.796 86.48V87.3613C56.796 88.4145 56.7508 88.193 57.6277 88.5455C57.9802 88.6766 58.3735 88.7218 58.726 88.9839C58.9927 88.9839 59.0333 88.767 59.0333 88.5862L58.9023 87.1353V83.0946C58.8616 82.3895 58.9927 81.689 59.0831 81.0245Z" fill="white"/>
<path d="M21.6648 100.634V102.586C21.6648 102.665 21.6648 102.743 21.6787 102.817C21.7018 103.048 21.8449 103.191 22.0525 103.255C22.2464 103.306 22.4448 103.343 22.6433 103.371C22.7587 103.385 22.7956 103.435 22.8094 103.56C22.8233 103.998 22.7864 104.049 22.3617 104.021C21.3741 103.971 20.3818 103.957 19.3941 104.021H19.3018C18.9926 104.035 18.9695 104.008 18.9695 103.698C18.9695 103.648 18.9834 103.583 18.9834 103.532C18.9834 103.44 19.048 103.389 19.1357 103.389C19.3434 103.366 19.5326 103.311 19.7264 103.274C19.9941 103.209 20.151 103.043 20.1741 102.771C20.211 102.475 20.211 102.166 20.211 101.871L20.2249 98.4277C20.2341 98.2246 20.1234 98.0354 19.9433 97.9385C19.7126 97.8092 19.4633 97.7077 19.2095 97.6293C19.131 97.6062 19.0572 97.5923 18.9926 97.5508C18.8033 97.4585 18.7987 97.2923 18.9788 97.1908C19.0434 97.1539 19.1218 97.1262 19.1957 97.1123C19.9746 96.997 20.74 96.8038 21.4802 96.5354C21.6326 96.4847 21.6741 96.4985 21.6879 96.6508C21.7018 96.7431 21.6879 96.8585 21.6741 96.9462C21.651 97.1123 21.651 97.2785 21.651 97.4354C21.651 97.5 21.6648 97.5647 21.7295 97.6016C21.7941 97.6384 21.8587 97.6016 21.9187 97.5646C22.1864 97.3569 22.4587 97.1677 22.7541 97.0015C23.1787 96.7708 23.6263 96.5631 24.1156 96.4985C24.7063 96.42 25.2186 96.577 25.6709 96.96C25.8555 97.1262 26.0217 97.3154 26.1602 97.5231C26.2894 97.7123 26.3032 97.7169 26.4694 97.5877C26.9586 97.2277 27.4709 96.9093 28.0247 96.6739C28.6016 96.4292 29.1924 96.3924 29.7832 96.5954C30.3878 96.8124 30.7985 97.2369 31.0431 97.8139C31.2508 98.2754 31.3385 98.7554 31.3385 99.2539V102.697C31.3385 102.928 31.4308 103.071 31.6616 103.186C31.9062 103.278 32.1739 103.329 32.4323 103.38C32.5985 103.417 32.5985 103.417 32.5985 103.588C32.5754 104.012 32.5338 104.035 32.1231 104.012C31.0932 103.952 30.0607 103.952 29.0309 104.012C28.8232 104.026 28.8232 104.026 28.8139 103.818V103.754C28.8001 103.408 28.8001 103.408 29.137 103.329L29.4693 103.237C29.7001 103.181 29.8662 102.974 29.8662 102.734L29.9032 101.769L29.8801 99.2539C29.8708 99.0277 29.8247 98.8061 29.737 98.5985C29.4139 97.8139 28.7078 97.5323 28.0293 97.6108C27.5171 97.6615 27.0648 97.8693 26.6401 98.1646C26.5478 98.2293 26.4878 98.3077 26.4971 98.4323C26.6125 99.2538 26.534 100.075 26.5478 100.897V102.683C26.5478 103.006 26.6771 103.158 26.9862 103.237L27.577 103.366C27.6693 103.38 27.7201 103.417 27.7201 103.518V103.611C27.7063 103.971 27.6832 103.984 27.3232 103.984C26.294 103.934 25.2694 103.948 24.254 103.984C23.9079 103.998 23.8802 103.961 23.894 103.611C23.9079 103.403 23.9309 103.394 24.1248 103.352L24.5494 103.274C24.9233 103.195 25.0617 103.057 25.0894 102.655L25.1263 101.792L25.1032 99.2123C25.0802 98.8892 25.011 98.5846 24.8355 98.2892C24.5771 97.8138 24.1756 97.5692 23.6263 97.5462C23.0725 97.5093 22.5879 97.7123 22.1217 97.9708C21.7987 98.16 21.6603 98.3815 21.6833 98.7554V100.629L21.6648 100.634ZM45.8628 100.712V102.521C45.8628 102.651 45.8721 102.78 45.8859 102.905C45.8951 103.08 46.0244 103.228 46.1952 103.265C46.4167 103.329 46.6428 103.366 46.8736 103.38C47.0029 103.394 47.0259 103.445 47.0397 103.546V103.638C47.0259 104.086 46.9751 104.141 46.5367 104.114C45.5582 104.049 44.5844 104.063 43.6105 104.114L43.2368 104.128C43.1583 104.128 43.1444 104.091 43.1214 104.035C43.0844 103.857 43.0844 103.673 43.1214 103.495C43.1352 103.417 43.186 103.403 43.2644 103.38C43.4537 103.357 43.6106 103.315 43.7906 103.288C44.1136 103.209 44.229 103.08 44.2383 102.748L44.2752 101.668V98.5062C44.2752 98.2754 44.1829 98.1323 43.9798 98.0308C43.749 97.9015 43.5044 97.8139 43.246 97.7216C43.1675 97.6985 43.0937 97.6708 43.029 97.6293C42.8629 97.5139 42.8398 97.3477 43.006 97.2185C43.0798 97.1585 43.1675 97.1216 43.2644 97.1169C44.0859 96.9877 44.8844 96.8077 45.6551 96.4985C45.7475 96.4616 45.7844 96.4847 45.8213 96.5631C45.8582 96.6416 45.8721 96.7293 45.8582 96.8216L45.8213 97.4262C45.8213 97.5046 45.7844 97.6154 45.8444 97.6431C45.9228 97.6939 45.9736 97.5785 46.0382 97.5508C46.4167 97.2323 46.8357 96.9653 47.2843 96.7569C47.6813 96.5677 48.092 96.4477 48.5536 96.4754C49.4166 96.5262 50.0305 96.9646 50.4274 97.7216C50.6351 98.1185 50.7228 98.5569 50.7597 99.0046L50.7966 99.9461L50.8104 102.785C50.8243 103.001 50.9027 103.145 51.1197 103.223C51.3456 103.297 51.5771 103.352 51.8119 103.389C52.0196 103.412 52.0289 103.454 52.0427 103.648V103.712C52.0197 104.151 51.992 104.16 51.5535 104.137C50.5957 104.086 49.6359 104.086 48.6782 104.137C48.5489 104.151 48.4197 104.137 48.3043 104.151C48.2259 104.151 48.1751 104.137 48.1612 104.058C48.1382 103.892 48.1105 103.726 48.1474 103.546C48.1612 103.468 48.1982 103.431 48.2905 103.417L48.8812 103.325C49.0889 103.274 49.2043 103.135 49.2274 102.951L49.2505 102.591L49.2366 99.9046C49.2366 99.5954 49.2228 99.2861 49.1582 98.9816C49.0059 98.3216 48.5028 97.8554 47.8244 97.7861C47.2336 97.7215 46.6982 97.8785 46.2044 98.1969C45.9598 98.3492 45.8582 98.5708 45.8582 98.8385V100.777C45.8582 100.74 45.8582 100.74 45.8721 100.74L45.8628 100.712Z" fill="black"/>
<path d="M83.4729 97.08C83.3298 96.1431 82.9837 95.3078 82.3791 94.5739C81.8529 93.9278 81.1745 93.4247 80.3991 93.1108C79.5914 92.7786 78.7284 92.6724 77.8561 92.6494C77.4961 92.6355 72.5901 92.714 72.2301 92.6494C72.1377 92.6355 72.0777 92.6632 72.0224 92.7417C71.9577 92.834 71.8931 92.9355 71.8562 93.037C71.7039 93.3832 71.7039 93.3601 72.0731 93.4108C72.3823 93.4616 72.6777 93.4893 72.9731 93.577C73.2408 93.6693 73.4346 93.8216 73.4992 94.117C73.5223 94.2601 73.55 98.7785 73.55 100.883L73.4993 102.388C73.4854 102.503 73.4762 102.618 73.4346 102.72C73.3839 102.872 73.2915 103.001 73.1393 103.066C72.9685 103.145 72.7885 103.195 72.5993 103.209C72.2531 103.246 72.2023 103.26 72.087 103.648L72.05 103.791C72.027 103.957 72.0362 103.984 72.2023 103.984L76.0422 104.021L77.5469 103.998L78.5853 103.869C79.7668 103.652 80.8191 103.163 81.7191 102.378C82.2314 101.926 82.6514 101.377 82.9514 100.758C83.3113 100.038 83.4637 99.2538 83.5052 98.46C83.5744 98.003 83.5514 97.5416 83.4729 97.08ZM81.6129 98.9031C81.5622 99.7246 81.396 100.523 80.9714 101.238C80.4314 102.175 79.6607 102.831 78.5945 103.061C78.133 103.154 77.6715 103.204 77.1868 103.14C76.8407 103.103 76.5084 103.061 76.1853 102.946C75.6084 102.738 75.4007 102.383 75.3915 101.82L75.3777 94.0755C75.3777 93.6139 75.5853 93.5124 75.9176 93.4985C76.4207 93.4616 76.933 93.4755 77.4315 93.5216C77.9668 93.5724 78.4884 93.7016 78.9868 93.8955C79.3561 94.0478 79.6976 94.2601 80.0022 94.5231C80.6945 95.1139 81.156 95.8569 81.4099 96.7293C81.6175 97.4354 81.6545 98.1554 81.6175 98.8754L81.6129 98.9031ZM94.1481 100.163C94.1481 100.085 94.1481 100.02 94.1342 99.9461C94.0188 99.24 93.645 98.7 93.0681 98.2892C92.6943 98.0215 92.2743 97.8415 91.8358 97.7123C91.7573 97.6893 91.6928 97.6615 91.6189 97.6477C91.6327 97.5831 91.6697 97.5692 91.7112 97.5554C91.9696 97.4261 92.2143 97.2877 92.4312 97.0939C92.8281 96.7616 93.0912 96.3508 93.225 95.8478C93.3035 95.5801 93.3035 95.3077 93.2758 95.0262C93.2342 94.357 92.8881 93.7432 92.3389 93.3555C91.7481 92.917 91.0558 92.737 90.3359 92.7278C88.9467 92.7047 87.5482 92.7278 86.1636 92.7278C85.7667 92.7278 85.3698 92.7508 84.9544 92.6909C84.876 92.677 84.7652 92.654 84.7098 92.7417C84.6175 92.9078 84.5021 93.074 84.4652 93.2678C84.4513 93.3601 84.479 93.4109 84.5806 93.4201L85.4667 93.5493C85.8128 93.6001 86.0574 93.7939 86.0852 94.1032C86.1082 94.3155 86.1221 94.5324 86.1221 94.7447L86.099 97.1446L86.0852 101.894C86.0852 102.175 86.0482 102.448 85.9929 102.729C85.9652 102.914 85.8359 103.061 85.6606 103.112C85.4021 103.191 85.1575 103.265 84.8898 103.265C84.7421 103.251 84.6036 103.343 84.5575 103.481C84.5067 103.597 84.4652 103.726 84.4421 103.841C84.4191 103.994 84.4559 104.049 84.6083 104.031C84.7236 104.017 88.9605 104.123 89.759 104.045C90.2343 103.994 90.7004 103.929 91.1712 103.786C91.9789 103.528 92.7266 103.158 93.3173 102.526C93.8065 102.014 94.0881 101.395 94.1112 100.675C94.1481 100.509 94.1481 100.343 94.1481 100.163ZM87.9174 94.897L87.9544 93.8678C87.9544 93.6739 88.0328 93.5862 88.222 93.5447C88.5313 93.4801 88.8405 93.5078 89.1451 93.5216C89.4543 93.5447 89.7497 93.5863 90.0589 93.674C90.622 93.8401 91.0604 94.1631 91.3189 94.7031C91.4343 94.9477 91.4989 95.2154 91.4989 95.4878C91.5127 95.8477 91.4851 96.1939 91.3466 96.54C91.1296 97.0154 90.7835 97.3247 90.2805 97.4123C89.7774 97.5046 88.3559 97.4631 88.1343 97.4631C87.9405 97.4631 87.9267 97.4401 87.9267 97.2462V96.037C87.8943 95.6631 87.8943 95.2847 87.9128 94.9062L87.9174 94.897ZM92.0897 101.806C91.8727 102.383 91.4712 102.785 90.9082 103.001C90.5989 103.117 90.2897 103.191 89.9666 103.168C89.5697 103.154 89.1728 103.168 88.7712 103.089C88.2313 102.974 87.9866 102.461 87.9497 102.088C87.8851 101.432 87.9267 100.763 87.9128 100.278V98.5846C87.9128 98.3769 87.9359 98.3169 88.1574 98.3169L89.3666 98.3308L90.1882 98.4231C90.7651 98.5523 91.2912 98.7692 91.702 99.2169C92.0343 99.5769 92.2143 100.011 92.2558 100.486C92.2927 100.934 92.2697 101.372 92.1035 101.797L92.0897 101.806Z" fill="white"/>
<path d="M59.4595 97.9384L59.7918 97.9892C60.1518 98.0031 60.5764 97.8739 60.7056 97.3708C60.7749 97.1311 60.7749 96.8767 60.7056 96.637C60.6272 96.637 60.5902 96.7016 60.5533 96.7293C60.3595 96.8816 60.1426 96.9739 59.9118 96.9969C59.4503 97.0477 58.9887 97.02 58.5364 96.8539L57.9088 96.6369C57.4703 96.4939 57.0088 96.4339 56.5473 96.4569C55.8919 96.5077 55.2781 96.7247 54.6965 97.0339C54.0781 97.3662 53.6442 97.8692 53.4365 98.5477C53.3212 98.9446 53.3073 99.3554 53.3581 99.7661C53.4873 100.703 53.9765 101.358 54.8488 101.705C54.8996 101.718 54.9411 101.741 54.9919 101.755C55.1073 101.82 55.1211 101.885 55.015 101.972L54.6919 102.189L53.9212 102.665C53.7273 102.78 53.7042 102.872 53.7688 103.075C53.8473 103.315 53.9858 103.528 54.1796 103.694C54.355 103.846 54.5534 103.966 54.7703 104.054C54.9134 104.118 54.9134 104.146 54.7842 104.261L54.0504 104.788C53.8058 104.977 53.5612 105.161 53.3581 105.406C53.2153 105.558 53.1123 105.743 53.0583 105.944C53.0043 106.145 53.0011 106.357 53.0488 106.56C53.1458 107.008 53.3765 107.409 53.7181 107.714C54.0514 108.024 54.4578 108.245 54.8996 108.355C55.6196 108.563 56.3626 108.572 57.0965 108.434C58.1488 108.24 59.0718 107.774 59.7918 106.984C60.2949 106.458 60.5856 105.84 60.6133 105.106C60.6733 104.224 60.0826 103.435 59.2241 103.232L58.5318 103.103L56.4134 102.914C56.1827 102.9 55.9519 102.863 55.758 102.748C55.5134 102.595 55.4488 102.3 55.6057 102.106C55.7211 101.963 55.8642 101.875 56.0442 101.861L56.4549 101.825C57.2667 101.742 58.0289 101.395 58.6241 100.837C58.942 100.542 59.1694 100.163 59.2795 99.7431C59.4318 99.1892 59.4318 98.6169 59.3025 98.0538C59.2657 97.9108 59.2795 97.9015 59.4549 97.9246L59.4595 97.9384ZM56.3119 104.335C56.3903 104.349 56.4642 104.335 56.5427 104.335C57.0826 104.358 57.6365 104.4 58.1626 104.543C58.3334 104.594 58.5041 104.658 58.6657 104.737C59.178 105.018 59.3718 105.508 59.3072 106.034C59.2287 106.611 58.9103 107.021 58.4072 107.294C58.0749 107.483 57.7011 107.561 57.3134 107.603C57.1703 107.617 57.0457 107.603 56.9026 107.603C56.4549 107.617 56.0165 107.566 55.5919 107.386C55.2965 107.271 55.0519 107.104 54.835 106.874C54.3873 106.426 54.175 105.604 54.8488 104.935C55.2596 104.552 55.7211 104.285 56.3119 104.335ZM57.7795 100.329C57.5118 101.008 56.9165 101.215 56.3303 101.123C55.7903 101.045 55.3934 100.749 55.135 100.26C54.8027 99.6046 54.7104 98.9262 54.9042 98.22C55.0473 97.6939 55.3657 97.297 55.9334 97.2046C56.6534 97.0754 57.3411 97.3339 57.7057 98.0538C57.8949 98.4 57.9734 98.8246 57.9734 99.4292C57.9595 99.6738 57.9087 100.006 57.7795 100.329ZM41.5983 99.4523C41.4829 98.76 41.2245 98.1277 40.7491 97.6015C40.043 96.8169 39.143 96.4754 38.1276 96.4708C37.2415 96.4569 36.4061 96.7154 35.663 97.177C34.9292 97.6154 34.3939 98.3169 34.1584 99.1431C33.9415 99.8861 33.9507 100.648 34.1216 101.405C34.5692 103.435 36.1384 104.308 38.0122 104.178C38.5661 104.141 39.0922 103.961 39.5907 103.717C40.3337 103.371 40.8737 102.817 41.2475 102.088C41.5429 101.483 41.6721 100.841 41.6583 100.108L41.5983 99.4523ZM39.7753 102.305C39.5861 102.895 39.0691 103.32 38.4507 103.385C37.8876 103.463 37.3569 103.32 36.8861 102.988C36.5446 102.734 36.2677 102.406 36.0784 102.023C35.5523 100.943 35.46 99.8169 35.7323 98.6585C35.82 98.2985 36.0046 97.9754 36.2723 97.7215C36.7476 97.2831 37.3015 97.1816 37.9153 97.3108C38.506 97.44 38.9537 97.7585 39.323 98.2477C39.6922 98.7369 39.8629 99.3 39.9645 99.8907C40.0153 100.186 40.0153 100.495 40.0291 100.685C40.0291 101.303 39.9783 101.811 39.7845 102.305H39.7753ZM69.6593 99.5584C69.567 98.8154 69.2855 98.1323 68.7593 97.5693C68.067 96.8123 67.167 96.4893 66.1655 96.4754C65.3025 96.4616 64.5087 96.7062 63.7748 97.1308C62.9533 97.62 62.3856 98.3123 62.1687 99.2492C61.9102 100.274 62.0164 101.354 62.4779 102.305C62.9025 103.204 63.6225 103.781 64.5733 104.04C65.6255 104.321 66.6271 104.192 67.6055 103.717C68.4547 103.306 69.0547 102.665 69.4055 101.792C69.6132 101.28 69.687 100.726 69.7008 100.085C69.7101 99.9692 69.6824 99.7615 69.6593 99.5584ZM67.887 102.138C67.6794 102.831 67.2455 103.283 66.5117 103.384C65.9717 103.463 65.4594 103.334 64.9978 103.025C64.601 102.757 64.3194 102.397 64.1117 101.972C63.8809 101.525 63.7517 101.049 63.701 100.56C63.6225 99.9553 63.6225 99.3646 63.7656 98.76C63.7933 98.64 63.8302 98.5246 63.8809 98.4138C64.241 97.5139 65.0348 97.1031 65.9763 97.3108C66.604 97.4538 67.0794 97.8 67.4394 98.3262C67.7855 98.8384 67.9516 99.4061 68.0301 100.015C68.067 100.26 68.0809 100.518 68.067 100.735C68.067 101.238 68.0301 101.7 67.8778 102.148L67.887 102.138Z" fill="black"/>
</svg>
