<svg width="143" height="82" viewBox="0 0 143 82" fill="none" xmlns="http://www.w3.org/2000/svg">
<g clip-path="url(#clip0_25_67)">
<path d="M58.3178 54.1772C56.0715 64.4684 53.1098 71.9555 49.4328 76.6069C46.5674 80.2023 43.4288 82 40.0112 82C39.0993 82 37.9771 81.7683 36.6427 81.3081V78.8251C37.2932 78.9078 38.0577 78.9492 38.9362 78.9492C40.53 78.9492 41.8153 78.5784 42.794 77.8352C43.9654 76.9297 44.551 75.9134 44.551 74.7861C44.551 74.0164 44.0931 72.4355 43.1832 70.0452L37.1301 54.1706H42.5484L46.8917 66.0443C47.8684 68.7392 48.2752 70.6213 48.1121 71.6939C50.4901 66.334 52.1488 60.494 53.0921 54.1806H58.3159M34.3983 74.7066H28.8837C28.6892 66.8438 28.1527 59.4528 27.2722 52.5252H27.227L18.8293 74.7066H14.6276L6.28098 52.5252H6.23185C5.61279 59.1763 5.22366 66.5674 5.06054 74.7066H0.0313721C0.355644 64.8111 1.17124 55.5379 2.47029 46.8806H9.30556L17.263 67.3239H17.3121L25.3187 46.8806H31.8592C33.2899 57.0211 34.137 66.2976 34.3944 74.7066" fill="black"/>
<path d="M131.741 74.7033H116.072V46.8772H121.345V71.2768H131.741V74.7M92.337 69.1331C91.0006 67.3189 90.3343 64.4088 90.3343 60.3946C90.3343 53.3876 92.8578 49.8816 97.9007 49.8816C100.538 49.8816 102.474 50.7209 103.71 52.3961C105.043 54.2103 105.711 57.0972 105.711 61.0551C105.711 68.1184 103.187 71.6525 98.1444 71.6525C95.5089 71.6525 93.5712 70.8149 92.337 69.1364M111.96 75.3737L105.903 72.851C106.442 72.4769 106.955 72.073 107.417 71.6095C109.991 69.0553 111.276 65.2762 111.276 60.2721C111.276 51.0652 106.996 46.4601 98.4372 46.4601C94.2394 46.4601 90.9672 47.6271 88.6245 49.9661C86.05 52.5219 84.7667 56.2894 84.7667 61.262C84.7667 66.1535 85.9065 69.7423 88.1823 72.0217C90.2577 74.0825 93.3962 75.1138 97.6 75.1138C99.1683 75.1138 100.607 74.9516 101.914 74.6255L109.8 78.5023L111.951 75.3737M82.4712 66.9895C82.4712 69.35 81.4453 71.2867 79.3975 72.803C77.3497 74.311 74.5963 75.0691 71.1512 75.0691C67.9281 75.0691 64.8033 74.1968 61.7767 72.4703L63.1937 70.08C65.7977 71.1791 68.1541 71.727 70.2688 71.727C72.2537 71.727 73.8063 71.3546 74.9304 70.6179C76.0506 69.8747 76.7247 68.8401 76.7247 67.5274C76.7247 65.8754 75.3588 64.4634 72.857 63.2782C70.5385 62.1887 68.2286 61.0862 65.9274 59.9709C63.4256 58.4281 62.1698 56.7744 62.1698 54.0498C62.1698 51.7952 63.1053 49.9727 64.9743 48.5872C66.8472 47.1967 69.2645 46.5015 72.2242 46.5015C75.2842 46.5015 78.065 47.1917 80.5708 48.5673L79.2973 50.956C77.1551 50.1879 75.0405 49.8022 72.9553 49.8022C71.2652 49.8022 69.9602 50.1465 69.0522 50.8351C68.1384 51.5188 67.5743 52.3994 67.5743 53.4721C67.5743 55.1208 68.9697 56.551 71.5423 57.7594C73.8809 58.8304 78.6153 61.1097 78.6153 61.1097C81.1899 62.6492 82.4732 64.2896 82.4732 66.9928M135.495 74.7033H136.369V71.8727H137.511V71.2933H134.308V71.8727H135.495V74.7033ZM142.143 74.7033H142.967V71.2933H141.729L140.72 73.6174L139.622 71.2933H138.429V74.7033H139.209V72.1077H139.252L140.402 74.7033H140.995L142.143 72.1077V74.7033Z" fill="white"/>
<path d="M87.9151 0.0165558C86.5217 2.5515e-06 85.3071 0.441975 84.6802 1.74141C83.6052 3.9281 86.2721 6.07837 87.1899 7.18909C87.8659 7.96213 88.7424 8.8378 89.218 9.71016C89.4971 10.2812 89.5777 10.8888 89.8568 11.4929C90.4935 12.9728 91.089 14.6199 91.9262 16.0004C92.3625 16.7072 92.8401 17.4472 93.3982 18.0828C93.7186 18.4553 94.2747 18.6208 94.3946 19.2283C93.8384 19.8987 93.7952 20.9085 93.4788 21.751C92.0441 25.55 92.6023 30.2578 94.6324 33.0486C95.2692 33.8879 96.7824 35.7385 98.8145 35.0317C100.607 34.4275 100.21 32.5107 100.725 30.8305C100.845 30.4233 100.764 30.1568 101.004 29.887V29.9565C101.56 30.8967 102.12 31.8022 102.637 32.7474C103.873 34.3928 106.021 36.1077 107.814 37.2499C108.767 37.8574 109.523 38.8986 110.718 39.2694V39.1667H110.64C110.4 38.8655 110.042 38.7297 109.724 38.4963C109.007 37.8905 108.213 37.1505 107.654 36.4768C105.984 34.5964 104.508 32.5107 103.197 30.3587C102.558 29.3142 102.002 28.172 101.483 27.1308C101.246 26.7286 101.246 26.1211 100.847 25.9208C100.247 26.6591 99.3727 27.2997 98.9364 28.2035C98.1798 29.6519 98.1011 31.433 97.8201 33.282C97.6629 33.3168 97.7415 33.282 97.6629 33.3482C96.3894 33.0801 95.9511 31.971 95.4716 31.0308C94.2767 28.6422 94.0762 24.8068 95.1139 22.0523C95.389 21.3471 96.5879 19.129 96.1083 18.4553C95.8686 17.813 95.0726 17.4455 94.6344 16.9406C94.0796 16.2621 93.6006 15.5417 93.2036 14.7887C92.2485 12.9066 91.769 10.8209 90.7352 8.93878C90.2577 8.06145 89.4185 7.15599 88.7444 6.34984C87.9858 5.44107 87.1525 4.80211 86.5531 3.7278C86.3566 3.35701 86.0775 2.75116 86.3959 2.34891C86.4725 2.07909 86.6337 1.97812 86.954 1.91025C87.467 1.54111 88.9429 2.00957 89.4598 2.21152C90.9337 2.71474 92.1679 3.18817 93.4002 3.89168C93.9564 4.22937 94.5538 4.86832 95.2711 5.03717H96.1083C97.3819 5.27222 98.8165 5.10338 100.011 5.40631C102.12 5.97739 104.03 6.8183 105.744 7.72542C111.018 10.5659 115.304 14.5341 118.163 19.225C118.642 19.998 118.843 20.7048 119.279 21.5093C120.116 23.1614 121.152 24.8415 121.987 26.4538C122.822 28.0346 123.62 29.6486 124.817 30.9596C125.411 31.6648 127.801 32.0356 128.876 32.4047C129.672 32.706 130.906 32.9758 131.623 33.3449C132.979 34.0501 134.327 34.8579 135.603 35.6326C136.239 36.0365 138.228 36.8758 138.348 37.5495C135.164 37.4833 132.696 37.7514 130.625 38.493C130.029 38.6933 129.074 38.6933 128.993 39.3323C129.314 39.6004 129.351 40.0374 129.632 40.4082C130.11 41.0819 130.943 41.9874 131.702 42.4608C132.539 42.9988 133.374 43.5351 134.251 44.0053C135.803 44.8164 137.554 45.2848 139.066 46.091C139.944 46.5611 140.819 47.1669 141.695 47.6718C142.131 47.94 142.409 48.3786 142.969 48.5442V48.4415C142.688 48.1403 142.609 47.7033 142.332 47.3656C141.935 47.0312 141.536 46.7283 141.137 46.3922C139.971 45.0901 138.575 43.9458 136.998 42.9988C135.723 42.2556 132.934 41.2458 132.419 40.006L132.338 39.9381C133.213 39.8702 134.251 39.6004 135.088 39.3968C136.438 39.0939 137.674 39.1618 139.068 38.8605C139.704 38.7248 140.341 38.5559 140.982 38.392V38.0858C140.26 37.4833 139.746 36.6738 138.991 36.1027C136.963 34.6245 134.73 33.1794 132.421 31.966C131.183 31.294 129.591 30.8586 128.278 30.2859C127.803 30.0839 127.007 29.9846 126.726 29.6469C126.01 28.907 125.609 27.9337 125.094 27.058C123.917 25.1435 122.828 23.1916 121.83 21.2064C121.113 19.8954 120.674 18.586 119.8 17.3743C115.696 11.6568 111.239 8.19553 104.392 4.7988C102.918 4.09197 101.167 3.78905 99.298 3.41991C98.2996 3.38515 97.3072 3.32059 96.3108 3.28748C95.672 3.04912 95.0333 2.41016 94.4772 2.10724C93.0582 1.35075 90.24 0.0430405 87.919 0.0132446L87.9151 0.0165558ZM97.7376 8.32796C97.0615 8.32796 96.5859 8.39748 96.1064 8.4968V8.56302H96.183C96.5034 9.101 97.0615 9.47345 97.4565 9.94356C97.7769 10.4815 98.0559 11.0179 98.3743 11.5558L98.4529 11.4896C99.013 11.1536 99.2921 10.6156 99.2921 9.80782C99.0504 9.57111 99.013 9.33771 98.8126 9.101C98.5748 8.76662 98.0559 8.59778 97.7376 8.32796Z" fill="black"/>
</g>
<defs>
<clipPath id="clip0_25_67">
<rect width="143" height="82" fill="white"/>
</clipPath>
</defs>
</svg>
