<svg width="26" height="26" viewBox="0 0 26 26" fill="none" xmlns="http://www.w3.org/2000/svg">
<circle cx="13" cy="13" r="12.5" stroke="black"/>
<path d="M19.8333 14.0834C19.8333 14.8959 19.6129 15.6089 19.2827 16.1041C18.9502 16.6029 18.5458 16.8334 18.1667 16.8334C17.7875 16.8334 17.3831 16.6029 17.0506 16.1041C16.7205 15.6089 16.5 14.8959 16.5 14.0834C16.5 13.2709 16.7205 12.5579 17.0506 12.0626C17.3831 11.5639 17.7875 11.3334 18.1667 11.3334C18.5458 11.3334 18.9502 11.5639 19.2827 12.0626C19.6129 12.5579 19.8333 13.2709 19.8333 14.0834Z" stroke="black"/>
<path d="M9.83333 14.0834C9.83333 14.8959 9.61287 15.6089 9.28271 16.1041C8.95021 16.6029 8.54578 16.8334 8.16667 16.8334C7.78755 16.8334 7.38312 16.6029 7.05063 16.1041C6.72046 15.6089 6.5 14.8959 6.5 14.0834C6.5 13.2709 6.72046 12.5579 7.05063 12.0626C7.38312 11.5639 7.78755 11.3334 8.16667 11.3334C8.54578 11.3334 8.95021 11.5639 9.28271 12.0626C9.61287 12.5579 9.83333 13.2709 9.83333 14.0834Z" stroke="black"/>
<path d="M9.75 20.5834C10.4722 19.1389 11.7743 17.3334 13 17.3334C14.0833 17.3334 15.1667 18.4167 16.25 20.5834" stroke="black"/>
<path d="M14 13.1666C14.963 12.2037 16.6991 11 18.3333 11C19.7778 11 21.2222 11.7222 22.6667 13.1667" stroke="black"/>
<path d="M3 13.1666C3.96296 12.2037 5.69913 11 7.33333 11C8.77778 11 10.2222 11.7222 11.6667 13.1667" stroke="black"/>
</svg>
