<svg width="240" height="123" viewBox="0 0 240 123" fill="none" xmlns="http://www.w3.org/2000/svg">
<path d="M14.952 100.59H3.348V88.92H15.582C20.06 88.92 22.299 90.8949 22.299 94.8459C22.299 98.6759 19.849 100.592 14.952 100.592M23.292 88.7839C21.692 87.3599 19.477 86.6479 16.618 86.6479L0 86.74V114.66H3.348L3.318 102.774H15.684C18.784 102.774 21.226 102.062 23.007 100.638C24.788 99.2139 25.679 97.2379 25.679 94.7109C25.679 92.1839 24.884 90.2089 23.294 88.7839H23.292ZM44.964 108.797C44.6438 109.71 44.0971 110.527 43.375 111.172C41.875 112.636 39.587 113.367 36.509 113.367C33.729 113.367 31.597 112.667 30.109 111.233C28.621 109.799 27.876 107.906 27.876 105.52C27.876 104.278 28.071 103.175 28.46 102.213C28.849 101.251 29.414 100.439 30.154 99.7769C31.694 98.3739 33.812 97.6719 36.51 97.6719C42.486 97.6719 45.475 100.288 45.475 105.52C45.475 106.763 45.305 107.855 44.975 108.797M45.582 98.497C43.542 96.637 40.522 95.6969 36.52 95.6969C32.74 95.6969 29.818 96.6469 27.758 98.5469C25.898 100.267 24.958 102.587 24.958 105.509C24.958 108.409 25.918 110.749 27.838 112.529C28.898 113.489 30.133 114.185 31.544 114.615C32.955 115.045 34.61 115.26 36.51 115.26C40.49 115.26 43.51 114.34 45.602 112.5C47.462 110.82 48.402 108.5 48.402 105.508C48.402 102.508 47.462 100.168 45.582 98.486V98.497ZM70.9 109.604C70.9 113.362 67.533 115.241 60.8 115.241C58.742 115.241 57.008 115.111 55.6 114.849C54.192 114.587 53.047 114.154 52.168 113.551C51.4896 113.092 50.9337 112.474 50.549 111.751C50.149 111.011 49.889 110.081 49.769 108.951L52.902 108.921C52.902 110.401 53.45 111.489 54.547 112.189C55.724 113.029 57.807 113.449 60.8 113.449C65.506 113.449 67.86 112.269 67.86 109.911C67.86 108.531 67.06 107.583 65.492 107.061C65.172 106.961 63.269 106.696 59.792 106.267C56.315 105.838 54.132 105.452 53.274 105.112C51.416 104.372 50.487 103.042 50.487 101.124C50.487 99.2439 51.317 97.8439 52.987 96.9259C53.807 96.5459 54.832 96.2519 56.063 96.0409C57.294 95.8299 58.719 95.726 60.339 95.726C66.821 95.726 70.062 97.76 70.062 101.826H67.082C67.082 98.966 64.802 97.5259 60.247 97.5259C57.929 97.5259 56.2 97.826 55.061 98.396C53.922 98.966 53.353 99.866 53.353 101.066C53.353 102.186 54.123 102.996 55.661 103.496C56.561 103.756 58.629 104.056 61.867 104.396C64.765 104.656 66.754 105.026 67.833 105.496C69.893 106.296 70.921 107.656 70.921 109.573L70.9 109.604ZM83.206 114.697L81.931 114.877L81.136 114.937C79.096 114.937 77.636 114.642 76.723 114.05C75.81 113.458 75.37 112.423 75.37 110.95V98.195H71.664V96.3209H75.351L75.381 90.3009H78.237V96.3209H83.211V98.2249L78.237 98.195V110.592C78.237 111.515 78.482 112.152 78.972 112.492C79.462 112.832 80.336 113.018 81.596 113.018C81.776 113.038 81.976 113.032 82.196 112.998C82.5294 112.939 82.8598 112.863 83.186 112.772L83.216 114.672L83.206 114.697ZM102.961 110.467C102.181 111.107 101.293 111.595 100.294 111.937C99.295 112.279 98.146 112.437 96.848 112.437C90.874 112.437 87.888 109.97 87.888 105.037C87.888 102.74 88.652 100.942 90.181 99.643C91.71 98.344 93.861 97.695 96.639 97.695C99.436 97.695 101.559 98.3499 103.007 99.6579C104.455 100.966 105.18 102.72 105.18 104.918C105.18 107.315 104.44 109.163 102.962 110.461M108.037 96.326H105.181L105.151 99.476C103.891 98.196 102.991 97.389 102.451 97.049C100.851 96.169 98.783 95.7309 96.244 95.7309C92.526 95.7309 89.686 96.5809 87.728 98.2789C85.868 99.8389 84.94 102.096 84.94 105.053C84.94 106.513 85.175 107.815 85.645 108.953C86.115 110.091 86.801 111.076 87.702 111.875C89.664 113.513 92.437 114.333 96.022 114.333C100.326 114.333 103.379 113.156 105.182 110.801V114.061C105.182 116.141 104.527 117.749 103.218 118.889C101.909 120.029 99.755 120.589 96.756 120.589C93.936 120.589 91.928 120.189 90.729 119.425C89.829 118.828 89.209 117.793 88.869 116.32H85.929C86.249 118.377 87.129 119.865 88.529 120.783C90.169 121.841 92.929 122.37 96.829 122.37C104.289 122.37 108.029 119.597 108.029 114.05V96.334L108.037 96.326ZM123.487 98.1789C122.627 98.0389 121.829 97.979 121.091 97.979C116.396 97.979 114.049 100.554 114.049 105.702V114.656H111.223L111.193 96.334L114.05 96.3619V99.632H114.2C114.68 98.344 115.44 97.367 116.478 96.702C117.616 96.058 119.314 95.736 121.572 95.736H123.489V98.1959L123.487 98.1789ZM126.144 104.337C126.504 102.255 127.314 100.643 128.571 99.5009C129.391 98.8409 130.321 98.344 131.359 98.014C132.397 97.684 133.559 97.518 134.867 97.518C137.405 97.518 139.467 98.2139 141.087 99.6059C142.707 100.998 143.499 102.576 143.499 104.336L126.144 104.337ZM143.777 98.684C142.777 97.681 141.537 96.94 140.057 96.458C138.577 95.976 136.857 95.736 134.857 95.736C131.157 95.736 128.287 96.596 126.245 98.316C124.203 100.036 123.185 102.376 123.185 105.338C123.185 108.3 124.165 110.638 126.125 112.388C128.245 114.308 131.225 115.268 135.093 115.268C136.633 115.268 138.056 115.093 139.366 114.745C140.676 114.397 141.821 113.903 142.8 113.265C144.52 112.03 145.608 110.505 146.07 108.695H142.982C141.922 111.828 139.285 113.395 135.068 113.395C132.09 113.395 129.801 112.629 128.203 111.097C126.823 109.784 126.135 108.083 126.135 105.993H146.498C146.498 102.885 145.598 100.448 143.768 98.6929L143.777 98.684Z" fill="white"/>
<path d="M176.684 107.173C176.684 112.613 172.297 115.333 163.522 115.333C158.265 115.333 154.427 114.396 152.009 112.533C150.029 110.993 149.041 108.645 149.041 105.485H152.573C152.573 110.563 156.223 113.102 163.521 113.102C167.021 113.102 169.551 112.582 171.121 111.544C172.441 110.626 173.101 109.187 173.101 107.23C173.101 105.292 172.201 103.934 170.401 103.154C169.381 102.734 166.901 102.204 162.931 101.566C157.951 100.806 154.723 100.048 153.243 99.289C151.103 98.169 150.043 96.272 150.043 93.595C150.043 91.098 150.943 89.24 152.773 88.021C154.733 86.683 158.093 86.013 162.851 86.013C171.451 86.013 175.751 88.869 175.751 94.581H172.188C172.188 90.301 168.995 88.163 162.61 88.163C159.407 88.163 157.065 88.593 155.584 89.463C154.182 90.383 153.484 91.733 153.484 93.513C153.484 95.373 154.384 96.683 156.184 97.443C157.144 97.883 159.964 98.493 164.644 99.273C169.044 99.933 172.014 100.703 173.544 101.573C175.644 102.653 176.694 104.523 176.694 107.173H176.684ZM205.384 109.949C204.064 111.006 202.572 111.799 200.911 112.329C199.25 112.859 197.388 113.122 195.327 113.122C191.123 113.122 187.727 111.989 185.133 109.724C182.539 107.459 181.246 104.44 181.246 100.667C181.246 96.735 182.531 93.671 185.103 91.475C187.675 89.279 191.083 88.182 195.326 88.182C199.629 88.182 203.012 89.33 205.474 91.625C206.774 92.745 207.734 94.051 208.356 95.548C208.978 97.045 209.286 98.752 209.286 100.668C209.286 104.58 207.984 107.674 205.382 109.948M207.26 111.8C209.1 110.502 210.462 108.93 211.343 107.082C212.224 105.234 212.665 103.102 212.665 100.684C212.665 96.349 211.225 92.884 208.345 90.256C206.805 88.818 204.945 87.749 202.765 87.05C200.585 86.351 198.095 86 195.295 86C189.855 86 185.595 87.32 182.495 89.955C179.395 92.59 177.845 96.167 177.845 100.682C177.845 105.076 179.409 108.622 182.538 111.318C185.667 114.014 189.941 115.363 195.358 115.363C197.478 115.363 199.326 115.22 200.905 114.933C202.484 114.646 203.825 114.206 204.925 113.613L210.143 117.23L212.323 115.228L207.27 111.801L207.26 111.8ZM239.11 114.657H214.964V86.697L218.282 86.637V112.314H239.13L239.1 114.648L239.11 114.657Z" fill="black"/>
<path d="M134.67 67.3972C135.338 62.4239 135.137 61.6937 139.281 62.4995L140.335 62.5834C143.521 62.7135 147.688 62.126 150.137 61.1082C155.408 58.9217 158.531 55.2704 153.335 56.2294C141.48 58.4159 140.665 54.8234 140.665 54.8234C153.182 38.2144 158.415 17.1294 153.9 11.9673C141.558 -2.10684 120.255 4.54937 119.877 4.72353L119.764 4.74452C117.421 4.31015 114.799 4.05204 111.855 4.01007C106.491 3.93033 102.421 5.26913 99.3323 7.36126C99.3323 7.36126 61.2897 -6.65623 63.0599 24.988C63.4378 31.7198 73.8505 75.9231 86.2682 62.5708C90.8072 57.6878 95.1951 53.5602 95.1951 53.5602C97.4832 54.912 100.103 55.5099 102.716 55.2767L102.927 55.1151C102.861 55.7237 102.887 56.3112 103.012 57.0163C99.8137 60.2122 100.753 60.7725 94.3557 61.9518C87.8853 63.1437 91.6864 65.2673 94.1688 65.8234C97.1782 66.4949 104.14 67.4497 108.844 61.5636L108.657 62.2351C109.91 63.1332 109.827 68.6877 110.006 72.658C110.185 76.6282 110.483 80.3319 111.386 82.5164C112.289 84.7008 113.359 90.3225 121.765 88.7151C128.79 87.3679 134.163 85.4311 134.654 67.4056" fill="white"/>
<path d="M134.67 67.3972C135.338 62.4239 135.137 61.6937 139.281 62.4995L140.335 62.5834C143.521 62.7135 147.688 62.126 150.137 61.1082C155.408 58.9217 158.531 55.2704 153.335 56.2294C141.48 58.4159 140.665 54.8234 140.665 54.8234C153.182 38.2144 158.415 17.1294 153.9 11.9673C141.558 -2.10684 120.255 4.54937 119.877 4.72353L119.764 4.74452C117.421 4.31015 114.799 4.05204 111.855 4.01007C106.491 3.93033 102.421 5.26913 99.3323 7.36126C99.3323 7.36126 61.2897 -6.65623 63.0599 24.988C63.4378 31.7198 73.8505 75.9231 86.2682 62.5708C90.8072 57.6878 95.1951 53.5602 95.1951 53.5602C97.4832 54.912 100.103 55.5099 102.716 55.2767L102.927 55.1151C102.861 55.7237 102.887 56.3112 103.012 57.0163C99.8137 60.2122 100.753 60.7725 94.3557 61.9518C87.8853 63.1437 91.6864 65.2673 94.1688 65.8234C97.1782 66.4949 104.14 67.4497 108.844 61.5636L108.657 62.2351C109.91 63.1332 109.827 68.6877 110.006 72.658C110.185 76.6282 110.483 80.3319 111.386 82.5164C112.289 84.7008 113.359 90.3225 121.765 88.7151C128.79 87.3679 134.163 85.4311 134.654 67.4056" stroke="white" stroke-width="4.108"/>
<path d="M153.347 56.2209C141.491 58.4071 140.675 54.8151 140.675 54.8151C153.194 38.2063 158.427 17.1243 153.912 11.965C141.59 -2.10721 120.265 4.55017 119.887 4.72431L119.772 4.74529C117.429 4.31098 114.807 4.05291 111.861 4.01095C106.496 3.93331 102.426 5.26982 99.3382 7.36166C99.3382 7.36166 61.2895 -6.65386 63.0599 24.986C63.4379 31.7168 73.8497 75.916 86.2707 62.5635C90.8102 57.6812 95.1966 53.5541 95.1966 53.5541C97.4849 54.9057 100.105 55.5035 102.718 55.2704L102.931 55.1089C102.865 55.7173 102.895 56.3048 103.016 57.0098C99.8176 60.2052 100.757 60.7654 94.3631 61.9446C87.89 63.1363 91.6935 65.2596 94.1761 65.8156C97.1858 66.487 104.148 67.4417 108.853 61.5564L108.666 62.2278C109.919 63.1258 110.8 68.0669 110.655 72.5506C110.51 77.0343 110.408 80.1039 111.397 82.5083C112.386 84.9128 113.371 90.3134 121.781 88.7062C128.807 87.3592 132.45 83.8721 132.955 78.0519C133.313 73.9144 134.129 74.5271 134.178 70.8281L134.831 69.0782C135.583 63.4699 134.95 61.6613 139.279 62.5027L140.333 62.5866C143.52 62.7167 147.689 62.1292 150.136 61.1116C155.408 58.9254 158.531 55.2746 153.335 56.2334L153.347 56.2209Z" fill="black"/>
<path d="M109.407 59.6365C109.081 69.9886 109.486 80.4156 110.629 82.9511C111.772 85.4866 114.214 90.4139 122.618 88.8151C129.638 87.4787 132.192 84.8933 133.299 79.1854C134.094 74.9867 135.69 63.3231 135.891 60.9354M99.3337 7.73233C99.3337 7.73233 61.2723 -6.06909 63.0611 25.3369C63.4586 32.0149 73.8416 75.8672 86.2557 62.5987C90.7913 57.7547 94.8916 53.9556 94.8916 53.9556M119.905 5.21352C118.587 5.5799 141.066 -2.08062 153.84 12.4098C158.352 17.5307 153.125 38.4473 140.615 54.9257" stroke="white" stroke-width="1.369" stroke-linecap="round" stroke-linejoin="round"/>
<path d="M140.595 54.9237C140.595 54.9237 141.39 58.4833 153.256 56.3142C158.447 55.3629 155.323 58.985 150.056 61.1562C145.735 62.936 136.048 63.3919 135.891 60.9334C135.483 54.5844 140.989 56.5141 140.591 54.9237C140.233 53.4915 137.769 52.0864 136.139 48.5808C134.718 45.5208 116.641 22.0563 141.152 25.541C142.05 25.3745 134.758 4.84095 111.815 4.50789C88.8733 4.17482 89.6345 29.5503 89.6345 29.5503" stroke="white" stroke-width="1.369" stroke-linecap="round" stroke-linejoin="bevel"/>
<path d="M102.987 57.0948C99.7869 60.2652 100.729 60.821 94.3371 61.9909C87.8696 63.1774 91.6698 65.2799 94.1502 65.8315C97.1574 66.4977 104.114 67.4448 108.814 61.6016C110.245 59.8218 108.806 56.9803 106.841 56.2601C105.891 55.9103 104.621 55.4732 102.985 57.0927L102.987 57.0948Z" stroke="white" stroke-width="1.369" stroke-linejoin="round"/>
<path d="M102.778 57.0407C102.456 55.1755 103.468 52.9606 104.553 50.3627C106.183 46.47 109.943 42.5731 106.938 30.2185C104.696 21.0113 89.6524 28.3034 89.6465 29.5524C89.6405 30.8014 90.3262 35.8806 89.394 41.7925C88.1777 49.5113 94.9254 56.0373 102.695 55.3712" stroke="white" stroke-width="1.369" stroke-linecap="round" stroke-linejoin="round"/>
<path d="M99.1986 29.3608C99.1311 29.7875 100.079 30.922 101.313 31.0761C102.548 31.2301 103.599 30.3392 103.669 29.9145C103.738 29.4899 102.79 29.0194 101.554 28.8654C100.318 28.7113 99.2642 28.9361 99.1986 29.3608Z" fill="white" stroke="white" stroke-width="0.456"/>
<path d="M136.745 28.4927C136.813 28.9194 135.867 30.0539 134.631 30.208C133.394 30.362 132.341 29.4711 132.273 29.0423C132.206 28.6134 133.154 28.1471 134.388 27.9931C135.622 27.8391 136.674 28.0618 136.743 28.4885L136.745 28.4927Z" fill="white" stroke="white" stroke-width="0.228"/>
<path d="M140.97 26C141.199 29.3181 140.055 31.575 139.91 35.1099C139.697 40.243 143.043 46.1153 138 52" stroke="white" stroke-width="1.369" stroke-linecap="round" stroke-linejoin="round"/>
</svg>
