<svg width="68" height="94" viewBox="0 0 68 94" fill="none" xmlns="http://www.w3.org/2000/svg">
<path fill-rule="evenodd" clip-rule="evenodd" d="M49.2329 42.4665L14.1265 63.3125L59.5827 60.228L63.0837 14.3925L49.2329 42.4665Z" fill="url(#paint0_linear_59_2)"/>
<path fill-rule="evenodd" clip-rule="evenodd" d="M55.7503 33.2306L45.1082 47.2831L59.6572 60.1966L55.7503 33.2306Z" fill="url(#paint1_linear_59_2)"/>
<path fill-rule="evenodd" clip-rule="evenodd" d="M31.087 57.9497L14.2786 63.2538L59.71 60.1966L31.087 57.9497Z" fill="url(#paint2_linear_59_2)"/>
<path fill-rule="evenodd" clip-rule="evenodd" d="M21.4695 39.8348L5.73486 43.1992L14.3191 63.2598L21.4695 39.8348Z" fill="url(#paint3_linear_59_2)"/>
<path fill-rule="evenodd" clip-rule="evenodd" d="M38.526 21.5895L19.6973 39.2389L45.1054 47.3607L38.526 21.5895Z" fill="url(#paint4_linear_59_2)"/>
<path fill-rule="evenodd" clip-rule="evenodd" d="M43.7927 7.41589L38.8364 23.4391L61.5911 21.9525L43.7927 7.41589Z" fill="url(#paint5_linear_59_2)"/>
<path fill-rule="evenodd" clip-rule="evenodd" d="M42.7995 8.01797L36.1953 2.15552L53.2675 2.2331L42.7995 8.01797Z" fill="url(#paint6_linear_59_2)"/>
<path fill-rule="evenodd" clip-rule="evenodd" d="M5.97993 43.0593L2.43266 33.5316L1.59473 51.0569L5.97993 43.0593Z" fill="url(#paint7_linear_59_2)"/>
<path fill-rule="evenodd" clip-rule="evenodd" d="M2.19678 33.2306L5.76577 43.3541L21.2738 39.8748L38.9791 23.4202L43.9757 7.54935L36.1081 1.99414L22.7321 7.00004C18.5179 10.9197 10.3403 18.6753 10.0455 18.8212C9.75373 18.9701 4.64542 28.625 2.19678 33.2306Z" fill="url(#paint8_linear_59_2)"/>
<path fill-rule="evenodd" clip-rule="evenodd" d="M14.7285 15.0442C23.862 5.98832 35.6366 0.63794 40.1552 5.19694C44.6711 9.75594 39.8821 20.8353 30.7486 29.8881C21.6151 38.941 9.9864 44.5862 5.47085 40.0272C0.952196 35.4713 5.59499 24.0971 14.7285 15.0442Z" fill="url(#paint9_linear_59_2)"/>
<path fill-rule="evenodd" clip-rule="evenodd" d="M14.3188 63.2505L21.4134 39.751L44.9749 47.3203C36.4559 55.3087 26.981 62.0618 14.3188 63.2505Z" fill="url(#paint10_linear_59_2)"/>
<path fill-rule="evenodd" clip-rule="evenodd" d="M39.0103 23.3739L45.0589 47.3327C52.1752 39.8502 58.5621 31.8061 61.6901 21.8563L39.0103 23.3739Z" fill="url(#paint11_linear_59_2)"/>
<path fill-rule="evenodd" clip-rule="evenodd" d="M61.6282 21.9774C64.0489 14.6718 64.6076 4.19142 53.1927 2.24554L43.8264 7.41903L61.6282 21.9774Z" fill="url(#paint12_linear_59_2)"/>
<path fill-rule="evenodd" clip-rule="evenodd" d="M1.59473 50.9514C1.9299 63.0087 10.6289 63.1884 14.3345 63.2942L5.7751 43.3044L1.59473 50.9514Z" fill="url(#paint13_linear_59_2)"/>
<path fill-rule="evenodd" clip-rule="evenodd" d="M39.0439 23.4112C44.5123 26.7723 55.533 33.5223 55.7564 33.6465C56.1037 33.842 60.5079 26.2198 61.5072 21.9122L39.0439 23.4112Z" fill="url(#paint14_linear_59_2)"/>
<path fill-rule="evenodd" clip-rule="evenodd" d="M21.4043 39.751L30.8885 58.049C36.4965 55.0076 40.8879 51.3021 44.91 47.3328L21.4043 39.751Z" fill="url(#paint15_linear_59_2)"/>
<path fill-rule="evenodd" clip-rule="evenodd" d="M5.73785 43.3293L4.39404 59.3307C6.92958 62.7942 10.4179 63.0953 14.0769 62.8253C11.4296 56.2366 6.1413 43.0624 5.73785 43.3293Z" fill="url(#paint16_linear_59_2)"/>
<path fill-rule="evenodd" clip-rule="evenodd" d="M43.771 7.45934L62.6122 10.1035C61.6066 5.84243 58.5187 3.09275 53.2552 2.23309L43.771 7.45934Z" fill="url(#paint17_linear_59_2)"/>
<path d="M20.1172 86.9822H15.0976C13.9851 85.2389 12.9777 83.7322 12.0754 82.462C11.1819 81.1918 10.2095 79.8822 9.1583 78.5331H7.25299V84.4462C7.25298 84.7528 7.30118 85.0243 7.39753 85.2608C7.49389 85.4886 7.69975 85.6638 8.01512 85.7864C8.17279 85.8478 8.44873 85.9047 8.84294 85.9573C9.23714 86.0098 9.57002 86.0405 9.84159 86.0492V86.9822H1.95752V86.0492C2.16776 86.0317 2.46998 86.0011 2.86419 85.9573C3.26715 85.9135 3.54747 85.8565 3.70516 85.7864C3.96795 85.6726 4.1563 85.5061 4.27018 85.2871C4.39282 85.0681 4.45414 84.7878 4.45414 84.4462V70.9644C4.45414 70.6578 4.41033 70.3862 4.32274 70.1497C4.23514 69.9132 4.02928 69.7336 3.70516 69.611C3.48615 69.5322 3.20144 69.4621 2.85105 69.4007C2.50064 69.3307 2.2028 69.2869 1.95752 69.2693V68.3364H10.5643C11.3527 68.3364 12.0929 68.4196 12.785 68.586C13.477 68.7437 14.1034 69.0022 14.664 69.3613C15.2071 69.7117 15.6408 70.1716 15.9649 70.741C16.289 71.3017 16.4511 71.9806 16.4511 72.7777C16.4511 73.4961 16.3416 74.1312 16.1226 74.683C15.9036 75.2349 15.5794 75.7124 15.1502 76.1153C14.756 76.492 14.2829 76.8205 13.7311 77.1008C13.1792 77.3724 12.5703 77.6045 11.9046 77.7973C12.8244 79.0149 13.5865 80.0398 14.191 80.872C14.8042 81.7043 15.5531 82.716 16.4379 83.9074C16.8234 84.433 17.1694 84.8228 17.476 85.0769C17.7913 85.3222 18.1023 85.5236 18.4089 85.6813C18.6367 85.7952 18.9214 85.8828 19.2631 85.9441C19.6047 86.0054 19.8894 86.0405 20.1172 86.0492V86.9822ZM13.2055 73.0799C13.2055 71.9499 12.8813 71.0564 12.2331 70.3994C11.5848 69.7336 10.6694 69.4007 9.48681 69.4007H7.25299V77.4031H8.97434C10.1832 77.4031 11.1906 77.0176 11.9966 76.2467C12.8025 75.4671 13.2055 74.4115 13.2055 73.0799Z" fill="white"/>
<path d="M34.374 86.7457L30.156 87.0347L29.959 86.8508V85.2083H29.8801C29.6699 85.4273 29.4334 85.6638 29.1706 85.9178C28.9078 86.1631 28.6055 86.3865 28.2639 86.588C27.8697 86.8245 27.4886 87.0041 27.1207 87.1267C26.7528 87.2494 26.2316 87.3107 25.557 87.3107C24.4095 87.3107 23.5335 86.9384 22.929 86.1938C22.3333 85.4404 22.0355 84.3498 22.0355 82.9219V76.7197C22.0355 76.4044 21.9742 76.1416 21.8515 75.9313C21.7376 75.7124 21.5668 75.524 21.3391 75.3663C21.1814 75.2612 20.9843 75.1867 20.7478 75.1429C20.5112 75.0904 20.2616 75.0553 19.9988 75.0378V74.1837L24.3219 73.8683L24.519 74.0523V83.0533C24.519 83.9906 24.7292 84.6958 25.1497 85.1688C25.5702 85.6419 26.0739 85.8784 26.6608 85.8784C27.1426 85.8784 27.5719 85.804 27.9485 85.655C28.3252 85.5061 28.6406 85.3309 28.8946 85.1294C29.1312 84.9455 29.337 84.7527 29.5122 84.5513C29.6962 84.341 29.8363 84.1483 29.9327 83.9731V76.6278C29.9327 76.3387 29.8714 76.0847 29.7487 75.8656C29.6261 75.6379 29.4553 75.4452 29.2363 75.2875C29.0786 75.1824 28.8421 75.121 28.5267 75.1035C28.2201 75.0772 27.8741 75.0553 27.4886 75.0378V74.1837L32.1928 73.8683L32.3899 74.0523V84.341C32.3899 84.6389 32.4512 84.8929 32.5739 85.1031C32.6965 85.3134 32.8673 85.493 33.0863 85.6419C33.244 85.7383 33.4323 85.804 33.6514 85.839C33.8703 85.8653 34.1113 85.8828 34.3741 85.8916L34.374 86.7457Z" fill="white"/>
<path d="M49.1436 80.491C49.1436 82.4357 48.5304 84.0695 47.304 85.3922C46.0776 86.715 44.6541 87.3764 43.0335 87.3764C42.3239 87.3764 41.6231 87.2669 40.931 87.0479C40.2477 86.8289 39.6039 86.5354 38.9994 86.1675L38.0271 87.6786L37.2124 87.4947C37.2562 86.8464 37.2868 86.0668 37.3044 85.1557C37.3219 84.2447 37.3306 83.3643 37.3306 82.5146V69.6898C37.3306 69.392 37.2606 69.0941 37.1204 68.7963C36.989 68.4984 36.8181 68.2838 36.6079 68.1524C36.4415 68.0385 36.1611 67.9553 35.7669 67.9027C35.3815 67.8414 35.0705 67.802 34.834 67.7845V66.9435L39.5907 66.6413L39.7747 66.8384V75.3795L39.8666 75.4058C40.4098 74.8276 41.0011 74.394 41.6406 74.1049C42.2888 73.8158 42.9239 73.6713 43.5459 73.6713C45.1402 73.6713 46.4717 74.302 47.5405 75.5634C48.6092 76.8249 49.1436 78.4674 49.1436 80.491ZM46.3973 80.583C46.3973 79.9347 46.3272 79.2733 46.187 78.5988C46.0469 77.9243 45.8279 77.3374 45.53 76.838C45.2322 76.33 44.8424 75.9182 44.3606 75.6029C43.8788 75.2875 43.3006 75.1298 42.6261 75.1298C42.0129 75.1298 41.4741 75.2525 41.0098 75.4977C40.5543 75.7343 40.1426 76.0584 39.7747 76.4701V84.0125C39.8272 84.2228 39.928 84.4681 40.0769 84.7484C40.2346 85.0287 40.4448 85.2959 40.7076 85.5499C40.9704 85.7952 41.2682 85.9967 41.6011 86.1544C41.934 86.3033 42.3414 86.3778 42.8232 86.3778C43.8919 86.3778 44.7548 85.8609 45.4118 84.8272C46.0688 83.7935 46.3973 82.3788 46.3973 80.583Z" fill="white"/>
<path d="M50.0896 91.2133C50.0896 90.7753 50.2079 90.4161 50.4444 90.1358C50.6897 89.8642 50.9919 89.7284 51.3511 89.7284C51.6314 89.7284 51.8723 89.781 52.0738 89.8861C52.2753 89.9912 52.4549 90.127 52.6125 90.2935C52.7439 90.4249 52.8841 90.6044 53.033 90.8322C53.1819 91.06 53.3002 91.2483 53.3878 91.3972C53.8258 91.1607 54.347 90.5431 54.9515 89.5445C55.5647 88.5458 56.0071 87.6698 56.2786 86.9165C55.4464 84.8403 54.6931 82.9832 54.0185 81.345C53.344 79.7069 52.6388 78.0118 51.903 76.2598C51.7365 75.8569 51.4562 75.5459 51.062 75.3269C50.6678 75.0991 50.2736 74.9546 49.8794 74.8932V74.026H55.7924V74.9458C55.5296 74.9546 55.2143 75.0115 54.8464 75.1166C54.4784 75.213 54.2945 75.3488 54.2945 75.524C54.2945 75.524 54.3163 75.5897 54.3602 75.7211C54.4127 75.8525 54.4565 75.9795 54.4916 76.1021C54.8244 76.9694 55.3325 78.2221 56.0158 79.8602C56.6991 81.4896 57.2291 82.7948 57.6058 83.776C58 82.8386 58.4073 81.8707 58.8278 80.872C59.257 79.8646 59.7344 78.6776 60.2601 77.311C60.3214 77.1446 60.409 76.9168 60.5229 76.6277C60.6367 76.3299 60.6937 76.0759 60.6937 75.8656C60.6937 75.6379 60.4922 75.4276 60.0892 75.2349C59.695 75.0334 59.3183 74.9108 58.9592 74.867V74.026H63.7685V74.8407C63.5057 74.8845 63.1596 75.0378 62.7304 75.3006C62.3012 75.5546 61.9814 75.9182 61.7712 76.3912C60.7287 78.809 59.8002 81.0122 58.9855 83.0007C58.1795 84.9892 57.5663 86.4522 57.1459 87.3895C56.594 88.6159 56.099 89.5708 55.661 90.2541C55.2318 90.9461 54.8113 91.4892 54.3996 91.8834C53.9966 92.2513 53.6287 92.4966 53.2958 92.6193C52.9717 92.7507 52.6344 92.8164 52.284 92.8164C51.6007 92.8164 51.062 92.6543 50.6678 92.3302C50.2823 92.0061 50.0896 91.6338 50.0896 91.2133Z" fill="white"/>
<defs>
<linearGradient id="paint0_linear_59_2" x1="29.2395" y1="31.8075" x2="64.0872" y2="38.238" gradientUnits="userSpaceOnUse">
<stop offset="0.0001" stop-color="#7A7A7A"/>
<stop offset="0.39125" stop-color="#403F3F"/>
<stop offset="1" stop-color="#1C1C1C"/>
</linearGradient>
<linearGradient id="paint1_linear_59_2" x1="49.5994" y1="42.8302" x2="60.2031" y2="43.8851" gradientUnits="userSpaceOnUse">
<stop offset="0.0001" stop-color="#7A7A7A"/>
<stop offset="0.39125" stop-color="#403F3F"/>
<stop offset="1" stop-color="#1C1C1C"/>
</linearGradient>
<linearGradient id="paint2_linear_59_2" x1="28.3032" y1="59.8379" x2="37.8727" y2="74.9515" gradientUnits="userSpaceOnUse">
<stop offset="0.0001" stop-color="#7A7A7A"/>
<stop offset="0.39125" stop-color="#403F3F"/>
<stop offset="1" stop-color="#1C1C1C"/>
</linearGradient>
<linearGradient id="paint3_linear_59_2" x1="10.5921" y1="48.1738" x2="21.9984" y2="49.5866" gradientUnits="userSpaceOnUse">
<stop offset="0.0001" stop-color="#7A7A7A"/>
<stop offset="0.39125" stop-color="#403F3F"/>
<stop offset="1" stop-color="#1C1C1C"/>
</linearGradient>
<linearGradient id="paint4_linear_59_2" x1="27.5407" y1="30.7638" x2="45.6437" y2="34.0547" gradientUnits="userSpaceOnUse">
<stop offset="0.0001" stop-color="#7A7A7A"/>
<stop offset="0.39125" stop-color="#403F3F"/>
<stop offset="1" stop-color="#1C1C1C"/>
</linearGradient>
<linearGradient id="paint5_linear_59_2" x1="45.8608" y1="13.12" x2="61.5343" y2="17.2242" gradientUnits="userSpaceOnUse">
<stop offset="0.0001" stop-color="#7A7A7A"/>
<stop offset="0.39125" stop-color="#403F3F"/>
<stop offset="1" stop-color="#1C1C1C"/>
</linearGradient>
<linearGradient id="paint6_linear_59_2" x1="41.4655" y1="4.24249" x2="51.219" y2="9.47979" gradientUnits="userSpaceOnUse">
<stop offset="0.0001" stop-color="#7A7A7A"/>
<stop offset="0.39125" stop-color="#403F3F"/>
<stop offset="1" stop-color="#1C1C1C"/>
</linearGradient>
<linearGradient id="paint7_linear_59_2" x1="2.94843" y1="39.7704" x2="6.16925" y2="39.919" gradientUnits="userSpaceOnUse">
<stop offset="0.0001" stop-color="#7A7A7A"/>
<stop offset="0.39125" stop-color="#403F3F"/>
<stop offset="1" stop-color="#1C1C1C"/>
</linearGradient>
<linearGradient id="paint8_linear_59_2" x1="15.0939" y1="16.7179" x2="44.8137" y2="22.2534" gradientUnits="userSpaceOnUse">
<stop offset="0.0001" stop-color="#7A7A7A"/>
<stop offset="0.39125" stop-color="#403F3F"/>
<stop offset="1" stop-color="#1C1C1C"/>
</linearGradient>
<linearGradient id="paint9_linear_59_2" x1="15.5004" y1="17.1026" x2="42.6587" y2="22.1175" gradientUnits="userSpaceOnUse">
<stop offset="0.0001" stop-color="#7A7A7A"/>
<stop offset="0.39125" stop-color="#403F3F"/>
<stop offset="1" stop-color="#1C1C1C"/>
</linearGradient>
<linearGradient id="paint10_linear_59_2" x1="23.7823" y1="48.1165" x2="45.1122" y2="53.2473" gradientUnits="userSpaceOnUse">
<stop offset="0.0001" stop-color="#7A7A7A"/>
<stop offset="0.39125" stop-color="#403F3F"/>
<stop offset="1" stop-color="#1C1C1C"/>
</linearGradient>
<linearGradient id="paint11_linear_59_2" x1="46.0115" y1="30.9257" x2="62.2667" y2="33.5939" gradientUnits="userSpaceOnUse">
<stop offset="0.0001" stop-color="#7A7A7A"/>
<stop offset="0.39125" stop-color="#403F3F"/>
<stop offset="1" stop-color="#1C1C1C"/>
</linearGradient>
<linearGradient id="paint12_linear_59_2" x1="49.762" y1="9.26989" x2="63.4717" y2="11.7332" gradientUnits="userSpaceOnUse">
<stop offset="0.0001" stop-color="#7A7A7A"/>
<stop offset="0.39125" stop-color="#403F3F"/>
<stop offset="1" stop-color="#1C1C1C"/>
</linearGradient>
<linearGradient id="paint13_linear_59_2" x1="5.52747" y1="50.4206" x2="14.7767" y2="51.5075" gradientUnits="userSpaceOnUse">
<stop offset="0.0001" stop-color="#7A7A7A"/>
<stop offset="0.39125" stop-color="#403F3F"/>
<stop offset="1" stop-color="#1C1C1C"/>
</linearGradient>
<linearGradient id="paint14_linear_59_2" x1="45.9783" y1="26.0908" x2="60.6813" y2="31.2791" gradientUnits="userSpaceOnUse">
<stop offset="0.0001" stop-color="#7A7A7A"/>
<stop offset="0.39125" stop-color="#403F3F"/>
<stop offset="1" stop-color="#1C1C1C"/>
</linearGradient>
<linearGradient id="paint15_linear_59_2" x1="28.6605" y1="46.2649" x2="45.0424" y2="50.1452" gradientUnits="userSpaceOnUse">
<stop offset="0.0001" stop-color="#7A7A7A"/>
<stop offset="0.39125" stop-color="#403F3F"/>
<stop offset="1" stop-color="#1C1C1C"/>
</linearGradient>
<linearGradient id="paint16_linear_59_2" x1="7.38312" y1="50.2939" x2="14.4512" y2="50.9386" gradientUnits="userSpaceOnUse">
<stop offset="0.0001" stop-color="#7A7A7A"/>
<stop offset="0.39125" stop-color="#403F3F"/>
<stop offset="1" stop-color="#1C1C1C"/>
</linearGradient>
<linearGradient id="paint17_linear_59_2" x1="49.5872" y1="5.03488" x2="61.1936" y2="10.1581" gradientUnits="userSpaceOnUse">
<stop offset="0.0001" stop-color="#7A7A7A"/>
<stop offset="0.39125" stop-color="#403F3F"/>
<stop offset="1" stop-color="#1C1C1C"/>
</linearGradient>
</defs>
</svg>
