<svg width="256" height="63" viewBox="0 0 256 63" fill="none" xmlns="http://www.w3.org/2000/svg">
<path d="M83.4711 48.5138C80.7561 48.5821 78.084 47.8272 75.8062 46.3481C73.6781 44.9448 72.0977 42.8518 71.3307 40.4207L75.9965 38.7068C76.643 40.2 77.6996 41.4794 79.0436 42.3965C80.4078 43.3106 82.0196 43.7841 83.6614 43.7533C85.239 43.8355 86.7966 43.3641 88.0648 42.4206C88.6163 41.9575 89.0521 41.372 89.3373 40.7107C89.6226 40.0494 89.7493 39.3306 89.7075 38.6117C89.7138 37.9419 89.5585 37.2804 89.2548 36.6834C88.9906 36.1493 88.6452 35.6594 88.231 35.231C87.7072 34.7541 87.1131 34.3607 86.4696 34.0645C85.6758 33.6689 85.0171 33.3669 84.4943 33.16C83.9704 32.9547 83.2006 32.6767 82.1854 32.3271C80.9153 31.8829 79.9632 31.5338 79.3286 31.2804C78.469 30.9145 77.6342 30.4929 76.8294 30.0183C75.9632 29.5586 75.1757 28.964 74.4965 28.2568C73.9088 27.5666 73.4348 26.7872 73.0921 25.9479C72.4346 24.3475 72.2969 22.5808 72.6984 20.8978C73.0998 19.2147 74.0202 17.7005 75.3294 16.5692C77.2341 14.8869 79.8209 14.046 83.0899 14.046C85.819 14.046 88.0643 14.649 89.8262 15.855C91.5361 16.9919 92.7915 18.6942 93.3727 20.6636L88.8025 22.1866C88.3434 21.1552 87.5681 20.2967 86.5888 19.735C85.4042 19.0778 84.0625 18.7568 82.7088 18.8064C81.3812 18.7303 80.0662 19.0988 78.9715 19.8537C78.5243 20.2002 78.1674 20.6494 77.9311 21.1634C77.6948 21.6773 77.5861 22.2407 77.6142 22.8057C77.6183 23.2388 77.7136 23.6662 77.8941 24.06C78.0746 24.4538 78.336 24.8051 78.6615 25.091C79.2943 25.7138 80.0368 26.2143 80.8517 26.567C81.6139 26.8845 82.7724 27.3127 84.3275 27.8521C85.2791 28.2017 85.9853 28.4636 86.4455 28.6379C86.9058 28.8117 87.5804 29.1052 88.4689 29.5184C89.1811 29.834 89.8663 30.2081 90.5159 30.6373C91.0979 31.056 91.6543 31.5093 92.1822 31.9946C92.756 32.4922 93.2464 33.0786 93.6346 33.7315C94.0041 34.409 94.2916 35.1281 94.491 35.8736C94.7342 36.7494 94.8547 37.6547 94.8491 38.5636C94.8491 41.6748 93.7854 44.1104 91.6588 45.8709C89.5322 47.6333 86.8031 48.5143 83.4711 48.5138ZM113.987 47.9428L102.561 14.6169H107.893L115.463 37.8499C115.881 39.0992 116.231 40.3706 116.51 41.6583C116.789 40.3705 117.139 39.0991 117.558 37.8499L125.032 14.6169H130.317L118.938 47.9428H113.987ZM140.409 47.9428V14.6169H161.071V19.2827H145.36V28.4236H155.5V33.0894H145.36V43.2765H162.117V47.9428H140.409ZM174.733 47.9428V14.6169H179.685V43.1823H195.967V47.9433L174.733 47.9428ZM214.628 19.3779V47.9428H209.676V19.3774H200.25V14.6169H224.054V19.3774L214.628 19.3779ZM234.29 47.9428V14.6169H254.952V19.2827H239.241V28.4236H249.381V33.0894H239.241V43.2765H255.999V47.9428H234.29Z" fill="black"/>
<path d="M48.7458 8.27878C42.9356 -0.0371762 31.4603 -2.5018 23.1629 2.78456L8.59197 12.0716C6.62334 13.31 4.93476 14.9454 3.63418 16.8735C2.3336 18.8016 1.44963 20.9798 1.03879 23.2689C0.343795 27.1248 0.954847 31.1024 2.77521 34.5719C1.52809 36.464 0.677562 38.5893 0.275014 40.8194C-0.140124 43.1545 -0.084791 45.5491 0.437767 47.8626C0.960325 50.1761 1.93959 52.3619 3.31812 54.292C9.12987 62.6089 20.6051 65.0725 28.901 59.7862L43.4725 50.4996C45.4412 49.2613 47.1298 47.6258 48.4303 45.6976C49.7308 43.7694 50.6146 41.5911 51.0251 39.3018C51.7199 35.446 51.1092 31.4686 49.2897 27.9988C50.5366 26.1067 51.3867 23.9814 51.7889 21.7514C52.2044 19.4163 52.1493 17.0217 51.6268 14.7081C51.1043 12.3946 50.1245 10.2087 48.7458 8.27878Z" fill="white"/>
<path d="M21.7395 55.0748C19.4465 55.6709 17.0258 55.5489 14.8043 54.7253C12.5828 53.9018 10.6676 52.4163 9.3172 50.4696C8.48799 49.309 7.89893 47.9945 7.58459 46.6032C7.27024 45.2119 7.23693 43.7718 7.48663 42.3675C7.57077 41.9067 7.68696 41.452 7.83471 41.0067L8.10917 40.1703L8.85542 40.7182C10.5795 41.9851 12.5072 42.9484 14.5555 43.5665L15.0974 43.7308L15.0473 44.2712C14.9812 45.0402 15.1895 45.8077 15.6353 46.4378C16.0417 47.0242 16.6183 47.4717 17.2872 47.72C17.956 47.9682 18.685 48.0053 19.3756 47.8261C19.6923 47.7414 19.9941 47.6086 20.2706 47.4325L34.8425 38.1469C35.1991 37.9223 35.5049 37.6259 35.7406 37.2766C35.9762 36.9273 36.1366 36.5327 36.2113 36.118C36.2861 35.6947 36.2759 35.2608 36.1813 34.8415C36.0866 34.4222 35.9093 34.026 35.6599 33.6759C35.2532 33.0893 34.6763 32.6416 34.0071 32.3932C33.3379 32.1449 32.6085 32.1078 31.9176 32.2871C31.6015 32.3716 31.3002 32.5041 31.0241 32.6797L25.4633 36.2247C24.5489 36.806 23.5511 37.2441 22.5043 37.5239C20.2113 38.1201 17.7905 37.9982 15.5689 37.1748C13.3473 36.3513 11.4319 34.8659 10.0815 32.9191C9.25227 31.7586 8.66322 30.4441 8.34887 29.0528C8.03452 27.6615 8.00122 26.2214 8.25091 24.8171C8.49782 23.4406 9.0293 22.1308 9.81133 20.9715C10.5934 19.8121 11.6087 18.8288 12.7925 18.0843L27.3635 8.79717C28.2782 8.21493 29.2768 7.7763 30.3244 7.4965C32.6175 6.90027 35.0383 7.02212 37.2599 7.84559C39.4815 8.66906 41.3968 10.1545 42.7473 12.1012C43.5765 13.2618 44.1655 14.5763 44.4799 15.9676C44.7942 17.3589 44.8275 18.799 44.5778 20.2033C44.4927 20.6641 44.3765 21.1193 44.2298 21.5641L43.9553 22.401L43.209 21.8536C41.4851 20.586 39.5571 19.6224 37.5085 19.0043L36.9671 18.84L37.0172 18.2991C37.0827 17.5303 36.8744 16.7631 36.4292 16.133C36.0227 15.5466 35.4462 15.0991 34.7773 14.8508C34.1084 14.6025 33.3795 14.5655 32.6889 14.7446C32.3722 14.8292 32.0704 14.9618 31.7939 15.1378L17.222 24.4244C16.8654 24.6487 16.5595 24.945 16.3239 25.2943C16.0883 25.6435 15.9281 26.0381 15.8537 26.4528C15.7784 26.8761 15.7882 27.3101 15.8828 27.7296C15.9773 28.149 16.1545 28.5453 16.4041 28.8954C16.8108 29.4819 17.3876 29.9296 18.0567 30.1779C18.7258 30.4263 19.455 30.4634 20.1459 30.2842C20.4625 30.1995 20.7643 30.0669 21.0409 29.8911L26.6007 26.3476C27.5148 25.7655 28.5127 25.3271 29.5597 25.0474C31.8527 24.4512 34.2735 24.5731 36.4951 25.3965C38.7167 26.22 40.632 27.7054 41.9825 29.6522C42.8117 30.8127 43.4008 32.1272 43.7151 33.5185C44.0294 34.9098 44.0628 36.3499 43.8131 37.7542C43.5659 39.1308 43.0343 40.4407 42.2522 41.6002C41.4701 42.7597 40.4547 43.7432 39.2709 44.488L24.7005 53.7736C23.7858 54.356 22.7872 54.7948 21.7395 55.0748Z" fill="black"/>
</svg>
