<svg width="18" height="15" viewBox="0 0 18 15" fill="none" xmlns="http://www.w3.org/2000/svg">
<path d="M12 3.75C12 3.05252 12 2.70378 11.9233 2.41766C11.7153 1.6412 11.1088 1.03472 10.3323 0.826667C10.0462 0.75 9.69748 0.75 9 0.75C8.30252 0.75 7.95378 0.75 7.66766 0.826667C6.8912 1.03472 6.28472 1.6412 6.07667 2.41766C6 2.70378 6 3.05252 6 3.75M3.9 14.25H14.1C14.9401 14.25 15.3601 14.25 15.681 14.0865C15.9632 13.9427 16.1927 13.7132 16.3365 13.431C16.5 13.1101 16.5 12.6901 16.5 11.85V6.15C16.5 5.30992 16.5 4.88988 16.3365 4.56901C16.1927 4.28677 15.9632 4.0573 15.681 3.91349C15.3601 3.75 14.9401 3.75 14.1 3.75H3.9C3.05992 3.75 2.63988 3.75 2.31901 3.91349C2.03677 4.0573 1.8073 4.28677 1.66349 4.56901C1.5 4.88988 1.5 5.30992 1.5 6.15V11.85C1.5 12.6901 1.5 13.1101 1.66349 13.431C1.8073 13.7132 2.03677 13.9427 2.31901 14.0865C2.63988 14.25 3.05992 14.25 3.9 14.25Z" stroke="#7F7F7F" stroke-width="1.2" stroke-linecap="round" stroke-linejoin="round"/>
</svg>
