<svg width="16" height="17" viewBox="0 0 16 17" fill="none" xmlns="http://www.w3.org/2000/svg">
<path d="M6.6 10.6L4.44732 12.7796C4.14705 13.0836 3.99691 13.2356 3.86787 13.2463C3.75591 13.2556 3.64629 13.2106 3.57317 13.1253C3.48889 13.027 3.48889 12.8134 3.48889 12.3861V11.2941C3.48889 10.9108 3.17495 10.6334 2.79564 10.5778V10.5778C1.87762 10.4434 1.15664 9.72238 1.02217 8.80436C1 8.65299 1 8.47236 1 8.11111V4.86C1 3.68389 1 3.09583 1.22889 2.64662C1.43022 2.25148 1.75148 1.93022 2.14662 1.72889C2.59583 1.5 3.18389 1.5 4.36 1.5H9.54C10.7161 1.5 11.3042 1.5 11.7534 1.72889C12.1485 1.93022 12.4698 2.25148 12.6711 2.64662C12.9 3.09583 12.9 3.68389 12.9 4.86V7.8M12.9 15.5L11.3765 14.4408C11.1624 14.2919 11.0553 14.2175 10.9387 14.1647C10.8353 14.1179 10.7266 14.0838 10.6149 14.0632C10.4891 14.04 10.3587 14.04 10.0978 14.04H8.84C8.05593 14.04 7.66389 14.04 7.36441 13.8874C7.10099 13.7532 6.88681 13.539 6.75259 13.2756C6.6 12.9761 6.6 12.5841 6.6 11.8V10.04C6.6 9.25593 6.6 8.86389 6.75259 8.56441C6.88681 8.30099 7.10099 8.08681 7.36441 7.95259C7.66389 7.8 8.05593 7.8 8.84 7.8H12.76C13.5441 7.8 13.9361 7.8 14.2356 7.95259C14.499 8.08681 14.7132 8.30099 14.8474 8.56441C15 8.86389 15 9.25593 15 10.04V11.94C15 12.5923 15 12.9185 14.8934 13.1758C14.7513 13.5188 14.4788 13.7913 14.1358 13.9334C13.8785 14.04 13.5523 14.04 12.9 14.04V15.5Z" stroke="#7F7F7F" stroke-width="1.2" stroke-linecap="round" stroke-linejoin="round"/>
</svg>
