<svg width="16" height="16" viewBox="0 0 16 16" fill="none" xmlns="http://www.w3.org/2000/svg">
<path d="M11.1111 11.8892L15 8.00035L11.1111 4.11146" fill="#AEAEAE"/>
<path d="M11.1111 11.8892L15 8.00035M15 8.00035L11.1111 4.11146M15 8.00035H5.66667M8 11.8892C8 12.1191 8 12.2341 7.99146 12.3337C7.90264 13.3685 7.14044 14.2201 6.12169 14.4227C6.02369 14.4422 5.90935 14.4549 5.68094 14.4802L4.88651 14.5685C3.69304 14.7011 3.09627 14.7674 2.62218 14.6157C1.99006 14.4134 1.47399 13.9515 1.20314 13.3456C1 12.8912 1 12.2908 1 11.0899V4.91078C1 3.70994 1 3.10952 1.20314 2.65508C1.47399 2.04916 1.99006 1.58726 2.62218 1.38498C3.09628 1.23327 3.69302 1.29957 4.88651 1.43218L5.68094 1.52045C5.90943 1.54584 6.02367 1.55853 6.12169 1.57802C7.14044 1.78058 7.90264 2.63216 7.99146 3.66704C8 3.76662 8 3.88156 8 4.11146" stroke="#E6E6E6" stroke-width="1.2" stroke-linecap="round" stroke-linejoin="round"/>
<path d="M11.1111 11.8892L15 8.00035M15 8.00035L11.1111 4.11146M15 8.00035H5.66667M8 11.8892C8 12.1191 8 12.2341 7.99146 12.3337C7.90264 13.3685 7.14044 14.2201 6.12169 14.4227C6.02369 14.4422 5.90935 14.4549 5.68094 14.4802L4.88651 14.5685C3.69304 14.7011 3.09627 14.7674 2.62218 14.6157C1.99006 14.4134 1.47399 13.9515 1.20314 13.3456C1 12.8912 1 12.2908 1 11.0899V4.91078C1 3.70994 1 3.10952 1.20314 2.65508C1.47399 2.04916 1.99006 1.58726 2.62218 1.38498C3.09628 1.23327 3.69302 1.29957 4.88651 1.43218L5.68094 1.52045C5.90943 1.54584 6.02367 1.55853 6.12169 1.57802C7.14044 1.78058 7.90264 2.63216 7.99146 3.66704C8 3.76662 8 3.88156 8 4.11146" stroke="#AEAEAE" stroke-width="1.2" stroke-linecap="round" stroke-linejoin="round"/>
</svg>
