<svg width="20" height="10" viewBox="0 0 20 10" fill="none" xmlns="http://www.w3.org/2000/svg">
<path fill-rule="evenodd" clip-rule="evenodd" d="M1.33706 0.0673487C1.76008 -0.113948 2.24998 0.082012 2.43128 0.505037L1.66533 0.833303C2.43128 0.505037 2.4314 0.505309 2.43128 0.505037L2.43085 0.504036C2.43061 0.503496 2.43079 0.50389 2.43085 0.504036L2.43411 0.511425C2.43745 0.518936 2.44319 0.531701 2.45135 0.54937C2.46768 0.584721 2.49367 0.63962 2.5295 0.711276C2.60122 0.854712 2.71198 1.06451 2.86317 1.31852C3.16651 1.82812 3.62736 2.50684 4.25515 3.18293C4.40313 3.34229 4.55973 3.50088 4.72514 3.65668C4.73205 3.66296 4.73889 3.66938 4.74564 3.67594C5.98288 4.83447 7.70892 5.8333 9.99866 5.8333C11.0061 5.8333 11.8973 5.64096 12.6828 5.33179C13.7044 4.92965 14.5608 4.32424 15.2617 3.66639C16.053 2.92362 16.6343 2.125 17.018 1.50913C17.2092 1.2024 17.3493 0.944284 17.4402 0.765876C17.4857 0.676766 17.5187 0.607824 17.5397 0.562976C17.5501 0.54056 17.5575 0.524193 17.5619 0.514365L17.566 0.505037C17.7474 0.0822425 18.2373 -0.1139 18.6603 0.0673486C19.0833 0.248645 19.2792 0.738544 19.0979 1.16157L18.332 0.833303C19.0979 1.16157 19.098 1.16138 19.0979 1.16157L19.0961 1.16575L19.0932 1.17261L19.0836 1.19414C19.0757 1.21191 19.0646 1.23645 19.0502 1.26723C19.0215 1.32878 18.9799 1.41542 18.925 1.52308C18.8153 1.73821 18.652 2.03837 18.4326 2.39053C18.0971 2.92899 17.6254 3.5968 17.0067 4.27021L17.6712 4.93475C17.9967 5.26018 17.9967 5.78782 17.6712 6.11326C17.3458 6.43869 16.8182 6.43869 16.4927 6.11326L15.7926 5.41311C15.3224 5.79289 14.7962 6.15111 14.2118 6.46013L14.8638 7.46215C15.1148 7.84791 15.0056 8.36412 14.6198 8.61512C14.234 8.86613 13.7178 8.75689 13.4668 8.37113L12.6456 7.10902C12.0798 7.28248 11.4753 7.40541 10.832 7.46303V8.74997C10.832 9.21021 10.4589 9.5833 9.99866 9.5833C9.53842 9.5833 9.16533 9.21021 9.16533 8.74997V7.46314C8.51979 7.40548 7.91548 7.2823 7.35148 7.10936L6.53048 8.37113C6.27947 8.75689 5.76327 8.86613 5.3775 8.61513C4.99174 8.36412 4.8825 7.84791 5.13351 7.46215L5.78551 6.46011C5.20208 6.15133 4.67574 5.79312 4.20491 5.41292L3.50458 6.11326C3.17914 6.43869 2.65151 6.43869 2.32607 6.11326C2.00063 5.78782 2.00063 5.26018 2.32607 4.93475L2.9906 4.27021C2.28644 3.50375 1.77179 2.7435 1.43102 2.171C1.2567 1.87813 1.12657 1.63221 1.03879 1.45663C0.99486 1.36878 0.96144 1.29836 0.938299 1.24826C0.926726 1.2232 0.917715 1.20321 0.911238 1.18865L0.903418 1.17091L0.900925 1.16517L0.900031 1.1631L0.899672 1.16227C0.899517 1.16191 0.899372 1.16157 1.66533 0.833303L0.899672 1.16227C0.718376 0.739244 0.914035 0.248645 1.33706 0.0673487Z" fill="#939F8E"/>
</svg>
