<svg width="22" height="27" viewBox="0 0 22 27" fill="none" xmlns="http://www.w3.org/2000/svg">
<path d="M17.49 16.8755C17.2399 18.273 16.5677 19.5604 15.5638 20.5643C14.5599 21.5682 13.2725 22.2404 11.875 22.4905C11.8336 22.4968 11.7919 22.5002 11.75 22.5005C11.5614 22.5013 11.3795 22.4309 11.2404 22.3036C11.1014 22.1762 11.0154 22.0011 10.9997 21.8132C10.9839 21.6253 11.0395 21.4384 11.1554 21.2896C11.2713 21.1408 11.4389 21.0412 11.625 21.0105C13.7975 20.6455 15.6413 18.8005 16.01 16.6255C16.0432 16.4293 16.1529 16.2542 16.3151 16.1389C16.3955 16.0818 16.4862 16.041 16.5823 16.019C16.6784 15.997 16.7778 15.9941 16.875 16.0105C16.9722 16.0269 17.0652 16.0623 17.1487 16.1147C17.2322 16.167 17.3045 16.2353 17.3616 16.3156C17.4188 16.396 17.4595 16.4867 17.4815 16.5828C17.5035 16.6789 17.5064 16.7783 17.49 16.8755ZM21.5 15.7505C21.5 18.6016 20.3674 21.3359 18.3514 23.3519C16.3354 25.3679 13.6011 26.5005 10.75 26.5005C7.89892 26.5005 5.16462 25.3679 3.1486 23.3519C1.13259 21.3359 0 18.6016 0 15.7505C0 12.3168 1.35625 8.79926 4.03125 5.29551C4.09548 5.21018 4.1772 5.13956 4.27094 5.08836C4.36467 5.03717 4.46826 5.00658 4.57477 4.99865C4.68128 4.99072 4.78825 5.00563 4.88853 5.04239C4.98881 5.07914 5.08009 5.13689 5.15625 5.21176L8.44875 8.40676L11.335 0.493014C11.3762 0.380086 11.4439 0.278712 11.5325 0.197435C11.621 0.116157 11.7278 0.0573565 11.8439 0.0259878C11.9599 -0.00538083 12.0818 -0.00839854 12.1992 0.0171887C12.3167 0.042776 12.4263 0.0962186 12.5187 0.173014C15.215 2.41676 21.5 8.42551 21.5 15.7505ZM20 15.7505C20 9.70051 15.1687 4.52051 12.3662 2.02551L9.455 10.008C9.41217 10.1257 9.34057 10.2307 9.24673 10.3136C9.15289 10.3965 9.03979 10.4546 8.91775 10.4825C8.79571 10.5105 8.66861 10.5074 8.54804 10.4737C8.42748 10.4399 8.31728 10.3765 8.2275 10.2893L4.7275 6.88676C2.58375 9.89176 1.5 12.8755 1.5 15.7505C1.5 18.2038 2.47455 20.5565 4.20926 22.2913C5.94397 24.026 8.29675 25.0005 10.75 25.0005C13.2033 25.0005 15.556 24.026 17.2907 22.2913C19.0254 20.5565 20 18.2038 20 15.7505Z" fill="black"/>
</svg>
