<svg width="196" height="45" viewBox="0 0 196 45" fill="none" xmlns="http://www.w3.org/2000/svg">
<g clip-path="url(#clip0_25_43)">
<path fill-rule="evenodd" clip-rule="evenodd" d="M187.406 3.35403L195.6 3.39981C195.6 3.39981 180.366 24.3341 179.122 26.0402C178.718 26.5927 178.104 27.1885 177.793 27.9271C177.006 29.7838 176.198 33.8567 176.198 33.8567L168.701 33.8947C168.701 33.8947 169.867 29.6492 169.819 27.3879C169.777 25.4126 168.783 23.4396 168.225 21.4584C167.661 19.4528 166.895 15.5285 166.895 15.5285H174.604L175.667 19.8411L187.406 3.35403Z" fill="black"/>
<path fill-rule="evenodd" clip-rule="evenodd" d="M171.89 7.76908C173.402 8.69352 174.33 13.7933 174.33 13.7933C174.33 13.7933 166.418 13.9116 162.112 13.9116H158.391L153.872 33.8567H146.962C146.962 33.8567 151.263 12.1814 152.278 8.25167C152.607 6.97926 154.532 7.19766 157.782 7.19766H162.973C166.325 7.19766 170.242 6.76357 171.89 7.76908ZM139.72 17.4829C139.72 17.4829 139.935 16.2027 138.989 14.72C138.181 13.4562 137.434 13.1621 135.308 13.0946C129.304 12.9034 129.421 17.4154 129.421 17.4154L139.72 17.4829ZM146.231 12.3156C147.111 15.5343 145.434 23.097 145.434 23.097C145.434 23.097 136.676 22.9488 131.879 23.097C130.388 23.1432 128.602 22.9325 128.158 23.6362C127.533 24.6224 128.387 26.1403 129.11 26.7816C129.942 27.5198 131.562 27.604 132.145 27.6789C136.038 28.1805 144.187 27.8084 144.187 27.8084L142.776 34.1472C142.776 34.1472 131.26 34.733 125.5 33.3388C124.363 33.0641 123.297 32.509 122.577 31.7219C122.38 31.5066 122.209 31.2129 122.023 30.9592C121.875 30.7567 121.442 30.0914 121.248 29.5654C119.932 26.0104 121.402 19.1999 122.842 15.5502C123.01 15.1274 123.22 14.5909 123.441 14.135C123.717 13.5667 123.951 12.9251 124.171 12.5852C124.32 12.3509 124.504 12.2 124.658 11.9789C124.836 11.7174 125.043 11.4641 125.234 11.238C125.766 10.6126 126.369 10.1704 127.095 9.62107C129.495 7.79857 133.838 6.38378 139.055 6.92533C141.019 7.13016 143.986 7.84163 145.434 9.89029C145.822 10.4373 146.013 11.5231 146.231 12.3156ZM114.537 7.17283L121.237 7.13288C121.237 7.13288 117.503 25.0968 115.6 33.8567H107.892C102.505 33.8567 97.7074 34.5332 95.6661 30.6221C93.6861 26.8246 95.5759 20.5797 96.4633 16.3369C97.0907 13.3343 98.412 7.19727 98.412 7.19727L105.354 7.13288C105.354 7.13288 103.393 16.6876 102.576 21.4584C102.284 23.1672 101.681 24.7764 102.311 26.0399C102.909 27.2424 103.746 27.3286 106.297 27.3879C107.106 27.4073 109.753 27.3879 109.753 27.3879L114.537 7.17283ZM83.1744 20.1103C83.8759 17.5826 84.8992 14.8415 84.7692 12.5635C84.6284 10.1273 82.6139 7.90913 81.3141 7.44283C77.3992 6.04124 73.7341 8.00068 72.2774 9.59895C70.393 11.669 69.7549 14.0869 69.0878 17.4158C68.5913 19.8869 68.1842 22.4957 69.0878 24.423C70.6876 27.8302 75.6766 27.0861 81.0482 27.1187C81.8454 24.9517 82.5045 22.5178 83.1744 20.1103ZM92.4769 10.1382C93.242 15.7818 90.3056 22.0112 88.2828 27.4283C90.3454 27.6172 92.1529 27.3992 92.283 27.5551C92.4184 27.7572 90.9005 34.0211 90.3714 34.0374C88.7346 34.0805 83.3102 34.1263 81.0482 34.1263C73.6672 34.1263 66.7623 34.6139 63.2411 30.8921C61.8112 29.3799 60.8223 26.7866 60.5828 24.9622C60.1842 21.9165 60.6838 18.5633 61.3804 15.7985C62.0105 13.3021 62.818 10.9466 64.0383 8.79012C67.1399 3.30012 72.5352 -0.775096 81.5796 0.165637C83.3339 0.34874 85.8533 1.12771 87.427 2.05215C87.5357 2.11693 87.9163 2.42417 88.0035 2.47809C90.13 3.85021 92.0676 7.12473 92.4769 10.1382ZM59.82 7.20542C59.3736 9.26727 58.9272 11.6046 58.4567 13.642H51.0148C51.5913 11.3834 52.0327 9.13809 52.6096 7.17322C54.9909 7.17322 57.205 7.20542 59.8204 7.20542M50.7489 15.5289H57.9253C56.987 20.7954 55.129 29.2907 53.6727 35.2043C52.7611 38.9052 52.1525 41.6056 49.6858 43.5596C49.4651 43.7349 49.3377 43.6515 49.1541 43.8292C48.6997 44.2687 46.5972 44.7785 45.4336 44.9073C43.5411 45.1152 41.4016 44.9344 39.0758 44.8859C39.6844 42.6301 40.373 39.9212 40.9154 37.8993C46.5846 38.5952 46.7281 33.1611 47.8256 27.9271C48.4606 24.9028 50.3851 16.7415 50.7489 15.5289Z" fill="black"/>
<path fill-rule="evenodd" clip-rule="evenodd" d="M34.0045 29.2748L33.8507 29.679C31.2303 34.854 26.5867 38.0289 19.9634 38.1689C16.8672 38.2337 13.917 37.428 11.9898 36.552C7.83084 34.657 4.33253 31.1427 2.42214 27.3879C-0.318362 22.0054 -0.812601 14.5179 4.88568 8.92551C4.97367 8.92551 4.19444 10.1382 4.28242 10.1382L4.12558 10.6557C0.0194188 23.6925 12.6703 34.8649 24.9682 33.5871C27.9236 33.2798 31.6924 31.6385 34.0045 29.2748Z" fill="white"/>
<path fill-rule="evenodd" clip-rule="evenodd" d="M26.5626 23.8841C29.6565 23.9055 32.8882 22.4391 34.8021 20.3803C33.1277 24.6902 28.2798 27.4605 21.7789 26.5795C16.3354 25.8408 11.1501 20.2861 10.6161 14.72C10.2255 10.6693 11.6176 8.25167 13.9117 5.31891C13.1145 6.85279 12.8165 8.03559 12.7423 8.79012C11.8708 17.5527 19.6448 23.838 26.5626 23.8841Z" fill="white"/>
<path fill-rule="evenodd" clip-rule="evenodd" d="M34.4911 13.0003C34.0102 14.1191 31.241 16.2318 30.018 16.496C25.1755 17.5422 22.0743 15.2135 20.4496 12.5635C20.2082 12.1678 19.7618 11.0871 19.6819 10.812C19.0518 8.6396 19.3414 5.35383 21.2208 3.65314C20.6547 5.27042 20.572 7.14878 20.87 8.36999C21.0506 9.10822 21.6007 10.3973 22.1512 11.2081C23.1526 12.6849 23.788 13.0438 25.0745 13.8282C25.6541 14.1812 26.2757 14.4644 26.5442 14.542C27.7641 14.9062 30.3394 15.8656 34.4911 13.0003Z" fill="white"/>
</g>
<defs>
<clipPath id="clip0_25_43">
<rect width="196" height="45" fill="white"/>
</clipPath>
</defs>
</svg>
