<svg width="16" height="15" viewBox="0 0 16 15" fill="none" xmlns="http://www.w3.org/2000/svg">
<circle cx="8.00053" cy="4.00053" r="2.54545" stroke="#7F7F7F" stroke-width="1.2"/>
<path d="M11.8184 5.91033C12.8727 5.91033 13.7275 5.19806 13.7275 4.31942C13.7275 3.44079 12.8727 2.72852 11.8184 2.72852" stroke="#7F7F7F" stroke-linecap="round"/>
<path d="M4.18359 5.91033C3.12923 5.91033 2.2745 5.19806 2.2745 4.31942C2.2745 3.44079 3.12923 2.72852 4.18359 2.72852" stroke="#7F7F7F" stroke-linecap="round"/>
<ellipse cx="8.00178" cy="11.0005" rx="3.81818" ry="2.54545" stroke="#7F7F7F" stroke-width="1.2"/>
<path d="M13.0918 12.2736C14.2081 12.0288 15.0009 11.4088 15.0009 10.6827C15.0009 9.95657 14.2081 9.3366 13.0918 9.0918" stroke="#7F7F7F" stroke-linecap="round"/>
<path d="M2.9082 12.2736C1.79186 12.0288 0.999112 11.4088 0.999112 10.6827C0.999112 9.95657 1.79186 9.3366 2.9082 9.0918" stroke="#7F7F7F" stroke-linecap="round"/>
</svg>
