<svg width="113" height="33" viewBox="0 0 113 33" fill="none" xmlns="http://www.w3.org/2000/svg">
<path d="M42.6065 14.0505C42.6065 10.5653 41.6183 8.77608 39.6418 8.67819C38.8552 8.64086 38.0877 8.76675 37.3406 9.0585C36.7444 9.27294 36.3432 9.48547 36.1321 9.70015V18.0189C37.3963 18.8169 38.5189 19.1879 39.498 19.1295C41.5693 18.9914 42.6065 17.3002 42.6065 14.0505ZM45.0445 14.1951C45.0445 15.9657 44.6316 17.4355 43.801 18.6041C42.8754 19.9269 41.5926 20.6081 39.9526 20.6454C38.7162 20.6849 37.4425 20.2955 36.1318 19.4789V27.0397L34.0115 26.2791V9.49696C34.3595 9.06783 34.8074 8.69926 35.35 8.38644C36.6121 7.6469 38.1453 7.26684 39.9502 7.24817L39.9802 7.27832C41.6297 7.2575 42.9006 7.93865 43.7938 9.31961C44.6268 10.5864 45.0445 12.2101 45.0445 14.1951ZM58.0026 19.1572C58.0026 21.5321 57.766 23.1766 57.2929 24.0911C56.8174 25.0054 55.9125 25.7356 54.5764 26.2793C53.493 26.7085 52.3214 26.9418 51.0643 26.9816L50.7137 25.6379C51.992 25.4632 52.8921 25.288 53.414 25.1131C54.4417 24.7632 55.1469 24.2268 55.5343 23.5081C55.8451 22.9227 55.9982 21.8052 55.9982 20.1514V19.5962C54.5483 20.2589 53.029 20.5877 51.4401 20.5877C50.396 20.5877 49.4752 20.2589 48.6818 19.5962C47.7909 18.8753 47.3456 17.961 47.3456 16.8529V7.97838L49.4659 7.24817V16.1804C49.4659 17.1344 49.772 17.8694 50.3844 18.3849C50.9967 18.9004 51.7902 19.1479 52.7622 19.129C53.7341 19.1079 54.7756 18.73 55.882 17.9905V7.56984H58.0023L58.0026 19.1572ZM66.2793 20.5289C66.0471 20.5486 65.8141 20.5586 65.581 20.559C64.3818 20.559 63.4467 20.2723 62.7789 19.696C62.113 19.1199 61.7791 18.3246 61.7791 17.3096V8.91131H60.3268V7.57007H61.7791V4.00782L63.897 3.2496V7.57007H66.2793V8.91131H63.897V17.2512C63.897 18.0515 64.1102 18.6182 64.5369 18.9497C64.9034 19.2226 65.4858 19.3788 66.2791 19.4186V20.5289H66.2793ZM79.117 20.3539H76.9967V12.1237C76.9967 11.2862 76.802 10.5653 76.4145 9.96366C75.9669 9.28227 75.3452 8.9417 74.547 8.9417C73.575 8.9417 72.3596 9.45723 70.9004 10.4883V20.3539H68.7804V0.681303L70.9004 0.00949097V8.9697C72.2551 7.97814 73.7352 7.48128 75.3428 7.48128C76.4657 7.48128 77.3748 7.86158 78.071 8.6198C78.7692 9.37777 79.1172 10.3227 79.1172 11.4518L79.117 20.3539ZM90.3862 13.7148C90.3862 12.3757 90.1335 11.2699 89.6299 10.3952C89.0313 9.32918 88.1012 8.76675 86.8439 8.70859C84.5194 8.84381 83.3594 10.5187 83.3594 13.7289C83.3594 15.2008 83.6008 16.4302 84.0879 17.417C84.7096 18.6745 85.6423 19.2951 86.8858 19.274C89.2193 19.2551 90.3862 17.4029 90.3862 13.7148ZM92.7083 13.7286C92.7083 15.6347 92.2235 17.221 91.2561 18.4876C90.1911 19.9061 88.7207 20.6174 86.8439 20.6174C84.9835 20.6174 83.5337 19.9059 82.4874 18.4876C81.5386 17.221 81.0652 15.6347 81.0652 13.7286C81.0652 11.9372 81.5778 10.4301 82.6033 9.20305C83.6867 7.90131 85.1108 7.24817 86.8718 7.24817C88.6322 7.24817 90.0659 7.90131 91.1702 9.20305C92.1957 10.4301 92.7083 11.9372 92.7083 13.7286ZM104.864 20.3539H102.743V11.6572C102.743 10.7032 102.458 9.95887 101.888 9.42229C101.317 8.88809 100.556 8.62913 99.6071 8.64995C98.6006 8.66862 97.6422 8.99986 96.7331 9.64152V20.3539H94.6128V9.37801C95.833 8.48481 96.9558 7.90131 97.9811 7.62847C98.9483 7.3743 99.802 7.24817 100.537 7.24817C101.041 7.24817 101.514 7.29699 101.959 7.39512C102.792 7.58874 103.47 7.94798 103.991 8.47524C104.574 9.0585 104.864 9.75807 104.864 10.5771V20.3539Z" fill="white"/>
<path d="M13.0704 0.76003C11.9794 0.765056 10.9377 0.858636 10.0212 1.02186C7.32094 1.50173 6.83067 2.50574 6.83067 4.35771V6.80347H13.2118V7.61865H4.43574C2.58128 7.61865 0.957209 8.73969 0.449329 10.8722C-0.136613 13.3165 -0.162555 14.8418 0.449329 17.394C0.902946 19.2939 1.9863 20.6475 3.84075 20.6475H6.03482V17.7157C6.03482 15.5976 7.85714 13.7293 10.0212 13.7293H16.395C18.1692 13.7293 19.5855 12.2603 19.5855 10.4684V4.35747C19.5855 2.61846 18.1266 1.31194 16.395 1.02162C15.2985 0.838293 14.1614 0.754765 13.0704 0.76003ZM9.61949 2.72688C10.2787 2.72688 10.8168 3.27711 10.8168 3.95347C10.8168 4.62744 10.2785 5.17264 9.61949 5.17264C8.95811 5.17264 8.42214 4.62768 8.42214 3.95347C8.42214 3.27711 8.95811 2.72688 9.61949 2.72688Z" fill="black"/>
<path d="M20.3814 7.61841V10.4679C20.3814 12.6772 18.5188 14.5366 16.395 14.5366H10.0212C8.27532 14.5366 6.83069 16.0392 6.83069 17.7976V23.908C6.83069 25.6473 8.33434 26.6702 10.0212 27.1689C12.0411 27.7663 13.9781 27.8743 16.395 27.1689C18.0014 26.7013 19.5855 25.7597 19.5855 23.908V21.4625H13.2118V20.6473H22.7761C24.6308 20.6473 25.3217 19.3463 25.9666 17.3938C26.633 15.3839 26.6047 13.4505 25.9666 10.8719C25.5083 9.0154 24.6329 7.61841 22.7761 7.61841H20.3814ZM16.7965 23.0928C17.4579 23.0928 17.9938 23.6378 17.9938 24.312C17.9938 24.9884 17.4579 25.5386 16.7965 25.5386C16.1372 25.5386 15.5991 24.9884 15.5991 24.312C15.5991 23.638 16.1375 23.0928 16.7965 23.0928Z" fill="white"/>
<path d="M108.993 5.66902H109.364V3.3245H110.245V3.04495H108.112V3.3245H108.992L108.993 5.66902ZM110.575 5.66902H110.892V3.52769L111.581 5.66878H111.935L112.653 3.53487V5.66902H113V3.04519H112.541L111.756 5.29326L111.087 3.04519H110.575V5.66902Z" fill="white"/>
</svg>
