<svg width="256" height="256" viewBox="0 0 256 256" fill="none" xmlns="http://www.w3.org/2000/svg">
<rect width="256" height="256" rx="128" fill="white"/>
<path fill-rule="evenodd" clip-rule="evenodd" d="M0 128C0 57.3076 57.3076 0 128 0C198.692 0 256 57.3076 256 128L256 128.265C237.873 135.306 217.379 141.563 195 145.692C195 145.692 197.002 154.238 206.335 163.214C223.643 159.324 239.672 154.476 254.253 149.198C252.492 159.761 249.439 169.886 245.26 179.405C185.836 193.825 146.035 178.823 146.035 152.222C146.035 137.294 158.691 127.302 170.95 127.302H190.831V107.896C190.831 92.4807 178.333 79.9805 162.916 79.9805H107.694H70.5638H61.125V99.1732H76.9722C78.9738 109.148 80.3633 124.498 80.3633 152.222C80.3633 201.698 116.269 238.227 173.142 247.813C159.104 253.105 143.89 256 128 256C123.025 256 118.116 255.716 113.289 255.164C78.1481 235.257 51.5396 191.215 53.6436 144.753C53.6436 144.753 31.0614 140.575 0.00231599 128.778C0.000772722 128.519 0 128.26 0 128ZM126.668 152.222C126.668 193.964 172.305 211.288 232.907 201.357C225.114 212.482 215.595 222.31 204.741 230.454C142.071 230.778 99.7304 200.513 99.7304 152.189C99.7304 108.83 97.5166 99.1732 97.5166 99.1732H107.694H162.315C167.239 99.1732 171.217 103.071 171.421 107.941C146.997 107.961 126.668 126.783 126.668 152.222ZM1.92739 150.252C8.6323 188.502 32.3195 220.908 64.9296 239.408C48.5394 219.762 35.9354 193.485 34.2703 160.187C23.0527 157.363 12.2236 153.971 1.92739 150.252ZM130.023 51.1922H143.72V32H162.912V51.1922V61.8409V70.3844H76.9688V64.7098V51.1922V32H96.1609V51.1922H110.831V32H130.023V51.1922Z" fill="#ED0C32"/>
</svg>
