<svg width="99" height="92" viewBox="0 0 99 92" fill="none" xmlns="http://www.w3.org/2000/svg">
<path d="M74.6699 67.3972C75.3382 62.4239 75.1373 61.6937 79.2805 62.4995L80.3347 62.5834C83.5212 62.7135 87.6883 62.126 90.1368 61.1082C95.4078 58.9217 98.5306 55.2704 93.3352 56.2294C81.4804 58.4159 80.6649 54.8234 80.6649 54.8234C93.1821 38.2144 98.4153 17.1294 93.9001 11.9673C81.558 -2.10684 60.2552 4.54937 59.8773 4.72353L59.7639 4.74452C57.4208 4.31015 54.7992 4.05204 51.8554 4.01007C46.491 3.93033 42.4213 5.26913 39.3323 7.36126C39.3323 7.36126 1.28966 -6.65623 3.05992 24.988C3.43784 31.7198 13.8505 75.9231 26.2682 62.5708C30.8072 57.6878 35.1951 53.5602 35.1951 53.5602C37.4832 54.912 40.1026 55.5098 42.7157 55.2767L42.9266 55.1151C42.8609 55.7237 42.8868 56.3112 43.0121 57.0163C39.8137 60.2122 40.7525 60.7725 34.3557 61.9518C27.8853 63.1437 31.6864 65.2673 34.1688 65.8234C37.1782 66.4949 44.1399 67.4497 48.844 61.5636L48.657 62.2351C49.9101 63.1332 49.8266 68.6877 50.0056 72.658C50.1846 76.6282 50.483 80.3319 51.386 82.5164C52.2891 84.7008 53.3592 90.3225 61.7649 88.7151C68.7903 87.3679 74.1627 85.4311 74.654 67.4056" fill="white"/>
<path d="M74.6699 67.3972C75.3382 62.4239 75.1373 61.6937 79.2805 62.4995L80.3347 62.5834C83.5212 62.7135 87.6883 62.126 90.1368 61.1082C95.4078 58.9217 98.5306 55.2704 93.3352 56.2294C81.4804 58.4159 80.6649 54.8234 80.6649 54.8234C93.1821 38.2144 98.4153 17.1294 93.9001 11.9673C81.558 -2.10684 60.2552 4.54937 59.8773 4.72353L59.7639 4.74452C57.4208 4.31015 54.7992 4.05204 51.8554 4.01007C46.491 3.93033 42.4214 5.26913 39.3323 7.36126C39.3323 7.36126 1.28966 -6.65623 3.05992 24.988C3.43784 31.7198 13.8505 75.9231 26.2682 62.5708C30.8072 57.6878 35.1951 53.5602 35.1951 53.5602C37.4832 54.912 40.1026 55.5099 42.7157 55.2767L42.9266 55.1151C42.8609 55.7237 42.8868 56.3112 43.0121 57.0163C39.8137 60.2122 40.7525 60.7725 34.3557 61.9518C27.8853 63.1437 31.6864 65.2673 34.1688 65.8234C37.1782 66.4949 44.1399 67.4497 48.844 61.5636L48.657 62.2351C49.9101 63.1332 49.8266 68.6877 50.0056 72.658C50.1846 76.6282 50.483 80.3319 51.386 82.5164C52.2891 84.7008 53.3592 90.3225 61.7649 88.7151C68.7903 87.3679 74.1627 85.4311 74.654 67.4056" stroke="white" stroke-width="4.108"/>
<path d="M93.3469 56.2209C81.4908 58.4071 80.6752 54.8151 80.6752 54.8151C93.1937 38.2063 98.4275 17.1243 93.9118 11.965C81.5903 -2.10721 60.2653 4.55017 59.8874 4.72431L59.772 4.74529C57.4286 4.31098 54.8068 4.05291 51.8607 4.01095C46.4956 3.93331 42.4256 5.26982 39.3382 7.36166C39.3382 7.36166 1.28947 -6.65386 3.05992 24.986C3.43788 31.7168 13.8497 75.916 26.2707 62.5635C30.8102 57.6812 35.1966 53.5541 35.1966 53.5541C37.4849 54.9057 40.1046 55.5035 42.718 55.2704L42.9308 55.1089C42.8652 55.7173 42.895 56.3048 43.0164 57.0098C39.8176 60.2052 40.7566 60.7654 34.3631 61.9446C27.89 63.1363 31.6935 65.2596 34.1761 65.8156C37.1858 66.487 44.1483 67.4417 48.8529 61.5564L48.6659 62.2278C49.9191 63.1258 50.8004 68.0669 50.6552 72.5506C50.5099 77.0343 50.4085 80.1039 51.3972 82.5083C52.3858 84.9128 53.3705 90.3134 61.7811 88.7062C68.8072 87.3592 72.4496 83.8721 72.9549 78.0519C73.3129 73.9144 74.1285 74.5271 74.1783 70.8281L74.8307 69.0782C75.5827 63.4699 74.9501 61.6613 79.2788 62.5027L80.3331 62.5866C83.5199 62.7167 87.6894 62.1292 90.1362 61.1116C95.4077 58.9254 98.5309 55.2746 93.3349 56.2334L93.3469 56.2209Z" fill="black"/>
<path d="M49.4066 59.6365C49.0806 69.9886 49.4861 80.4156 50.6289 82.9511C51.7718 85.4866 54.2145 90.4139 62.6178 88.8151C69.6378 87.4787 72.1918 84.8933 73.2988 79.1854C74.0938 74.9867 75.6898 63.3231 75.8906 60.9354M39.3337 7.73233C39.3337 7.73233 1.27235 -6.06909 3.06113 25.3369C3.45864 32.0149 13.8416 75.8672 26.2557 62.5987C30.7913 57.7547 34.8916 53.9556 34.8916 53.9556M59.9048 5.21352C58.5871 5.5799 81.0661 -2.08062 93.8401 12.4098C98.3518 17.5307 93.1245 38.4473 80.615 54.9257" stroke="white" stroke-width="1.369" stroke-linecap="round" stroke-linejoin="round"/>
<path d="M80.5951 54.9237C80.5951 54.9237 81.3901 58.4833 93.2557 56.3142C98.4472 55.3629 95.3228 58.985 90.0558 61.1562C85.7349 62.936 76.0476 63.3919 75.8906 60.9334C75.4831 54.5844 80.9886 56.5141 80.5911 54.9237C80.2334 53.4915 77.7688 52.0864 76.139 48.5808C74.7179 45.5208 56.6412 22.0563 81.1516 25.541C82.05 25.3745 74.7577 4.84095 51.8155 4.50789C28.8733 4.17482 29.6345 29.5503 29.6345 29.5503" stroke="white" stroke-width="1.369" stroke-linecap="round" stroke-linejoin="bevel"/>
<path d="M42.9869 57.0948C39.7869 60.2652 40.729 60.821 34.3371 61.9909C27.8696 63.1774 31.6698 65.2799 34.1503 65.8315C37.1574 66.4977 44.1138 67.4448 48.8143 61.6016C50.2454 59.8218 48.8064 56.9803 46.8407 56.2601C45.8907 55.9103 44.6206 55.4732 42.9849 57.0927L42.9869 57.0948Z" stroke="white" stroke-width="1.369" stroke-linejoin="round"/>
<path d="M42.7782 57.0407C42.4562 55.1755 43.4678 52.9606 44.553 50.3627C46.1828 46.47 49.9432 42.5731 46.9381 30.2185C44.6961 21.0113 29.6524 28.3034 29.6465 29.5524C29.6405 30.8014 30.3262 35.8806 29.3941 41.7925C28.1777 49.5113 34.9254 56.0373 42.6947 55.3712" stroke="white" stroke-width="1.369" stroke-linecap="round" stroke-linejoin="round"/>
<path d="M39.1987 29.3608C39.1311 29.7875 40.0792 30.922 41.3135 31.0761C42.5477 31.2301 43.5991 30.3392 43.6687 29.9145C43.7383 29.4899 42.7902 29.0194 41.5539 28.8654C40.3177 28.7113 39.2643 28.9361 39.1987 29.3608Z" fill="white" stroke="white" stroke-width="0.456"/>
<path d="M76.7454 28.4927C76.813 28.9194 75.8669 30.0539 74.6306 30.208C73.3944 30.362 72.341 29.4711 72.2734 29.0423C72.2058 28.6134 73.1539 28.1471 74.3882 27.9931C75.6224 27.8391 76.6738 28.0618 76.7434 28.4885L76.7454 28.4927Z" fill="white" stroke="white" stroke-width="0.228"/>
<path d="M80.9699 26C81.1985 29.3181 80.0554 31.575 79.9097 35.1099C79.6968 40.243 83.0432 46.1153 78 52" stroke="white" stroke-width="1.369" stroke-linecap="round" stroke-linejoin="round"/>
</svg>
