<svg width="53" height="63" viewBox="0 0 53 63" fill="none" xmlns="http://www.w3.org/2000/svg">
<path d="M48.7458 8.27878C42.9356 -0.0371762 31.4603 -2.5018 23.1629 2.78456L8.59197 12.0716C6.62334 13.31 4.93476 14.9454 3.63418 16.8735C2.3336 18.8016 1.44963 20.9798 1.03879 23.2689C0.343795 27.1248 0.954847 31.1024 2.77521 34.5719C1.52809 36.464 0.677562 38.5893 0.275014 40.8194C-0.140124 43.1545 -0.084791 45.5491 0.437767 47.8626C0.960325 50.1761 1.93959 52.3619 3.31812 54.292C9.12987 62.6089 20.6051 65.0725 28.901 59.7862L43.4725 50.4996C45.4412 49.2613 47.1298 47.6258 48.4303 45.6976C49.7308 43.7694 50.6146 41.5911 51.0251 39.3018C51.7199 35.446 51.1092 31.4686 49.2897 27.9989C50.5366 26.1067 51.3868 23.9814 51.7889 21.7514C52.2044 19.4163 52.1493 17.0217 51.6268 14.7081C51.1043 12.3946 50.1245 10.2087 48.7458 8.27878Z" fill="white"/>
<path d="M21.7396 55.0748C19.4466 55.6708 17.0259 55.5489 14.8044 54.7253C12.5829 53.9017 10.6676 52.4163 9.31726 50.4696C8.48805 49.309 7.89899 47.9945 7.58465 46.6032C7.2703 45.2119 7.237 43.7718 7.48669 42.3674C7.57083 41.9067 7.68702 41.4519 7.83477 41.0067L8.10923 40.1703L8.85548 40.7182C10.5796 41.9851 12.5073 42.9484 14.5555 43.5665L15.0975 43.7307L15.0474 44.2711C14.9812 45.0401 15.1895 45.8077 15.6354 46.4378C16.0418 47.0241 16.6184 47.4717 17.2872 47.7199C17.9561 47.9682 18.685 48.0053 19.3756 47.8261C19.6923 47.7414 19.9942 47.6086 20.2706 47.4325L34.8426 38.1469C35.1991 37.9223 35.505 37.6259 35.7406 37.2766C35.9763 36.9272 36.1366 36.5327 36.2114 36.118C36.2862 35.6947 36.276 35.2607 36.1813 34.8415C36.0866 34.4222 35.9094 34.0259 35.6599 33.6759C35.2532 33.0893 34.6763 32.6415 34.0071 32.3932C33.3379 32.1448 32.6086 32.1078 31.9177 32.2871C31.6016 32.3716 31.3002 32.504 31.0242 32.6797L25.4633 36.2246C24.549 36.8059 23.5511 37.244 22.5044 37.5238C20.2113 38.1201 17.7905 37.9982 15.569 37.1747C13.3474 36.3513 11.432 34.8659 10.0815 32.9191C9.25233 31.7585 8.66328 30.444 8.34893 29.0527C8.03458 27.6614 8.00128 26.2214 8.25097 24.817C8.49789 23.4406 9.02936 22.1308 9.81139 20.9714C10.5934 19.8121 11.6088 18.8287 12.7926 18.0842L27.3635 8.79714C28.2783 8.2149 29.2769 7.77627 30.3245 7.49647C32.6175 6.90024 35.0383 7.02209 37.2599 7.84556C39.4815 8.66903 41.3969 10.1544 42.7473 12.1012C43.5765 13.2618 44.1656 14.5763 44.4799 15.9675C44.7943 17.3588 44.8276 18.7989 44.5779 20.2033C44.4928 20.6641 44.3766 21.1193 44.2298 21.564L43.9554 22.401L43.2091 21.8536C41.4851 20.586 39.5572 19.6223 37.5085 19.0043L36.9671 18.84L37.0172 18.2991C37.0827 17.5303 36.8745 16.7631 36.4292 16.1329C36.0228 15.5466 35.4462 15.099 34.7774 14.8508C34.1085 14.6025 33.3796 14.5654 32.689 14.7446C32.3723 14.8292 32.0705 14.9618 31.794 15.1378L17.222 24.4244C16.8654 24.6487 16.5596 24.945 16.324 25.2942C16.0883 25.6435 15.9282 26.0381 15.8537 26.4527C15.7784 26.876 15.7883 27.3101 15.8828 27.7295C15.9773 28.1489 16.1546 28.5453 16.4041 28.8954C16.8108 29.4819 17.3876 29.9295 18.0567 30.1779C18.7259 30.4262 19.4551 30.4634 20.1459 30.2842C20.4625 30.1995 20.7643 30.0669 21.0409 29.891L26.6007 26.3476C27.5148 25.7655 28.5127 25.327 29.5597 25.0474C31.8528 24.4512 34.2736 24.573 36.4951 25.3965C38.7167 26.22 40.6321 27.7054 41.9826 29.6521C42.8118 30.8127 43.4008 32.1272 43.7152 33.5185C44.0295 34.9098 44.0628 36.3499 43.8131 37.7542C43.566 39.1308 43.0344 40.4407 42.2523 41.6002C41.4702 42.7596 40.4548 43.7432 39.271 44.488L24.7006 53.7736C23.7858 54.356 22.7872 54.7948 21.7396 55.0748Z" fill="black"/>
</svg>
