<?xml version="1.0" encoding="utf-8"?>
<!-- Uploaded to: SVG Repo, www.svgrepo.com, Generator: SVG Repo Mixer Tools -->
<svg fill="#a87be3" height="800px" width="800px" version="1.2" baseProfile="tiny" id="Layer_1" xmlns="http://www.w3.org/2000/svg" xmlns:xlink="http://www.w3.org/1999/xlink"
	  viewBox="-351 153 256 256" xml:space="preserve">
<path d="M-283.3,239.3c0,1.6-1.2,2.7-2.7,2.7s-2.7-1.1-2.7-2.7c0-1.5,1.2-2.7,2.7-2.7S-283.3,237.9-283.3,239.3z M-245.3,338.9
	c4.9,0,8.3-3.9,8.3-8.3c0-4.9-3.9-8.3-8.3-8.3c-4.7,0-8.3,3.9-8.3,8.3C-253.9,335.1-250,338.9-245.3,338.9z M-198.8,353.3
	c-2.1-0.8-4.9,0-6,2.6c-3.1,7.3-10.7,12.3-18.6,12.3c-8.1,0-15.6-4.9-19.1-12.3c-1-2.6-3.7-3.7-6-2.6c-2.6,1-3.7,3.7-2.6,6
	c4.9,11,15.6,18,27.4,18c11.5,0,22.5-7.1,27.4-18C-195.3,357.2-196.1,354.3-198.8,353.3z M-200.8,321.9c-4.9,0-8.3,3.7-8.3,8.3
	c0,4.9,3.9,8.3,8.3,8.3c4.4,0,8.3-3.7,8.3-8.3S-196.1,321.9-200.8,321.9z M-102.2,265.9v28.3h-25.2V407h-192.1V294.2h-24.3v-28.3
	H-102.2z M-172.2,346.4c0-28.1-22.8-50.9-50.9-50.9s-50.9,22.8-50.9,50.9c0,28.1,22.8,50.9,50.9,50.9S-172.2,374.5-172.2,346.4z
	 M-331.2,240.2v-53.6c0-2.6,2.1-4.7,4.7-4.7h81c2.6,0,4.7,2.1,4.7,4.7v53.5c0,2.6-2.1,4.7-4.7,4.7h-29.2v7.8h7.4
	c1.3,0,2.4,1,2.4,2.4v0.3c0,1.3-1,2.4-2.4,2.4h-37.3c-1.3,0-2.4-1-2.4-2.4V255c0-1.3,1-2.4,2.4-2.4h7.4v-7.8h-29.2
	C-329,244.9-331.2,242.8-331.2,240.2z M-283.3,239.3c0-1.5-1.2-2.7-2.7-2.7s-2.7,1.2-2.7,2.7c0,1.6,1.2,2.7,2.7,2.7
	S-283.3,240.9-283.3,239.3z M-325.2,234.6h78.6v-46.9h-78.6V234.6z M-168.2,197.9c11.6,0,21-9.4,21-21c0-11.6-9.4-21-21-21
	c-11.6,0-21,9.4-21,21C-189.3,188.4-179.9,197.9-168.2,197.9z M-202.3,234.1c0-1.6,1.1-2.7,2.7-2.7c1.6,0,2.7,1.1,2.7,2.7v24.6h57.8
	v-24.6h-0.2c0-1.6,1.1-2.7,2.7-2.7c1.6,0,2.7,1.1,2.7,2.7v24.6h18.1v-29.8c0-14.4-11.8-26.2-26.2-26.2h-52.4
	c-14.5,0-26.2,11.7-26.2,26.2v29.8h18.4L-202.3,234.1z"/>
</svg>