<svg width="117" height="117" viewBox="0 0 117 117" fill="none" xmlns="http://www.w3.org/2000/svg">
<path fill-rule="evenodd" clip-rule="evenodd" d="M44.2887 32.0196L44.1133 20.0663L51.2259 15.9006L61.7869 8.78851L66.128 8.61188L70.6452 13.4672L73.0786 29.5996L69.7796 35.4952L56.0806 35.1432L44.2887 32.0196Z" fill="white"/>
<path fill-rule="evenodd" clip-rule="evenodd" d="M30.2388 66.1917L33.8764 55.9549L40.9891 47.4626L44.6268 40.1745L46.1952 37.7533L72.199 33.7642L77.4058 41.9184L91.9704 76.7666L86.9385 82.9997L73.7547 105.042L70.6452 105.731L46.5339 106.421L29.7119 87.6923L26.9392 72.0874L30.2388 66.1917Z" fill="white"/>
<path fill-rule="evenodd" clip-rule="evenodd" d="M63.5319 39.6604C63.5319 39.6604 62.6664 39.4844 65.087 38.9569C67.521 38.4434 67.5338 37.9293 68.21 37.2258C68.9001 36.5362 69.2522 34.9672 69.2522 33.2367C69.2522 31.5062 70.1177 26.4755 69.9411 25.0964C69.7796 23.7034 66.8175 18.5106 65.6139 17.8077C64.3975 17.1182 50.8745 15.9006 50.8745 15.9006L46.7094 19.2008L43.5858 22.1349L44.2887 31.5062C44.2887 31.5062 43.4098 34.4537 43.5858 35.6573C43.7618 36.8743 45.5057 38.2674 46.1952 38.9569C46.8848 39.6604 49.4814 42.4458 50.3464 43.2974C51.2253 44.163 51.4013 45.0286 53.4699 44.3384C55.5525 43.6489 56.7695 43.6489 58.3386 42.4319C59.8937 41.2149 63.5319 39.6604 63.5319 39.6604Z" fill="#F6D330"/>
<path fill-rule="evenodd" clip-rule="evenodd" d="M55.5529 24.921C56.0804 23.528 56.7699 20.9319 57.9735 20.0663C59.1899 19.2008 61.8006 18.4845 63.3563 18.6733C64.9247 18.8493 67.8589 20.4044 68.5618 21.6208C69.2519 22.8378 69.2519 27.6925 69.2519 27.6925L68.8999 31.6816L66.4792 31.5062L61.2737 29.423H60.4082C60.4082 29.423 59.5426 29.7611 56.9326 28.382C54.3359 26.9896 55.0254 26.3134 55.5529 24.921ZM50.0087 28.7341C50.09 28.6527 50.2521 28.5447 50.4688 28.4227C51.5231 27.8412 53.8218 26.9896 53.8218 26.9896C53.8218 26.9896 56.0664 21.2833 54.1599 19.0247C52.2667 16.7668 48.1021 17.1182 48.1021 17.1182C48.1021 17.1182 43.5995 19.7149 43.7616 20.7559C43.9376 21.7974 44.113 25.4345 44.2891 25.9486C44.4517 26.4761 45.1546 32.0203 45.1546 32.0203L46.7097 31.3307L48.9683 29.5996C48.9677 29.5996 49.4946 29.2615 50.0087 28.7341Z" fill="white"/>
<path fill-rule="evenodd" clip-rule="evenodd" d="M83.1258 81.1065L85.6405 81.2959C86.006 81.3232 86.3708 81.336 86.7362 81.3499C88.602 81.4173 90.2391 81.7014 91.9835 81.9181C93.1338 82.054 95.0397 82.7842 95.1751 84.2307C95.3645 86.3679 94.7423 88.7199 96.5535 89.5995C98.4067 90.8571 102.544 93.7646 102.544 93.7646L103.761 96.0086L100.124 99.3088L82.2609 110.059L74.12 107.287V100.701L74.4581 91.8581L73.5925 83.8792L74.9722 80.7557L78.4472 79.7141L83.1258 81.1065ZM31.4696 77.2121C31.2935 77.0494 28.1293 77.9836 27.9266 78.0237C26.4528 78.2397 24.587 79.254 24.587 80.8637C24.587 81.6886 24.5196 82.5408 24.1408 83.2844C23.8434 83.8653 23.1672 84.7442 23.1806 84.9342C22.9505 85.5697 22.5317 86.462 21.9502 86.8407C21.274 86.9087 18.2719 87.1794 18.2719 87.1794H15.6619L14.1068 89.072L15.3238 94.1166L14.9717 98.0924L13.7681 102.608L16.7022 104.163L38.9063 110.059L43.937 108.504L46.5331 102.081L46.0056 99.6602L43.5856 94.8056C43.5856 94.805 33.038 79.4841 31.4696 77.2121Z" fill="#F6D330"/>
<path fill-rule="evenodd" clip-rule="evenodd" d="M42.7742 22.7838C42.4094 10.6817 47.1287 5.33964 56.9321 5.16422C66.7227 4.97484 72.8618 10.1403 74.1195 16.9155C75.3632 23.6767 74.6469 32.5878 77.1483 37.213C79.637 41.851 81.2327 45.4073 85.5192 50.7488C89.7918 56.0903 92.4559 61.5264 93.7008 68.125C94.9573 74.7107 95.6614 77.8209 92.4559 81.2146C89.2516 84.5949 83.5587 90.1124 79.2849 83.8786C77.1356 80.7551 76.9055 76.874 80.5298 76.0498C82.8418 75.5083 84.505 75.6843 86.2227 76.5766C87.9539 77.4695 88.3593 77.0495 86.2901 75.5083C84.2069 73.9666 83.7887 75.3863 84.505 72.8983C85.2224 70.4096 86.1554 65.9337 84.2076 61.0117C83.3019 58.7404 80.2324 52.52 77.3517 50.9916C77.0943 50.8429 76.338 50.5321 76.8515 51.1676C77.6224 52.1279 81.7735 58.2396 82.9499 61.8773C84.2076 65.7856 84.383 69.518 83.7347 71.884C83.0865 74.264 81.9496 75.2103 80.5839 75.2103C79.2181 75.2103 77.9744 75.8592 77.9744 72.7223C77.9744 69.5714 78.2992 64.8248 76.6087 60.8084C74.9183 56.8059 72.8624 54.0472 72.4169 52.3567C71.9841 50.6662 70.9965 46.123 68.9552 43.5402C66.8994 40.9575 66.0071 39.2671 67.0748 36.3195C68.1431 33.3854 67.3449 32.5872 65.2089 31.965C63.0723 31.3435 60.2189 30.4506 59.516 29.0175C58.7992 27.5978 59.2459 24.7443 60.8417 24.0415C62.4502 23.3246 65.1142 24.2982 65.2089 26.3541C65.3036 28.396 64.316 29.4643 64.588 29.9104C64.8581 30.3565 66.2772 31.0734 66.9947 30.2758C67.6976 29.4643 67.8876 26.9756 67.1701 24.6636C66.4526 22.351 66.1018 20.7419 63.5185 20.2144C60.9364 19.673 59.7734 19.849 58.5291 21.4581C57.2847 23.0539 56.7445 25.6366 57.1093 27.5164C57.4608 29.3823 56.7439 28.314 55.5002 28.2193C54.2559 28.138 54.6079 28.0433 53.3636 28.138C52.1193 28.2193 52.566 27.4211 52.4707 26.0827C52.3894 24.7437 52.214 21.9856 50.3342 20.9173C48.4677 19.849 45.2634 21.0933 45.3441 25.5559C45.4388 30.0051 46.9532 32.1411 47.8461 30.5319C48.7384 28.9362 48.2923 29.7344 47.4 29.0175C46.5077 28.3146 45.8856 25.3665 46.8592 24.4876C47.8461 23.5953 48.9957 23.5953 49.6313 24.1228C50.2534 24.6636 51.227 26.4488 51.051 27.5978C50.875 28.7608 50.7803 28.8421 49.6313 29.653C48.4683 30.4506 48.0221 31.1675 46.6837 32.0464C45.3447 32.9386 44.8179 34.9945 45.8862 35.522C46.9545 36.0628 47.0491 35.9681 47.9281 37.3071C48.8203 38.6461 50.3348 39.2677 54.0805 38.6461C57.8128 38.024 59.3539 37.1317 62.1807 36.1441C64.2365 35.4406 63.5191 35.522 64.2365 34.7244C64.9394 33.9268 66.1024 35.0758 65.0341 35.7927C63.9658 36.5095 61.5579 37.2124 59.774 37.8346C58.0022 38.4701 55.9469 40.2419 52.2146 40.0659C48.4689 39.8898 51.0516 39.9712 49.8886 39.8898C48.739 39.7951 48.1982 39.9712 49.4425 40.8634C50.7002 41.7563 50.6055 42.0264 51.6738 42.3779C52.7421 42.7433 54.1618 42.7433 55.8656 42.1211C57.5561 41.4856 61.8298 39.6191 63.1682 38.7268C64.4939 37.8346 65.5616 38.9976 64.2365 39.8898C62.8981 40.7821 62.5327 40.512 61.2884 41.3096C60.0447 42.1211 57.7321 43.4462 56.2177 44.8793C54.7032 46.299 54.3518 46.3937 52.472 46.475C50.6061 46.5697 49.4431 44.6091 48.6449 43.7169C47.8473 42.824 47.9281 42.2971 46.9545 41.2282C45.9809 40.1599 45.8862 40.4167 45.7101 41.5797C45.5341 42.7427 44.1957 45.6768 43.0327 47.638C41.8831 49.5986 41.7884 52.0059 41.9644 53.6963C42.1405 55.3868 41.6943 55.5622 40.3693 57.5227C39.0303 59.4833 36.799 65.2709 36.4475 67.1374C36.0955 69.0033 35.65 72.8437 35.8254 75.0616C36.0014 77.2929 35.3793 77.739 33.7701 76.2246C32.1744 74.7101 31.6329 73.0197 31.7282 70.7884C31.8096 68.8819 32.0663 67.5429 32.3097 66.84C32.5531 66.1371 32.3231 65.6503 31.8096 66.5158C30.714 68.4084 30.6599 71.6813 30.9307 72.8443C31.1874 73.9939 31.2821 76.0491 34.2169 78.8073C37.1644 81.566 41.4376 85.3931 44.9945 87.9758C48.5642 90.5585 49.8085 93.7634 44.5484 96.076C47.8479 100.539 49.6325 102.851 48.1994 105.785C51.1469 104.094 50.0112 100.106 48.5915 99.0369C47.1578 97.9686 48.0234 97.1443 49.2677 97.9558C50.512 98.7534 50.9581 100.349 55.8668 100.268C60.7615 100.174 66.0356 99.687 68.9844 95.3998C71.9185 91.1266 72.4867 94.7236 71.7692 97.2256C71.0663 99.7137 69.3079 105.339 72.0666 104.812C72.4187 101.512 73.2296 98.6587 73.2296 95.1024C73.2296 91.5321 73.5817 89.815 73.3116 84.6495C73.0402 79.6728 75.1908 79.3348 77.4087 79.3348C79.64 79.3348 78.9225 80.7678 77.5034 80.6732C76.0703 80.5791 74.568 81.1199 74.4745 84.7709C74.3799 88.4219 74.4746 88.0705 75.0955 91.3567C75.7177 94.6563 75.813 95.6299 75.2721 99.2809C74.7447 102.933 74.2979 104.892 76.7052 107.124C79.0986 109.356 82.749 108.72 84.6294 107.3C86.4953 105.88 90.0522 102.581 93.2565 101.512C96.4753 100.444 99.8562 99.6463 101.64 97.8611C103.413 96.0766 102.966 94.8323 101.099 93.8581C99.2335 92.8711 97.4477 93.3173 96.0286 91.7215C94.5943 90.1124 93.8914 86.5554 94.4189 84.6762C94.9597 82.8103 95.5819 83.6079 95.5819 84.9469C95.5819 86.2853 95.6638 87.5297 97.0022 89.2195C98.3406 90.91 99.5843 91.7215 101.722 93.0465C103.858 94.3855 105.196 96.5221 102.519 98.4014C99.855 100.267 98.34 101.336 96.1087 102.228C93.8908 103.121 90.2404 105.257 88.0079 107.476C85.7766 109.707 84.5329 111.668 80.1656 111.668C75.8111 111.668 73.8099 110.613 72.5122 108.016C71.6193 106.231 71.1726 106.502 69.1313 106.407C67.0754 106.326 60.2195 106.231 54.8786 106.326C49.5372 106.407 47.7526 107.3 45.3453 109.26C42.952 111.221 42.0591 112.736 37.5158 111.221C32.9726 109.706 30.5653 108.016 23.8041 106.678C17.0289 105.339 20.6805 105.961 16.5828 105.068C12.4856 104.19 12.7557 102.228 13.2971 100.62C13.8246 99.0241 15.163 96.5221 14 93.2365C12.8504 89.9364 13.2971 86.5561 16.4067 86.5561C19.5303 86.5561 22.465 87.1782 23.7088 83.0804C24.9531 78.9833 25.3179 82.1882 24.9531 83.2565C24.6016 84.3248 24.4256 87.2589 21.6669 87.7057C18.9081 88.1512 18.2866 87.5297 16.5821 87.5297C14.8923 87.5297 14.1888 88.6926 15.0677 90.6532C15.96 92.6132 16.9469 94.6557 16.7715 96.3461C16.5821 98.036 16.4061 98.6587 15.1624 100.267C13.9181 101.863 14.0941 102.675 16.3254 103.202C18.5427 103.743 22.5591 104.811 26.2915 105.704C30.0372 106.582 30.3079 106.582 36.7984 108.287C43.3028 109.977 45.088 106.948 45.6155 103.297C46.1563 99.6451 43.6549 96.1701 41.3423 92.6945C39.0297 89.2189 36.5404 85.2183 33.511 81.5666C30.4821 77.9156 28.697 77.6449 27.1825 78.4431C25.6675 79.2546 25.3974 79.0786 25.3161 77.0234C25.2214 74.9815 25.0453 73.6431 26.7358 70.6136C28.4262 67.5847 29.9407 64.2846 31.7258 59.2138C33.5104 54.1431 35.1061 53.1561 38.1356 48.7882C41.165 44.4343 39.826 46.1242 41.9626 43.19C44.0992 40.2425 43.477 40.7827 43.3016 36.1447C43.1256 31.5195 42.9502 28.8421 42.7742 22.7838ZM34.2685 58.9971C34.7286 59.5519 35.3774 58.2402 36.0536 57.74C36.3452 57.477 36.5652 57.1441 36.6929 56.7727C36.8207 56.4014 36.8519 56.0036 36.7838 55.6168C36.7164 55.198 36.0397 55.3327 35.9049 55.4815C35.4861 55.9003 35.5802 56.5771 35.2827 57.1586C34.9447 57.8614 33.809 58.4296 34.2685 58.9971ZM72.551 40.39C73.5113 41.2015 74.1061 41.905 74.633 40.7014C75.175 39.4977 75.175 39.0109 73.8767 38.5241C72.5917 38.0234 72.0108 37.4965 71.4287 36.8337C70.8478 36.1575 70.6451 37.3071 71.1179 38.4294C71.6988 39.8091 72.0369 39.9712 72.551 40.39ZM52.4835 29.3423C51.8207 29.2069 51.0231 29.2609 50.5763 29.7884C50.4003 29.9644 50.4816 30.4646 50.7924 30.5999C51.1979 30.776 51.4686 30.3705 51.5499 30.0591C51.5906 29.9237 51.6446 29.7483 51.78 29.7077C51.956 29.613 52.2128 29.6943 52.4021 29.613C52.6188 29.5316 52.5375 29.3423 52.4835 29.3423ZM55.6343 29.4643C55.9051 29.8697 56.3919 29.8697 56.7973 30.0458C57.0134 30.1404 57.4602 30.2758 57.5949 29.9644C57.9063 28.9775 56.5673 29.2882 55.9451 29.2882C55.8104 29.2882 55.499 29.2482 55.6343 29.4643ZM62.126 25.1504C62.7342 25.1771 63.5591 26.2594 63.6399 27.5171C63.6526 27.7064 64.1673 27.6925 64.2754 27.5037C64.5601 27.0035 64.3573 26.4488 64.222 25.8539C64.1127 25.3671 63.5318 24.867 63.045 24.6503C62.7203 24.4876 62.3822 24.4342 61.9494 24.4876C61.8414 24.5422 61.4632 25.1098 62.126 25.1504ZM48.8598 24.8396C48.305 24.8797 48.5083 25.3125 48.535 25.6639C49.3059 26.0967 49.3733 27.0703 49.5354 27.8412C49.5487 28.1386 49.9948 28.0039 50.0355 27.9092C50.3736 27.287 49.9542 26.5841 49.8061 25.8539C49.6707 25.4752 49.414 25.0424 49.0619 24.7856C49.0085 24.7316 48.9132 24.8396 48.8598 24.8396ZM65.8705 11.1952C65.3158 10.7491 64.4502 10.5731 64.194 11.3033C63.9239 11.9254 64.0314 12.5609 63.8821 13.2371C63.8821 13.4532 63.6119 13.5072 63.4638 13.71C63.2471 13.9667 63.3012 14.2915 63.4092 14.3861C63.9239 14.9136 64.8696 13.872 65.5598 13.5072C66.0733 13.1825 66.8162 13.6019 67.3856 13.2371C67.547 13.1291 67.6011 12.8717 67.439 12.669C67.0742 12.0335 66.4387 11.6687 65.8705 11.1952Z" fill="black"/>
<path fill-rule="evenodd" clip-rule="evenodd" d="M81.9083 81.9994C81.9902 81.634 82.1784 80.9178 82.5305 80.8097C82.6525 80.7691 82.7605 80.8231 82.8006 80.9451C82.8813 81.1745 82.6379 82.4868 82.7332 82.7843C82.8412 83.095 83.206 83.0544 83.4634 82.9736C84.0716 82.7703 84.4237 82.0541 84.3963 81.9867C84.3963 81.9594 84.3824 81.9594 84.3563 81.9594C84.2616 81.9867 84.1796 82.3248 83.9095 82.4049C83.7341 82.4595 83.5988 82.4322 83.5441 82.2568C83.4907 82.0674 83.7208 80.7151 83.6115 80.4037C83.518 80.0929 83.206 80.0116 82.9086 80.1062C82.2458 80.3229 81.9623 81.3366 81.7869 81.9321H81.7729L81.8676 80.539L81.0427 80.8097L81.0027 83.6899L81.7735 83.4325C81.7875 82.9324 81.8136 82.3642 81.9083 81.9994ZM85.4792 82.3102C86.1408 82.0941 86.4382 81.3099 86.4109 81.2146C86.3982 81.1879 86.3848 81.1739 86.3575 81.1739C86.3029 81.2012 86.1821 81.6474 85.8027 81.7688C85.64 81.8234 85.4919 81.7821 85.4519 81.6747C85.3973 81.512 85.4379 81.2286 85.4379 80.9846L85.4652 79.6862L86.3709 79.3888L86.3581 79.0774L85.4525 79.3748L85.4926 78.1445L84.6816 78.6046L84.6403 81.3494C84.6403 81.6468 84.6142 81.9035 84.6677 82.0395C84.7751 82.3915 85.1405 82.4322 85.4792 82.3102Z" fill="black"/>
</svg>
