<svg width="161" height="60" viewBox="0 0 161 60" fill="none" xmlns="http://www.w3.org/2000/svg">
<path d="M140.304 24.1939C139.959 24.1939 139.624 24.2651 139.327 24.4331L129.936 29.8565C129.328 30.2065 128.958 30.868 128.958 31.5714V42.3988C128.958 43.1019 129.328 43.7623 129.936 44.1134L132.388 45.5267C133.58 46.1143 134.019 46.1048 134.562 46.1048C136.326 46.1048 137.333 45.0343 137.333 43.1736V32.4917C137.333 32.3407 137.202 32.2326 137.054 32.2326H135.878C135.727 32.2326 135.598 32.3434 135.598 32.4917V43.1792C135.598 44.0039 134.739 44.8336 133.345 44.1364L130.796 42.641C130.706 42.5919 130.636 42.5024 130.636 42.4018V31.5744C130.636 31.4719 130.705 31.3671 130.796 31.3153L140.168 25.9113C140.255 25.8608 140.36 25.8608 140.447 25.9113L149.818 31.3153C149.907 31.3688 149.978 31.4685 149.978 31.5744V42.4018C149.978 42.5052 149.926 42.6111 149.838 42.661L140.447 48.065C140.364 48.1129 140.253 48.1129 140.168 48.065L137.755 46.6294C137.683 46.5873 137.585 46.5906 137.516 46.6294C136.85 47.0069 136.725 47.0507 136.1 47.2674C135.947 47.3209 135.712 47.4043 136.18 47.6665L139.331 49.5232C139.63 49.6967 139.965 49.7823 140.308 49.7823C140.656 49.7823 140.985 49.6992 141.285 49.5232L150.676 44.1192C151.284 43.7656 151.653 43.1077 151.653 42.4046V31.5772C151.653 30.8738 151.284 30.2137 150.676 29.8623L141.285 24.4389C140.991 24.271 140.653 24.1997 140.308 24.1997L140.304 24.1939ZM142.817 31.9308C140.142 31.9308 138.55 33.069 138.55 34.9615C138.55 37.0122 140.13 37.5787 142.697 37.8325C145.768 38.1332 146.007 38.5841 146.007 39.1885C146.007 40.2369 145.171 40.6839 143.196 40.6839C140.714 40.6839 140.168 40.0643 139.985 38.8272C139.964 38.6947 139.862 38.588 139.726 38.588H138.507C138.433 38.5896 138.363 38.6195 138.311 38.6715C138.259 38.7235 138.23 38.7936 138.228 38.8671C138.228 40.4475 139.088 42.3165 143.193 42.3165C146.165 42.3165 147.879 41.1525 147.879 39.1062C147.879 37.0832 146.494 36.5364 143.612 36.1548C140.702 35.7668 140.421 35.5811 140.421 34.8986C140.421 34.3354 140.657 33.5822 142.814 33.5822C144.741 33.5822 145.453 33.9979 145.745 35.2971C145.771 35.419 145.878 35.5188 146.004 35.5188H147.224C147.299 35.5188 147.371 35.4728 147.423 35.419C147.474 35.3617 147.51 35.2971 147.503 35.2195C147.315 32.9819 145.823 31.9294 142.817 31.9294L142.817 31.9308Z" fill="white"/>
<path d="M85.0917 10.0002C84.9868 10.0004 84.8837 10.0279 84.7927 10.08C84.7021 10.133 84.6269 10.2087 84.5744 10.2996C84.522 10.3905 84.4942 10.4935 84.4937 10.5985V25.8522C84.4937 26.0019 84.4238 26.136 84.2941 26.2111C84.2306 26.2482 84.1583 26.2677 84.0848 26.2677C84.0112 26.2677 83.9389 26.2482 83.8754 26.2111L81.3829 24.7756C81.2011 24.6704 80.9948 24.615 80.7847 24.615C80.5747 24.615 80.3683 24.6704 80.1865 24.7756L70.237 30.518C69.8651 30.7325 69.6384 31.1454 69.6384 31.5747V43.0597C69.6381 43.2699 69.6933 43.4764 69.7984 43.6585C69.9034 43.8405 70.0546 43.9916 70.2368 44.0965L80.1865 49.8391C80.3682 49.9446 80.5746 50.0001 80.7847 50.0001C80.9948 50.0001 81.2012 49.9446 81.3829 49.8391L91.3326 44.0965C91.5148 43.9916 91.666 43.8405 91.771 43.6585C91.8761 43.4764 91.9313 43.2699 91.931 43.0597V14.4268C91.931 13.9911 91.6932 13.5823 91.313 13.3701L85.391 10.0598C85.2979 10.0079 85.1948 9.99907 85.0917 10.0002ZM21.086 24.3366C20.8962 24.3444 20.718 24.3774 20.5475 24.4763L10.598 30.2187C10.4158 30.3234 10.2645 30.4744 10.1594 30.6565C10.0544 30.8386 9.9994 31.0452 10 31.2554L10.0202 46.6691C10.0202 46.8836 10.1311 47.0825 10.3195 47.1873C10.5044 47.2981 10.7336 47.2981 10.9176 47.1873L16.8196 43.7974C17.1937 43.5757 17.4376 43.1889 17.4376 42.761V35.5626C17.4376 35.133 17.6635 34.7395 18.0362 34.5261L20.5486 33.0706C20.7302 32.965 20.9367 32.9099 21.1467 32.911C21.3568 32.9097 21.5634 32.9649 21.745 33.0706L24.2564 34.5253C24.6285 34.7387 24.8544 35.1327 24.8544 35.5617V42.7599C24.8544 43.1883 25.1038 43.5774 25.4724 43.7963L31.3744 47.1862C31.5601 47.297 31.7887 47.297 31.9725 47.1862C32.1554 47.0809 32.2718 46.8822 32.2718 46.6679L32.2917 31.2549C32.2929 31.0446 32.2381 30.8377 32.133 30.6555C32.028 30.4734 31.8763 30.3224 31.6937 30.2181L21.7442 24.476C21.576 24.3774 21.3969 24.3441 21.2057 24.3363H21.0865L21.086 24.3366ZM110.494 24.4763C110.284 24.4757 110.078 24.5308 109.896 24.6359L99.9464 30.3786C99.575 30.5934 99.3478 30.986 99.3478 31.415V42.9001C99.3478 43.3319 99.5911 43.7232 99.9658 43.9366L109.836 49.5623C110.2 49.7701 110.645 49.7859 111.012 49.5817L116.994 46.2517C117.184 46.1464 117.312 45.9496 117.313 45.7335C117.313 45.5173 117.201 45.3228 117.013 45.2152L107.003 39.4726C106.816 39.3656 106.685 39.1492 106.685 38.9341V35.3428C106.685 35.1283 106.818 34.9315 107.003 34.8246L110.114 33.0299C110.299 32.9229 110.526 32.9229 110.713 33.0299L113.824 34.8246C113.916 34.8769 113.991 34.9524 114.044 35.0434C114.096 35.1344 114.124 35.2377 114.123 35.3428V38.1742C114.123 38.2793 114.151 38.3826 114.203 38.4736C114.256 38.5646 114.331 38.6401 114.422 38.6925C114.609 38.8 114.835 38.8005 115.021 38.6925L120.983 35.2236C121.353 35.0086 121.581 34.6148 121.581 34.1872V31.4159C121.581 31.2058 121.526 30.9993 121.421 30.8174C121.316 30.6354 121.165 30.4842 120.983 30.3791L111.093 24.6365C110.911 24.5312 110.705 24.4761 110.495 24.4768L110.494 24.4763ZM80.7447 33.0507C80.8003 33.0504 80.8552 33.064 80.9043 33.0903L84.3138 35.0643C84.4064 35.1178 84.4734 35.2167 84.4734 35.3234V39.2714C84.4734 39.3786 84.4069 39.4773 84.3138 39.5305L80.9043 41.5045C80.8114 41.5571 80.6981 41.5571 80.605 41.5045L77.1955 39.5305C77.1026 39.477 77.0359 39.3781 77.0359 39.2714V35.3228C77.0359 35.2159 77.1029 35.1178 77.1955 35.0637L80.605 33.09C80.6516 33.0631 80.6926 33.0507 80.7447 33.0507Z" fill="black"/>
<path d="M50.9755 24.4162C50.7654 24.4158 50.5589 24.4709 50.3769 24.5758L40.4271 30.2985C40.0552 30.513 39.829 30.9262 39.829 31.3552V42.8403C39.8285 43.0504 39.8835 43.257 39.9885 43.439C40.0936 43.621 40.2449 43.7721 40.4271 43.8767L50.3769 49.6194C50.5586 49.7249 50.7649 49.7804 50.975 49.7804C51.1851 49.7804 51.3915 49.7249 51.5732 49.6194L61.523 43.8767C61.7051 43.7718 61.8563 43.6208 61.9614 43.4387C62.0664 43.2567 62.1216 43.0502 62.1213 42.84V31.3549C62.1213 30.9254 61.8952 30.5125 61.5227 30.2982L51.5729 24.5755C51.3911 24.4701 51.1845 24.415 50.9743 24.4159L50.9755 24.4162ZM110.475 34.6652C110.435 34.6652 110.391 34.6652 110.355 34.6846L108.441 35.8015C108.406 35.8213 108.376 35.8501 108.355 35.8851C108.334 35.9201 108.322 35.9599 108.321 36.0007V38.1942C108.321 38.2768 108.369 38.3522 108.441 38.3937L110.355 39.4903C110.388 39.5107 110.426 39.5215 110.465 39.5215C110.503 39.5215 110.541 39.5107 110.574 39.4903L112.488 38.3937C112.559 38.353 112.608 38.2768 112.608 38.1942V36.0007C112.608 35.9181 112.56 35.8428 112.488 35.8012L110.574 34.6844C110.539 34.6633 110.514 34.665 110.474 34.665L110.475 34.6652Z" fill="white"/>
</svg>
