<svg width="233" height="215" viewBox="0 0 233 215" fill="none" xmlns="http://www.w3.org/2000/svg">
<path d="M141.5 2.21938C151.5 1.38605 174.5 2.51938 186.5 13.7194C201.5 27.7194 195 43.2194 201.5 59.2194C208 75.2194 226.5 88.2194 230.5 106.719C234.5 125.219 199 190.719 163.5 207.219C128 223.719 119 197.719 97.5 191.719C76 185.719 85 211.719 47 200.219C16.6 191.019 5 126.053 3 94.7194C7.66667 84.0527 19.8 62.0194 31 59.2194C45 55.7194 39 26.7194 66 22.7194C81.9305 11.9194 96.3044 15.5527 101.5 18.7194C112.833 12.386 136.7 0.219401 141.5 2.21938Z" fill="#F9F9F9"/>
<path d="M85.6643 172.516C77.9976 172.683 64.9643 169.816 74.1643 157.016C85.6643 141.016 92.1643 170.016 85.6643 172.516Z" fill="#F9F9F9" fill-opacity="0.6"/>
<path d="M141.5 2.21938C151.5 1.38605 174.5 2.51938 186.5 13.7194C201.5 27.7194 195 43.2194 201.5 59.2194C208 75.2194 226.5 88.2194 230.5 106.719C234.5 125.219 199 190.719 163.5 207.219C128 223.719 119 197.719 97.5 191.719C76 185.719 85 211.719 47 200.219C16.6 191.019 5 126.053 3 94.7194C7.66667 84.0527 19.8 62.0194 31 59.2194C45 55.7194 39 26.7194 66 22.7194M141.5 2.21938C139.833 16.0527 132.2 42.2194 115 36.2194C70.5 25.2194 93 18.7194 66 22.7194M141.5 2.21938C136.7 0.219401 112.833 12.386 101.5 18.7194C96.3044 15.5527 81.9305 11.9194 66 22.7194M53 122.719L46 110.719M53 99.2194L62.5 118.719M68.5 105.719L62.5 88.7194M75.5 92.7194L72.5 83.2194M145.5 157.611C142.552 157.887 139.834 158.379 137.5 159.219C127.5 162.819 127.333 171.719 128.5 175.719V176.719C128.5 177.886 131.6 181.719 144 187.719C159.5 195.219 165 188.219 180.5 180.219C196 172.219 195.5 150.219 184.5 155.219C181.333 156.659 177.13 157.228 172.452 157.416M145.5 157.611L146 175.219M145.5 157.611C147.877 157.388 150.404 157.305 153 157.292M145.5 157.611L153 157.292M153 157.292C155.949 157.277 158.988 157.353 162 157.416M153 176.719C152.667 174.886 152.2 170.519 153 167.719C153.8 164.919 153.333 159.814 153 157.611L162 157.416M162 157.416C162.333 158.351 162.8 160.919 162 163.719C161.2 166.519 162.333 168.553 163 169.219M162 157.416C165.59 157.491 169.14 157.549 172.452 157.416M172.5 164.719C172.167 163.719 171.7 161.619 172.5 161.219C173.3 160.819 172.802 158.517 172.452 157.416M147.5 144.719L146 136.719L142 129.719M154 135.719L152.5 129.719M152.5 129.719L151 125.719L149 120.219L152.5 129.719ZM162 130.719L161 125.719M161 125.719V120.219L160.5 116.219L161 125.719ZM198.5 126.219C201.108 128.952 205.771 133.998 208.309 137.219M208.309 137.219C209.177 138.321 209.796 139.21 210 139.719C210.8 141.719 209.206 138.886 208.309 137.219ZM203.382 145.719C203.835 146.379 204.064 146.897 204 147.219M203.382 145.719L204 147.219M203.382 145.719C203.317 145.625 203.247 145.527 203.173 145.426M203.382 145.719L203.239 145.568M204 147.219L203.239 145.568M203.173 145.426L203.239 145.568M203.173 145.426C202.008 143.845 199.752 141.575 197.212 139.219M203.239 145.568L197.212 139.219M188 131.219C190.483 133.251 194.065 136.3 197.212 139.219M190.664 147.516C186.498 143.849 177.864 136.616 176.664 137.016M37.5 128.719C36.1667 111.886 39.6 77.5194 64 74.7194C88.4 71.9194 98.1667 81.2194 100 86.2194C98.1667 102.386 91.8 135.119 81 136.719C67.5 138.719 79.5 139.719 64 141.219C51.6 142.419 41.1667 133.386 37.5 128.719ZM146.5 99.2194C139.5 87.5527 132.7 62.7194 161.5 56.7194C190.3 50.7194 190.5 76.886 187 90.7194C184 96.886 171.7 107.219 146.5 99.2194ZM103 56.7194C106 54.0527 113 50.5194 117 57.7194C122 66.7194 111 67.2194 109.5 67.2194C108 67.2194 98.5 63.7194 103 56.7194ZM172.5 36.2194C165.5 38.0527 153.1 37.9194 159.5 22.7194C167.5 3.71936 182.5 31.2194 172.5 36.2194ZM85.6643 172.516C77.9976 172.683 64.9643 169.816 74.1643 157.016C85.6643 141.016 92.1643 170.016 85.6643 172.516Z" stroke="black" stroke-width="4"/>
</svg>
