<svg width="112" height="123" viewBox="0 0 112 123" fill="none" xmlns="http://www.w3.org/2000/svg">
<g clip-path="url(#clip0_102_24)">
<path d="M111.502 36.4114C111.501 34.3635 111.053 32.554 110.145 31.0014C109.254 29.4738 107.919 28.1938 106.129 27.1817C91.3495 18.8637 76.5559 10.571 61.7814 2.2445C57.7983 -5.09843e-05 53.9364 0.0822013 49.9828 2.35897C44.1002 5.74488 14.6481 22.2152 5.87179 27.1771C2.25744 29.2198 0.498703 32.3454 0.497834 36.4075C0.492188 53.1357 0.497834 69.8638 0.492188 86.5919C0.492188 88.5948 0.922643 90.3696 1.79007 91.8989C2.68182 93.4723 4.0353 94.7875 5.86701 95.8224C14.6438 100.784 44.0998 117.253 49.9811 120.64C53.9364 122.919 57.7983 123 61.7828 120.755C76.5577 112.428 91.3521 104.135 106.134 95.8173C107.965 94.7828 109.319 93.4668 110.21 91.8946C111.077 90.3649 111.508 88.5906 111.508 86.5873C111.508 86.5873 111.508 53.1399 111.502 36.4114Z" fill="#303030"/>
<path d="M56.1699 61.3368L1.79004 91.899C2.68179 93.4724 4.03527 94.7875 5.86698 95.8225C14.6438 100.784 44.0997 117.253 49.981 120.641C53.9364 122.919 57.7983 123 61.7827 120.755C76.5576 112.428 91.3521 104.135 106.133 95.8174C107.965 94.7829 109.319 93.4668 110.21 91.8947L56.1699 61.3368Z" fill="black"/>
<path d="M111.502 36.4114C111.501 34.3636 111.053 32.554 110.145 31.0014L56.1699 61.3372L110.211 91.8947C111.077 90.365 111.507 88.5906 111.508 86.5873C111.508 86.5873 111.508 53.1399 111.502 36.4114Z" fill="black"/>
<path d="M88.1867 49.9118V55.6245H94.0393V49.9118H96.9656V55.6245H102.818V58.4809H96.9656V64.1931H102.818V67.0495H96.9656V72.7622H94.0393V67.0495H88.1867V72.7622H85.2604V67.0495H79.4082V64.1931H85.2604V58.4809H79.4082V55.6245H85.2604V49.9118H88.1867ZM94.0393 58.4804H88.1867V64.1931H94.0393V58.4804Z" fill="white"/>
<path d="M56.2892 21.2219C71.5545 21.2219 84.8821 29.314 92.0209 41.3423L91.9514 41.2266L73.9904 51.3207C70.4521 45.4727 63.9653 41.5259 56.5234 41.4445L56.2888 41.4432C44.941 41.4432 35.7412 50.4231 35.7412 61.4996C35.7375 64.9908 36.6719 68.4219 38.4512 71.4504C41.993 77.4858 48.6514 81.5564 56.2892 81.5564C63.9744 81.5564 70.6706 77.434 74.1942 71.3342L74.1086 71.4805L92.0422 81.6213C84.9816 93.5478 71.8364 101.615 56.7488 101.776L56.2892 101.778C40.9757 101.778 27.6103 93.636 20.4893 81.5441C17.0131 75.641 15.0242 68.7976 15.0242 61.4996C15.0242 39.2551 33.4986 21.2215 56.2888 21.2215L56.2892 21.2219Z" fill="white"/>
</g>
<defs>
<clipPath id="clip0_102_24">
<rect width="112" height="123" fill="white"/>
</clipPath>
</defs>
</svg>
