<svg width="79" height="64" viewBox="0 0 79 64" fill="none" xmlns="http://www.w3.org/2000/svg">
<mask id="mask0_25_16" style="mask-type:luminance" maskUnits="userSpaceOnUse" x="4" y="13" width="71" height="37">
<path d="M4.23215 31.3585C4.23215 41.1133 20.0225 49.0214 39.5 49.0214C58.9776 49.0214 74.7679 41.1133 74.7679 31.3585C74.7679 21.6037 58.9776 13.6956 39.5 13.6956C20.0225 13.6956 4.23215 21.6038 4.23215 31.3585Z" fill="white"/>
</mask>
<g mask="url(#mask0_25_16)">
<path d="M4.23215 31.3585C4.23215 41.1133 20.0225 49.0214 39.5 49.0214C58.9776 49.0214 74.7679 41.1133 74.7679 31.3585C74.7679 21.6037 58.9776 13.6956 39.5 13.6956C20.0225 13.6956 4.23215 21.6038 4.23215 31.3585Z" fill="white"/>
</g>
<mask id="mask1_25_16" style="mask-type:luminance" maskUnits="userSpaceOnUse" x="2" y="11" width="75" height="41">
<path d="M2.76266 11.6844H76.2374V51.0325H2.76266V11.6844Z" fill="white"/>
</mask>
<g mask="url(#mask1_25_16)">
<path d="M39.5 47.7098C58.217 47.7098 73.3903 40.3891 73.3903 31.3585C73.3903 22.3279 58.217 15.0072 39.5 15.0072C20.7831 15.0072 5.6098 22.3279 5.6098 31.3585C5.6098 40.3891 20.7831 47.7098 39.5 47.7098Z" fill="black"/>
</g>
<mask id="mask2_25_16" style="mask-type:luminance" maskUnits="userSpaceOnUse" x="2" y="11" width="75" height="41">
<path d="M2.76266 11.6844H76.2374V51.0325H2.76266V11.6844Z" fill="white"/>
</mask>
<g mask="url(#mask2_25_16)">
<path d="M23.3935 33.3857C24.9325 33.3857 26.0815 33.1155 26.8083 32.583C27.5275 32.0559 28.0242 31.1424 28.2846 29.8683C28.5273 28.6774 28.4348 27.8459 28.0098 27.3972C27.5752 26.9388 26.6356 26.7064 25.2171 26.7064H22.7578L21.3941 33.3859H23.3934L23.3935 33.3857ZM15.349 41.6136C15.2349 41.6136 15.1265 41.565 15.0539 41.481C15.018 41.4395 14.9922 41.391 14.9783 41.339C14.9644 41.2869 14.9628 41.2326 14.9735 41.1798L18.587 23.4792C18.604 23.3962 18.6508 23.3214 18.7193 23.2677C18.7878 23.2139 18.8739 23.1845 18.9627 23.1845H26.7508C29.1984 23.1845 31.0202 23.816 32.1653 25.0653C33.3166 26.3198 33.6721 28.0737 33.2219 30.2777C33.0387 31.1757 32.7237 32.0095 32.2856 32.7564C31.8468 33.5039 31.2672 34.1955 30.5623 34.8125C29.7183 35.5645 28.7632 36.1097 27.7258 36.4306C26.705 36.7472 25.394 36.9079 23.8291 36.9079H20.6756L19.775 41.319C19.7581 41.402 19.7113 41.4768 19.6428 41.5306C19.5743 41.5844 19.4883 41.6138 19.3995 41.6139H15.349V41.6136Z" fill="black"/>
<path d="M23.0733 27.0706H25.2174C26.9292 27.0706 27.524 27.4283 27.7261 27.6414C28.0613 27.9953 28.1246 28.7415 27.9091 29.7991C27.667 30.9832 27.2183 31.8228 26.5751 32.2942C25.9166 32.7768 24.8462 33.0214 23.3938 33.0214H21.8584L23.0733 27.0706ZM26.7509 22.8201H18.9628C18.7852 22.8201 18.6131 22.8789 18.4761 22.9865C18.339 23.0941 18.2455 23.2437 18.2116 23.4097L14.5981 41.1105C14.5766 41.216 14.5798 41.3247 14.6076 41.4288C14.6354 41.533 14.687 41.63 14.7588 41.7129C14.8306 41.7958 14.9208 41.8626 15.0229 41.9084C15.125 41.9543 15.2364 41.9781 15.3493 41.9781H19.3993C19.577 41.9781 19.7491 41.9193 19.8862 41.8117C20.0233 41.7041 20.1168 41.5545 20.1507 41.3885L20.991 37.2721H23.8292C25.4342 37.2721 26.7853 37.1055 27.8448 36.777C28.9342 36.44 29.9368 35.8686 30.8239 35.0787C31.5576 34.436 32.1633 33.7146 32.6199 32.9343C33.0766 32.1541 33.407 31.2834 33.5981 30.3473C34.072 28.0272 33.687 26.1694 32.4538 24.8257C31.2328 23.4949 29.3141 22.8202 26.7511 22.8202M20.9302 33.7502H23.3938C25.0265 33.7502 26.2429 33.4575 27.042 32.8717C27.841 32.2858 28.3803 31.3081 28.6605 29.9379C28.9283 28.6224 28.8064 27.6941 28.2944 27.1532C27.7823 26.6123 26.756 26.342 25.2176 26.342H22.4427L20.9303 33.7501M26.7513 23.5487C29.0942 23.5487 30.8033 24.1341 31.8777 25.3048C32.952 26.4755 33.2753 28.1099 32.8467 30.2081C32.6703 31.0725 32.372 31.8627 31.9519 32.5788C31.5318 33.2948 30.9822 33.9502 30.3036 34.5442C29.4948 35.2647 28.5964 35.7781 27.6078 36.0841C26.6192 36.3908 25.3602 36.5434 23.8295 36.5434H20.3604L19.3998 41.2494H15.3498L18.9628 23.5487H26.751" fill="white"/>
<path d="M42.5083 36.9077C42.394 36.9077 42.2857 36.8591 42.2131 36.775C42.1405 36.691 42.1108 36.5807 42.1328 36.4739L43.7311 28.6419C43.8831 27.8971 43.8456 27.3625 43.6256 27.1366C43.4909 26.9985 43.0863 26.7669 41.8899 26.7669H38.994L36.9843 36.6127C36.9674 36.6957 36.9206 36.7705 36.8521 36.8243C36.7835 36.8781 36.6975 36.9075 36.6086 36.9075H32.5905C32.534 36.9075 32.4783 36.8956 32.4273 36.8727C32.3762 36.8498 32.3311 36.8164 32.2952 36.775C32.2593 36.7335 32.2335 36.685 32.2196 36.6329C32.2057 36.5808 32.2041 36.5265 32.2148 36.4737L35.8283 18.7732C35.8453 18.6902 35.8921 18.6154 35.9606 18.5616C36.0291 18.5078 36.1152 18.4784 36.204 18.4784H40.2222C40.2786 18.4784 40.3343 18.4903 40.3854 18.5132C40.4364 18.5361 40.4815 18.5695 40.5174 18.611C40.5533 18.6524 40.5792 18.7009 40.5931 18.753C40.607 18.8051 40.6086 18.8595 40.5978 18.9122L39.7258 23.1844H42.8411C45.2144 23.1844 46.8235 23.5827 47.7611 24.4022C48.7178 25.2383 49.0146 26.5749 48.6473 28.3759L46.966 36.6129C46.9491 36.6959 46.9023 36.7708 46.8338 36.8246C46.7653 36.8784 46.6792 36.9078 46.5904 36.9078H42.5084L42.5083 36.9077Z" fill="black"/>
<path d="M40.222 18.1141H36.2039C36.0262 18.1141 35.8541 18.1729 35.717 18.2805C35.5799 18.388 35.4864 18.5377 35.4525 18.7037L31.839 36.4042C31.8175 36.5097 31.8207 36.6185 31.8485 36.7226C31.8763 36.8268 31.928 36.9238 31.9998 37.0067C32.0716 37.0896 32.1618 37.1564 32.2639 37.2022C32.366 37.2481 32.4774 37.2719 32.5903 37.2719H36.6085C36.7861 37.2719 36.9582 37.213 37.0953 37.1055C37.2324 36.9979 37.3259 36.8483 37.3598 36.6822L39.3093 27.1312H41.8898C43.0842 27.1312 43.3349 27.3741 43.3449 27.3845C43.4174 27.4586 43.5127 27.8023 43.3554 28.5723L41.7571 36.4042C41.7355 36.5097 41.7388 36.6185 41.7666 36.7226C41.7944 36.8268 41.846 36.9238 41.9178 37.0067C41.9897 37.0896 42.0798 37.1564 42.1819 37.2022C42.284 37.2481 42.3955 37.2719 42.5084 37.2719H46.5903C46.768 37.2719 46.9401 37.213 47.0772 37.1055C47.2142 36.9979 47.3077 36.8483 47.3417 36.6822L49.0229 28.4452C49.4174 26.5118 49.0799 25.0613 48.0203 24.134C47.009 23.2498 45.315 22.8199 42.8413 22.8199H40.1901L40.9737 18.9817C40.9953 18.8762 40.992 18.7674 40.9642 18.6632C40.9364 18.5591 40.8848 18.462 40.813 18.3791C40.7412 18.2962 40.651 18.2294 40.5489 18.1836C40.4468 18.1377 40.3353 18.1139 40.2224 18.1139M40.2224 18.8426L39.2619 23.5486H42.8415C45.0938 23.5486 46.6473 23.9229 47.5025 24.6705C48.3577 25.4181 48.6136 26.6306 48.2719 28.3063L46.5907 36.5432H42.5088L44.1071 28.7115C44.289 27.8205 44.2222 27.2128 43.9063 26.8888C43.5905 26.5648 42.9182 26.4025 41.8902 26.4025H38.6785L36.6087 36.5432H32.5906L36.2041 18.8426H40.2223" fill="white"/>
<path d="M55.005 33.3857C56.544 33.3857 57.6929 33.1155 58.4198 32.583C59.139 32.0559 59.6357 31.1427 59.8962 29.8683C60.1389 28.6774 60.0464 27.8459 59.6213 27.3972C59.1867 26.9388 58.2471 26.7064 56.8286 26.7064H54.3692L53.0056 33.3859H55.0049L55.005 33.3857ZM46.9608 41.6136C46.8466 41.6136 46.7382 41.565 46.6656 41.481C46.6297 41.4396 46.6039 41.3911 46.5899 41.339C46.576 41.2869 46.5744 41.2326 46.5851 41.1798L50.1986 23.4792C50.2156 23.3962 50.2624 23.3214 50.331 23.2676C50.3995 23.2139 50.4856 23.1845 50.5744 23.1845H58.3624C60.8103 23.1845 62.6318 23.816 63.7771 25.0653C64.9283 26.3198 65.2835 28.0735 64.8336 30.2777C64.6502 31.1757 64.3353 32.0095 63.8971 32.7564C63.4583 33.5039 62.8787 34.1955 62.1738 34.8125C61.3298 35.5645 60.3746 36.1097 59.3373 36.4306C58.3165 36.7472 57.0055 36.9079 55.4406 36.9079H52.2867L51.3865 41.319C51.3695 41.402 51.3228 41.4769 51.2542 41.5307C51.1856 41.5845 51.0996 41.6139 51.0107 41.6139H46.9607L46.9608 41.6136Z" fill="black"/>
<path d="M54.6848 27.0706H56.8288C58.5407 27.0706 59.1355 27.4283 59.3376 27.6414C59.673 27.9953 59.7362 28.7415 59.5206 29.799C59.2785 30.9831 58.8296 31.8228 58.1866 32.2942C57.5281 32.7768 56.4576 33.0214 55.0052 33.0214H53.4703L54.6848 27.0706ZM58.3624 22.8201H50.5743C50.3967 22.8201 50.2246 22.8789 50.0875 22.9865C49.9505 23.0941 49.857 23.2437 49.8231 23.4097L46.2097 41.1105C46.1882 41.216 46.1914 41.3247 46.2192 41.4288C46.247 41.533 46.2986 41.63 46.3704 41.7129C46.4422 41.7958 46.5324 41.8626 46.6345 41.9084C46.7366 41.9543 46.848 41.9781 46.9609 41.9781H51.0109C51.1886 41.9781 51.3607 41.9193 51.4978 41.8117C51.6349 41.7041 51.7284 41.5545 51.7623 41.3885L52.6025 37.2721H55.4407C57.0457 37.2721 58.3968 37.1055 59.4563 36.777C60.5457 36.44 61.5483 35.8686 62.4356 35.0784C63.1693 34.436 63.7735 33.7146 64.2314 32.9343C64.6894 32.1541 65.0185 31.2834 65.2095 30.3473C65.6834 28.0271 65.2985 26.1693 64.0653 24.8256C62.8443 23.4949 60.9257 22.8202 58.3626 22.8202M52.5418 33.7502H55.0052C56.638 33.7502 57.8544 33.4575 58.6535 32.8717C59.4525 32.2858 59.9918 31.3081 60.2719 29.9379C60.5401 28.6224 60.418 27.6941 59.9058 27.1532C59.3937 26.6123 58.3675 26.342 56.8291 26.342H54.0541L52.5419 33.7501M58.3627 23.5487C60.7056 23.5487 62.4148 24.1341 63.4891 25.3048C64.5634 26.4755 64.8868 28.1099 64.4582 30.2081C64.2818 31.0725 63.9834 31.8627 63.5634 32.5788C63.1433 33.2948 62.5937 33.9502 61.915 34.5442C61.1063 35.2647 60.2079 35.7781 59.2193 36.0841C58.2307 36.3908 56.9717 36.5434 55.441 36.5434H51.9718L51.0113 41.2494H46.9613L50.5748 23.5488H58.3629" fill="white"/>
</g>
</svg>
