<svg width="360" height="265" viewBox="0 0 360 265" fill="none" xmlns="http://www.w3.org/2000/svg">
<path d="M2 209L138.914 105.456C140.487 104.266 142.613 104.112 144.341 105.063L202.372 137L212.703 142.686C214.656 143.76 217.083 143.413 218.656 141.835L356 4M356 4L313 11M356 4L349 46M356 4L357 3" stroke="#A87BE3" stroke-width="6"/>
<path d="M141.5 156.5L124.062 169.688L106.625 182.875M141.5 156.5V262M141.5 156.5L171.936 173.25M216 197.5L202.372 190L193.5 185.117M216 197.5V262M216 197.5L243.708 169.688M71.75 209.25V262M71.75 209.25L106.625 182.875M71.75 209.25L36.875 235.625M71.75 262H106.625M71.75 262H36.875M106.625 182.875V262M106.625 262H141.5M141.5 262H171.936M171.936 173.25V262M171.936 173.25L193.5 185.117M171.936 262H193.5M216 262H193.5M216 262H243.708M193.5 185.117V262M243.708 169.688V262M243.708 169.688L270 143.297M243.708 262H270M270 143.297V262M270 143.297L295.202 118M270 262H295.202M295.202 118C294.936 166.333 294.564 262.8 295.202 262M295.202 118L319 94.1128M295.202 262H319M319 94.1128L340.458 72.5743C343.605 69.4153 349 71.6441 349 76.1032V257C349 259.761 346.761 262 344 262H319M319 94.1128V262M36.875 235.625L13.8846 253.012C10.0602 255.904 12.1056 262 16.9005 262H36.875M36.875 235.625V262" stroke="#A87BE3" stroke-width="6"/>
</svg>
