<?xml version="1.0" encoding="UTF-8"?>
<svg fill="#B0A8B9" xmlns="http://www.w3.org/2000/svg" id="Layer_1" data-name="Layer 1" viewBox="0 0 24 24" width="512" height="512"><path d="M10.57,10.99c.23,.13,.48,.19,.73,.19,.53,0,1.04-.28,1.31-.77,.4-.72,.15-1.64-.58-2.04l-.64-.36c.07-.33,.1-.67,.1-1.02s-.04-.69-.1-1.02l.64-.36c.72-.4,.98-1.32,.58-2.04-.4-.72-1.32-.98-2.04-.58l-.65,.36c-.54-.51-1.2-.89-1.92-1.12v-.76c0-.83-.67-1.5-1.5-1.5s-1.5,.67-1.5,1.5v.76c-.72,.23-1.38,.61-1.92,1.12l-.65-.36c-.72-.4-1.64-.15-2.04,.58-.4,.72-.15,1.64,.58,2.04l.64,.36c-.07,.33-.1,.67-.1,1.02s.04,.69,.1,1.02l-.64,.36c-.72,.4-.98,1.32-.58,2.04,.27,.49,.79,.77,1.31,.77,.25,0,.5-.06,.73-.19l.65-.36c.54,.51,1.2,.89,1.92,1.12v.76c0,.83,.67,1.5,1.5,1.5s1.5-.67,1.5-1.5v-.76c.72-.23,1.38-.61,1.92-1.12l.65,.36Zm-4.07-1.99c-1.1,0-2-.9-2-2s.9-2,2-2,2,.9,2,2-.9,2-2,2Zm16.03,9.37l-.64-.36c.07-.33,.1-.67,.1-1.02s-.04-.69-.1-1.02l.64-.36c.72-.4,.98-1.32,.58-2.04-.4-.72-1.32-.98-2.04-.58l-.65,.36c-.54-.51-1.2-.89-1.92-1.12v-.76c0-.83-.67-1.5-1.5-1.5s-1.5,.67-1.5,1.5v.76c-.72,.23-1.38,.61-1.92,1.12l-.65-.36c-.72-.4-1.64-.15-2.04,.58-.4,.72-.15,1.64,.58,2.04l.64,.36c-.07,.33-.1,.67-.1,1.02s.04,.69,.1,1.02l-.64,.36c-.72,.4-.98,1.32-.58,2.04,.27,.49,.79,.77,1.31,.77,.25,0,.5-.06,.73-.19l.65-.36c.54,.51,1.2,.89,1.92,1.12v.76c0,.83,.67,1.5,1.5,1.5s1.5-.67,1.5-1.5v-.76c.72-.23,1.38-.61,1.92-1.12l.65,.36c.23,.13,.48,.19,.73,.19,.53,0,1.04-.28,1.31-.77,.4-.72,.15-1.64-.58-2.04Zm-5.53,.63c-1.1,0-2-.9-2-2s.9-2,2-2,2,.9,2,2-.9,2-2,2Z"/></svg>
